STARTFONT 2.1
FONT -FontForge-DejaVu Sans Mono-Bold-R-Normal-SansMono--24-240-75-75-P-139-ISO10646-1
SIZE 24 75 75
FONTBOUNDINGBOX 29 34 -11 -9
COMMENT "Generated by fontforge, http://fontforge.sourceforge.net"
COMMENT "Copyright (c) 2003 by Bitstream, Inc. All Rights Reserved."
COMMENT "DejaVu changes are in public domain"
STARTPROPERTIES 40
FOUNDRY "FontForge"
FAMILY_NAME "DejaVu Sans Mono"
WEIGHT_NAME "Bold"
SLANT "R"
SETWIDTH_NAME "Normal"
ADD_STYLE_NAME "SansMono"
PIXEL_SIZE 24
POINT_SIZE 240
RESOLUTION_X 75
RESOLUTION_Y 75
SPACING "P"
AVERAGE_WIDTH 139
CHARSET_REGISTRY "ISO10646"
CHARSET_ENCODING "1"
FONTNAME_REGISTRY ""
CHARSET_COLLECTIONS "ASCII ISOLatin1Encoding ISO8859-2 ISO8859-5 ISO8859-7 ISO8859-9 ISO8859-6 ISO8859-4 ISO10646-1"
FONT_NAME "DejaVuSansMono-Bold"
FACE_NAME "DejaVu Sans Mono Bold"
COPYRIGHT "Copyright (c) 2003 by Bitstream, Inc. All Rights Reserved."
FONT_VERSION "2.37"
FONT_ASCENT 18
FONT_DESCENT 6
UNDERLINE_POSITION -2
UNDERLINE_THICKNESS 2
X_HEIGHT 12
CAP_HEIGHT 17
RAW_ASCENT 759
RAW_DESCENT 240
NORM_SPACE 14
RELATIVE_WEIGHT 70
RELATIVE_SETWIDTH 50
SUPERSCRIPT_X 0
SUPERSCRIPT_Y 11
SUPERSCRIPT_SIZE 16
SUBSCRIPT_X 0
SUBSCRIPT_Y 3
SUBSCRIPT_SIZE 16
FIGURE_WIDTH 14
AVG_LOWERCASE_WIDTH 140
AVG_UPPERCASE_WIDTH 140
ENDPROPERTIES
CHARS 3316
STARTCHAR space
ENCODING 32
SWIDTH 602 0
DWIDTH 14 0
BBX 1 1 0 0
BITMAP
00
ENDCHAR
STARTCHAR exclam
ENCODING 33
SWIDTH 602 0
DWIDTH 14 0
BBX 3 18 6 0
BITMAP
E0
E0
E0
E0
E0
E0
E0
E0
E0
E0
E0
E0
E0
00
00
E0
E0
E0
ENDCHAR
STARTCHAR quotedbl
ENCODING 34
SWIDTH 602 0
DWIDTH 14 0
BBX 9 7 3 11
BITMAP
E380
E380
E380
E380
E380
E380
E380
ENDCHAR
STARTCHAR numbersign
ENCODING 35
SWIDTH 602 0
DWIDTH 14 0
BBX 14 17 0 0
BITMAP
0738
0738
0630
0670
7FFC
7FFC
7FFC
0C60
1CE0
1CC0
FFF8
FFF8
FFF8
39C0
3180
3180
7380
ENDCHAR
STARTCHAR dollar
ENCODING 36
SWIDTH 602 0
DWIDTH 14 0
BBX 12 22 1 -4
BITMAP
0600
0600
0600
1FC0
7FE0
FFE0
E620
E600
F600
7F00
7FC0
1FE0
06F0
0670
C6F0
FFF0
FFE0
3F80
0600
0600
0600
0600
ENDCHAR
STARTCHAR percent
ENCODING 37
SWIDTH 602 0
DWIDTH 14 0
BBX 14 18 0 0
BITMAP
3800
7C00
C600
C600
C600
7C08
3838
00E0
0180
0600
1800
7070
40F8
018C
018C
018C
00F8
0070
ENDCHAR
STARTCHAR ampersand
ENCODING 38
SWIDTH 602 0
DWIDTH 14 0
BBX 14 18 1 0
BITMAP
0FC0
1FE0
3FE0
3820
3800
3C00
1C00
1E00
3F00
779C
E79C
E3DC
E1FC
E0F8
F8F0
7FF8
3FF8
1FBC
ENDCHAR
STARTCHAR quotesingle
ENCODING 39
SWIDTH 602 0
DWIDTH 14 0
BBX 3 7 6 11
BITMAP
E0
E0
E0
E0
E0
E0
E0
ENDCHAR
STARTCHAR parenleft
ENCODING 40
SWIDTH 602 0
DWIDTH 14 0
BBX 6 21 4 -3
BITMAP
1C
38
38
70
70
70
E0
E0
E0
E0
E0
E0
E0
E0
E0
70
70
70
38
38
1C
ENDCHAR
STARTCHAR parenright
ENCODING 41
SWIDTH 602 0
DWIDTH 14 0
BBX 6 21 4 -3
BITMAP
E0
70
70
38
38
38
1C
1C
1C
1C
1C
1C
1C
1C
1C
38
38
38
70
70
E0
ENDCHAR
STARTCHAR asterisk
ENCODING 42
SWIDTH 602 0
DWIDTH 14 0
BBX 12 12 1 6
BITMAP
0600
0600
4620
F6F0
7FE0
1F80
1F80
7FE0
F6F0
4620
0600
0600
ENDCHAR
STARTCHAR plus
ENCODING 43
SWIDTH 602 0
DWIDTH 14 0
BBX 13 13 1 1
BITMAP
0700
0700
0700
0700
0700
FFF8
FFF8
FFF8
0700
0700
0700
0700
0700
ENDCHAR
STARTCHAR comma
ENCODING 44
SWIDTH 602 0
DWIDTH 14 0
BBX 5 8 4 -4
BITMAP
78
78
78
78
78
70
F0
E0
ENDCHAR
STARTCHAR hyphen
ENCODING 45
SWIDTH 602 0
DWIDTH 14 0
BBX 7 3 4 5
BITMAP
FE
FE
FE
ENDCHAR
STARTCHAR period
ENCODING 46
SWIDTH 602 0
DWIDTH 14 0
BBX 4 4 5 0
BITMAP
F0
F0
F0
F0
ENDCHAR
STARTCHAR slash
ENCODING 47
SWIDTH 602 0
DWIDTH 14 0
BBX 12 20 1 -2
BITMAP
0070
00E0
00E0
01C0
01C0
01C0
0380
0380
0700
0700
0E00
0E00
1C00
1C00
3800
3800
3800
7000
7000
E000
ENDCHAR
STARTCHAR zero
ENCODING 48
SWIDTH 602 0
DWIDTH 14 0
BBX 12 18 1 0
BITMAP
1F80
3FC0
7FE0
70E0
F0E0
E070
E070
E770
E770
E770
E070
E070
E070
F0E0
70E0
7FE0
3FC0
1F00
ENDCHAR
STARTCHAR one
ENCODING 49
SWIDTH 602 0
DWIDTH 14 0
BBX 11 18 2 0
BITMAP
3E00
FE00
FE00
CE00
0E00
0E00
0E00
0E00
0E00
0E00
0E00
0E00
0E00
0E00
0E00
FFE0
FFE0
FFE0
ENDCHAR
STARTCHAR two
ENCODING 50
SWIDTH 602 0
DWIDTH 14 0
BBX 12 18 1 0
BITMAP
3F80
FFC0
FFE0
C0F0
0070
0070
0070
00E0
01C0
03C0
0780
0F00
1E00
3C00
7800
FFF0
FFF0
FFF0
ENDCHAR
STARTCHAR three
ENCODING 51
SWIDTH 602 0
DWIDTH 14 0
BBX 12 18 1 0
BITMAP
1F80
7FE0
7FF0
40F0
0070
0070
00F0
1FE0
1F80
1FE0
00F0
0070
0070
0070
C0F0
FFE0
FFE0
3F80
ENDCHAR
STARTCHAR four
ENCODING 52
SWIDTH 602 0
DWIDTH 14 0
BBX 12 18 1 0
BITMAP
03C0
03C0
07C0
0FC0
0DC0
1DC0
39C0
39C0
71C0
61C0
E1C0
FFF0
FFF0
FFF0
01C0
01C0
01C0
01C0
ENDCHAR
STARTCHAR five
ENCODING 53
SWIDTH 602 0
DWIDTH 14 0
BBX 12 18 1 0
BITMAP
7FE0
7FE0
7FE0
7000
7000
7000
7F80
7FC0
7FE0
41F0
0070
0070
0070
0070
81F0
FFE0
FFC0
3F00
ENDCHAR
STARTCHAR six
ENCODING 54
SWIDTH 602 0
DWIDTH 14 0
BBX 12 18 1 0
BITMAP
0FC0
1FE0
3FE0
7820
7000
E000
EF80
FFE0
FFE0
F0F0
E070
E070
E070
E070
70F0
7FE0
3FC0
1F80
ENDCHAR
STARTCHAR seven
ENCODING 55
SWIDTH 602 0
DWIDTH 14 0
BBX 12 18 1 0
BITMAP
FFF0
FFF0
FFF0
00F0
00E0
01E0
01C0
01C0
0380
0380
0780
0700
0F00
0E00
0E00
1C00
1C00
3800
ENDCHAR
STARTCHAR eight
ENCODING 56
SWIDTH 602 0
DWIDTH 14 0
BBX 12 18 1 0
BITMAP
1F80
7FE0
7FE0
F0F0
E070
E070
F0F0
7FE0
1F80
7FE0
F0E0
E070
E070
E070
F0F0
7FE0
7FE0
1F80
ENDCHAR
STARTCHAR nine
ENCODING 57
SWIDTH 602 0
DWIDTH 14 0
BBX 12 18 1 0
BITMAP
1F80
3FC0
7FE0
F0E0
E070
E070
E070
E070
F0F0
7FF0
7FF0
1F70
0070
00E0
41E0
7FC0
7F80
3F00
ENDCHAR
STARTCHAR colon
ENCODING 58
SWIDTH 602 0
DWIDTH 14 0
BBX 4 12 5 0
BITMAP
F0
F0
F0
F0
00
00
00
00
F0
F0
F0
F0
ENDCHAR
STARTCHAR semicolon
ENCODING 59
SWIDTH 602 0
DWIDTH 14 0
BBX 5 16 4 -4
BITMAP
78
78
78
78
00
00
00
00
78
78
78
78
78
70
F0
E0
ENDCHAR
STARTCHAR less
ENCODING 60
SWIDTH 602 0
DWIDTH 14 0
BBX 12 13 1 1
BITMAP
0010
00F0
03F0
0FE0
7F00
FC00
E000
FC00
7F00
0FE0
03F0
00F0
0010
ENDCHAR
STARTCHAR equal
ENCODING 61
SWIDTH 602 0
DWIDTH 14 0
BBX 12 9 1 3
BITMAP
FFF0
FFF0
FFF0
0000
0000
0000
FFF0
FFF0
FFF0
ENDCHAR
STARTCHAR greater
ENCODING 62
SWIDTH 602 0
DWIDTH 14 0
BBX 12 13 1 1
BITMAP
8000
F000
FC00
7F00
0FE0
03F0
0070
03F0
0FE0
7F00
FC00
F000
8000
ENDCHAR
STARTCHAR question
ENCODING 63
SWIDTH 602 0
DWIDTH 14 0
BBX 10 18 3 0
BITMAP
7F00
FF80
FFC0
81C0
01C0
01C0
0380
0700
0F00
1C00
3800
3800
3800
3800
0000
3800
3800
3800
ENDCHAR
STARTCHAR at
ENCODING 64
SWIDTH 602 0
DWIDTH 14 0
BBX 14 20 0 -4
BITMAP
07E0
0FF0
3C38
301C
700C
61EC
E7FC
C61C
CC0C
CC0C
CC0C
CC0C
C61C
E7FC
61EC
7000
3800
1C08
0FFC
03F0
ENDCHAR
STARTCHAR A
ENCODING 65
SWIDTH 602 0
DWIDTH 14 0
BBX 14 18 0 0
BITMAP
0780
0FC0
0FC0
0FC0
0FC0
1CE0
1CE0
1CE0
1CE0
3CF0
3870
3FF0
7FF8
7FF8
7038
7038
F03C
F03C
ENDCHAR
STARTCHAR B
ENCODING 66
SWIDTH 602 0
DWIDTH 14 0
BBX 12 18 1 0
BITMAP
FF00
FFC0
FFE0
E1E0
E0E0
E0E0
E1E0
FFC0
FF00
FFE0
E0E0
E070
E070
E070
E0F0
FFF0
FFE0
FF80
ENDCHAR
STARTCHAR C
ENCODING 67
SWIDTH 602 0
DWIDTH 14 0
BBX 11 18 2 0
BITMAP
0FC0
1FE0
3FE0
7860
7020
F000
E000
E000
E000
E000
E000
E000
F000
7020
7860
3FE0
1FE0
0FC0
ENDCHAR
STARTCHAR D
ENCODING 68
SWIDTH 602 0
DWIDTH 14 0
BBX 12 18 2 0
BITMAP
FE00
FF80
FFC0
E1E0
E0E0
E0F0
E070
E070
E070
E070
E070
E070
E0F0
E0E0
E1E0
FFC0
FF80
FE00
ENDCHAR
STARTCHAR E
ENCODING 69
SWIDTH 602 0
DWIDTH 14 0
BBX 11 18 2 0
BITMAP
FFE0
FFE0
FFE0
E000
E000
E000
E000
FFC0
FFC0
FFC0
E000
E000
E000
E000
E000
FFE0
FFE0
FFE0
ENDCHAR
STARTCHAR F
ENCODING 70
SWIDTH 602 0
DWIDTH 14 0
BBX 11 18 2 0
BITMAP
FFE0
FFE0
FFE0
E000
E000
E000
E000
FFC0
FFC0
FFC0
E000
E000
E000
E000
E000
E000
E000
E000
ENDCHAR
STARTCHAR G
ENCODING 71
SWIDTH 602 0
DWIDTH 14 0
BBX 12 18 1 0
BITMAP
0FC0
1FE0
3FE0
7860
7000
F000
E000
E000
E1F0
E1F0
E1F0
E070
F070
7070
7870
3FF0
1FF0
0FC0
ENDCHAR
STARTCHAR H
ENCODING 72
SWIDTH 602 0
DWIDTH 14 0
BBX 11 18 2 0
BITMAP
E0E0
E0E0
E0E0
E0E0
E0E0
E0E0
E0E0
FFE0
FFE0
FFE0
E0E0
E0E0
E0E0
E0E0
E0E0
E0E0
E0E0
E0E0
ENDCHAR
STARTCHAR I
ENCODING 73
SWIDTH 602 0
DWIDTH 14 0
BBX 9 18 3 0
BITMAP
FF80
FF80
FF80
1C00
1C00
1C00
1C00
1C00
1C00
1C00
1C00
1C00
1C00
1C00
1C00
FF80
FF80
FF80
ENDCHAR
STARTCHAR J
ENCODING 74
SWIDTH 602 0
DWIDTH 14 0
BBX 11 18 1 0
BITMAP
0FE0
0FE0
0FE0
00E0
00E0
00E0
00E0
00E0
00E0
00E0
00E0
00E0
00E0
80E0
C1E0
FFC0
FFC0
7F00
ENDCHAR
STARTCHAR K
ENCODING 75
SWIDTH 602 0
DWIDTH 14 0
BBX 12 18 1 0
BITMAP
E0F0
E1E0
E1C0
E3C0
E780
EF00
FE00
FE00
FF00
FF00
F780
E780
E3C0
E3C0
E1E0
E1E0
E0F0
E0F0
ENDCHAR
STARTCHAR L
ENCODING 76
SWIDTH 602 0
DWIDTH 14 0
BBX 11 18 3 0
BITMAP
E000
E000
E000
E000
E000
E000
E000
E000
E000
E000
E000
E000
E000
E000
E000
FFE0
FFE0
FFE0
ENDCHAR
STARTCHAR M
ENCODING 77
SWIDTH 602 0
DWIDTH 14 0
BBX 12 18 1 0
BITMAP
F0F0
F0F0
F9F0
F9F0
F9F0
F9F0
EF70
EF70
EF70
EF70
EF70
E670
E070
E070
E070
E070
E070
E070
ENDCHAR
STARTCHAR N
ENCODING 78
SWIDTH 602 0
DWIDTH 14 0
BBX 11 18 1 0
BITMAP
F0E0
F0E0
F0E0
F8E0
F8E0
F8E0
ECE0
ECE0
ECE0
E6E0
E6E0
E6E0
E3E0
E3E0
E3E0
E1E0
E1E0
E1E0
ENDCHAR
STARTCHAR O
ENCODING 79
SWIDTH 602 0
DWIDTH 14 0
BBX 12 18 1 0
BITMAP
0F00
3FC0
7FE0
70E0
70E0
E070
E070
E070
E070
E070
E070
E070
E070
70E0
70E0
7FE0
3FC0
0F00
ENDCHAR
STARTCHAR P
ENCODING 80
SWIDTH 602 0
DWIDTH 14 0
BBX 11 18 2 0
BITMAP
FF00
FFC0
FFC0
E1E0
E0E0
E0E0
E0E0
E1E0
FFC0
FFC0
FF00
E000
E000
E000
E000
E000
E000
E000
ENDCHAR
STARTCHAR Q
ENCODING 81
SWIDTH 602 0
DWIDTH 14 0
BBX 12 21 1 -3
BITMAP
0F00
3FC0
7FE0
70E0
70E0
E070
E070
E070
E070
E070
E070
E070
E070
70F0
70E0
7FE0
3FC0
0FC0
01E0
00E0
0040
ENDCHAR
STARTCHAR R
ENCODING 82
SWIDTH 602 0
DWIDTH 14 0
BBX 13 18 2 0
BITMAP
FF00
FFC0
FFC0
E1E0
E0E0
E0E0
E0E0
E1E0
FFC0
FF00
FF80
E3C0
E3C0
E1E0
E1E0
E0F0
E0F0
E078
ENDCHAR
STARTCHAR S
ENCODING 83
SWIDTH 602 0
DWIDTH 14 0
BBX 11 18 2 0
BITMAP
1F80
7FC0
7FC0
F0C0
E040
E000
F000
7E00
7F80
1FC0
07E0
01E0
00E0
80E0
E1E0
FFC0
FFC0
7F00
ENDCHAR
STARTCHAR T
ENCODING 84
SWIDTH 602 0
DWIDTH 14 0
BBX 11 18 2 0
BITMAP
FFE0
FFE0
FFE0
0E00
0E00
0E00
0E00
0E00
0E00
0E00
0E00
0E00
0E00
0E00
0E00
0E00
0E00
0E00
ENDCHAR
STARTCHAR U
ENCODING 85
SWIDTH 602 0
DWIDTH 14 0
BBX 11 18 1 0
BITMAP
E0E0
E0E0
E0E0
E0E0
E0E0
E0E0
E0E0
E0E0
E0E0
E0E0
E0E0
E0E0
E0E0
E0E0
F1E0
7FC0
7FC0
1F00
ENDCHAR
STARTCHAR V
ENCODING 86
SWIDTH 602 0
DWIDTH 14 0
BBX 13 18 1 0
BITMAP
F078
F078
7070
7070
7070
78F0
78F0
38E0
38E0
38E0
3DE0
1DC0
1DC0
1DC0
1DC0
0F80
0F80
0F80
ENDCHAR
STARTCHAR W
ENCODING 87
SWIDTH 602 0
DWIDTH 14 0
BBX 14 18 0 0
BITMAP
E01C
E01C
E01C
E01C
601C
7798
77B8
77B8
77B8
77B8
77F8
7CF8
7CF8
3CF8
3CF0
3CF0
3870
3870
ENDCHAR
STARTCHAR X
ENCODING 88
SWIDTH 602 0
DWIDTH 14 0
BBX 14 18 0 0
BITMAP
F03C
7038
7878
3CF0
1CE0
1FE0
0FC0
0FC0
0780
0780
0FC0
0FC0
1FE0
1CE0
3CF0
7878
7038
F03C
ENDCHAR
STARTCHAR Y
ENCODING 89
SWIDTH 602 0
DWIDTH 14 0
BBX 13 18 1 0
BITMAP
F078
7070
78F0
38E0
3DE0
1DC0
1DC0
1FC0
0F80
0F80
0700
0700
0700
0700
0700
0700
0700
0700
ENDCHAR
STARTCHAR Z
ENCODING 90
SWIDTH 602 0
DWIDTH 14 0
BBX 12 18 1 0
BITMAP
FFF0
FFF0
FFF0
00F0
01E0
03C0
03C0
0780
0F00
0F00
1E00
3C00
3C00
7800
F000
FFF0
FFF0
FFF0
ENDCHAR
STARTCHAR bracketleft
ENCODING 91
SWIDTH 602 0
DWIDTH 14 0
BBX 6 21 5 -3
BITMAP
FC
FC
E0
E0
E0
E0
E0
E0
E0
E0
E0
E0
E0
E0
E0
E0
E0
E0
E0
FC
FC
ENDCHAR
STARTCHAR backslash
ENCODING 92
SWIDTH 602 0
DWIDTH 14 0
BBX 12 20 1 -2
BITMAP
E000
6000
7000
3000
3800
1800
1C00
1C00
0E00
0E00
0700
0700
0380
0380
0180
01C0
00C0
00E0
0060
0070
ENDCHAR
STARTCHAR bracketright
ENCODING 93
SWIDTH 602 0
DWIDTH 14 0
BBX 6 21 3 -3
BITMAP
FC
FC
1C
1C
1C
1C
1C
1C
1C
1C
1C
1C
1C
1C
1C
1C
1C
1C
1C
FC
FC
ENDCHAR
STARTCHAR asciicircum
ENCODING 94
SWIDTH 602 0
DWIDTH 14 0
BBX 13 7 1 11
BITMAP
0700
0F80
1FC0
1DC0
38E0
7070
E038
ENDCHAR
STARTCHAR underscore
ENCODING 95
SWIDTH 602 0
DWIDTH 14 0
BBX 14 2 0 -6
BITMAP
FFFC
FFFC
ENDCHAR
STARTCHAR grave
ENCODING 96
SWIDTH 602 0
DWIDTH 14 0
BBX 6 4 3 15
BITMAP
E0
70
38
1C
ENDCHAR
STARTCHAR a
ENCODING 97
SWIDTH 602 0
DWIDTH 14 0
BBX 12 13 1 0
BITMAP
3F80
7FE0
7FE0
60F0
0070
3FF0
7FF0
FFF0
E070
E0F0
FFF0
7FF0
3E70
ENDCHAR
STARTCHAR b
ENCODING 98
SWIDTH 602 0
DWIDTH 14 0
BBX 12 18 1 0
BITMAP
E000
E000
E000
E000
E000
E780
EFC0
FFE0
F0F0
E070
E070
E070
E070
E070
F0F0
FFE0
EFC0
E780
ENDCHAR
STARTCHAR c
ENCODING 99
SWIDTH 602 0
DWIDTH 14 0
BBX 11 13 2 0
BITMAP
0FC0
3FE0
7FE0
7820
F000
E000
E000
E000
F000
7820
7FE0
3FE0
0FC0
ENDCHAR
STARTCHAR d
ENCODING 100
SWIDTH 602 0
DWIDTH 14 0
BBX 12 18 1 0
BITMAP
0070
0070
0070
0070
0070
1E70
3F70
7FF0
F0F0
E070
E070
E070
E070
E070
F0F0
7FF0
3F70
1E70
ENDCHAR
STARTCHAR e
ENCODING 101
SWIDTH 602 0
DWIDTH 14 0
BBX 12 13 1 0
BITMAP
1F80
3FC0
7FE0
70F0
E070
FFF0
FFF0
FFF0
E000
F020
7FE0
3FE0
1FC0
ENDCHAR
STARTCHAR f
ENCODING 102
SWIDTH 602 0
DWIDTH 14 0
BBX 10 18 2 0
BITMAP
0FC0
1FC0
1FC0
1C00
1C00
FFC0
FFC0
FFC0
1C00
1C00
1C00
1C00
1C00
1C00
1C00
1C00
1C00
1C00
ENDCHAR
STARTCHAR g
ENCODING 103
SWIDTH 602 0
DWIDTH 14 0
BBX 12 18 1 -5
BITMAP
1E70
3FF0
7FF0
F0F0
E070
E070
E070
E070
E070
F0F0
7FF0
3FF0
1F70
0070
40F0
7FE0
7FE0
3F80
ENDCHAR
STARTCHAR h
ENCODING 104
SWIDTH 602 0
DWIDTH 14 0
BBX 11 18 2 0
BITMAP
E000
E000
E000
E000
E000
E780
FFC0
FFE0
F1E0
E0E0
E0E0
E0E0
E0E0
E0E0
E0E0
E0E0
E0E0
E0E0
ENDCHAR
STARTCHAR i
ENCODING 105
SWIDTH 602 0
DWIDTH 14 0
BBX 11 20 2 0
BITMAP
0E00
0E00
0E00
0E00
0000
0000
0000
7E00
7E00
7E00
0E00
0E00
0E00
0E00
0E00
0E00
0E00
FFE0
FFE0
FFE0
ENDCHAR
STARTCHAR j
ENCODING 106
SWIDTH 602 0
DWIDTH 14 0
BBX 8 25 2 -5
BITMAP
07
07
07
07
00
00
00
3F
3F
3F
07
07
07
07
07
07
07
07
07
07
07
0F
FF
FE
FC
ENDCHAR
STARTCHAR k
ENCODING 107
SWIDTH 602 0
DWIDTH 14 0
BBX 12 18 2 0
BITMAP
E000
E000
E000
E000
E000
E1E0
E3C0
E780
EF00
FE00
FE00
FF00
F700
E780
E3C0
E1C0
E1E0
E0F0
ENDCHAR
STARTCHAR l
ENCODING 108
SWIDTH 602 0
DWIDTH 14 0
BBX 11 18 2 0
BITMAP
FC00
FC00
FC00
1C00
1C00
1C00
1C00
1C00
1C00
1C00
1C00
1C00
1C00
1C00
1E00
1FE0
0FE0
07E0
ENDCHAR
STARTCHAR m
ENCODING 109
SWIDTH 602 0
DWIDTH 14 0
BBX 13 13 1 0
BITMAP
EEF0
FEF0
FFF8
E738
E738
E738
E738
E738
E738
E738
E738
E738
E738
ENDCHAR
STARTCHAR n
ENCODING 110
SWIDTH 602 0
DWIDTH 14 0
BBX 11 13 2 0
BITMAP
E780
FFC0
FFE0
F1E0
E0E0
E0E0
E0E0
E0E0
E0E0
E0E0
E0E0
E0E0
E0E0
ENDCHAR
STARTCHAR o
ENCODING 111
SWIDTH 602 0
DWIDTH 14 0
BBX 12 13 1 0
BITMAP
1F80
3FC0
7FE0
F0E0
E070
E070
E070
E070
E070
70E0
7FE0
3FC0
1F80
ENDCHAR
STARTCHAR p
ENCODING 112
SWIDTH 602 0
DWIDTH 14 0
BBX 12 18 1 -5
BITMAP
E780
EFC0
FFE0
F0F0
E070
E070
E070
E070
E070
F0F0
FFE0
EFC0
E780
E000
E000
E000
E000
E000
ENDCHAR
STARTCHAR q
ENCODING 113
SWIDTH 602 0
DWIDTH 14 0
BBX 12 18 1 -5
BITMAP
1E70
3F70
7FF0
F0F0
E070
E070
E070
E070
E070
F0F0
7FF0
3F70
1E70
0070
0070
0070
0070
0070
ENDCHAR
STARTCHAR r
ENCODING 114
SWIDTH 602 0
DWIDTH 14 0
BBX 10 13 3 0
BITMAP
E780
EFC0
FFC0
F840
F000
E000
E000
E000
E000
E000
E000
E000
E000
ENDCHAR
STARTCHAR s
ENCODING 115
SWIDTH 602 0
DWIDTH 14 0
BBX 11 13 2 0
BITMAP
3F80
7FC0
FFC0
E040
F800
FF80
7FC0
0FE0
00E0
C0E0
FFE0
FFC0
3F80
ENDCHAR
STARTCHAR t
ENCODING 116
SWIDTH 602 0
DWIDTH 14 0
BBX 10 17 2 0
BITMAP
1C00
1C00
1C00
1C00
FFC0
FFC0
FFC0
1C00
1C00
1C00
1C00
1C00
1C00
1C00
1FC0
0FC0
07C0
ENDCHAR
STARTCHAR u
ENCODING 117
SWIDTH 602 0
DWIDTH 14 0
BBX 11 13 2 0
BITMAP
E0E0
E0E0
E0E0
E0E0
E0E0
E0E0
E0E0
E0E0
E0E0
F1E0
FFE0
7FE0
3CE0
ENDCHAR
STARTCHAR v
ENCODING 118
SWIDTH 602 0
DWIDTH 14 0
BBX 12 13 1 0
BITMAP
F0F0
F0F0
70E0
70E0
79E0
39C0
39C0
39C0
1F80
1F80
1F80
0F00
0F00
ENDCHAR
STARTCHAR w
ENCODING 119
SWIDTH 602 0
DWIDTH 14 0
BBX 14 13 0 0
BITMAP
E01C
E01C
E01C
6318
77B8
77B8
77B8
77B8
34B0
3CF0
3CF0
3CF0
3CF0
ENDCHAR
STARTCHAR x
ENCODING 120
SWIDTH 602 0
DWIDTH 14 0
BBX 12 13 1 0
BITMAP
F0F0
79E0
39C0
3FC0
1F80
0F00
0F00
1F80
1F80
3FC0
39C0
79E0
F0F0
ENDCHAR
STARTCHAR y
ENCODING 121
SWIDTH 602 0
DWIDTH 14 0
BBX 12 18 1 -5
BITMAP
F0F0
70E0
70E0
79E0
39C0
39C0
3DC0
1F80
1F80
0F80
0F00
0F00
0F00
0E00
1E00
7E00
7C00
7800
ENDCHAR
STARTCHAR z
ENCODING 122
SWIDTH 602 0
DWIDTH 14 0
BBX 11 13 1 0
BITMAP
FFE0
FFE0
FFE0
03C0
0780
0F00
1F00
1E00
3C00
7800
FFE0
FFE0
FFE0
ENDCHAR
STARTCHAR braceleft
ENCODING 123
SWIDTH 602 0
DWIDTH 14 0
BBX 10 22 2 -4
BITMAP
07C0
0FC0
0E00
0E00
0E00
0E00
0E00
0E00
0E00
1E00
FC00
FC00
1E00
0E00
0E00
0E00
0E00
0E00
0E00
0E00
0FC0
07C0
ENDCHAR
STARTCHAR bar
ENCODING 124
SWIDTH 602 0
DWIDTH 14 0
BBX 3 24 6 -6
BITMAP
E0
E0
E0
E0
E0
E0
E0
E0
E0
E0
E0
E0
E0
E0
E0
E0
E0
E0
E0
E0
E0
E0
E0
E0
ENDCHAR
STARTCHAR braceright
ENCODING 125
SWIDTH 602 0
DWIDTH 14 0
BBX 10 22 3 -4
BITMAP
F800
FC00
1C00
1C00
1C00
1C00
1C00
1C00
1C00
1E00
0FC0
0FC0
1E00
1C00
1C00
1C00
1C00
1C00
1C00
1C00
FC00
F800
ENDCHAR
STARTCHAR asciitilde
ENCODING 126
SWIDTH 602 0
DWIDTH 14 0
BBX 12 4 1 6
BITMAP
7C10
FFF0
FFF0
83E0
ENDCHAR
STARTCHAR nonbreakingspace
ENCODING 160
SWIDTH 602 0
DWIDTH 14 0
BBX 1 1 0 0
BITMAP
00
ENDCHAR
STARTCHAR exclamdown
ENCODING 161
SWIDTH 602 0
DWIDTH 14 0
BBX 3 18 6 -5
BITMAP
E0
E0
E0
00
00
E0
E0
E0
E0
E0
E0
E0
E0
E0
E0
E0
E0
E0
ENDCHAR
STARTCHAR cent
ENCODING 162
SWIDTH 602 0
DWIDTH 14 0
BBX 10 19 1 -3
BITMAP
0600
0600
0600
1F80
3FC0
7FC0
F640
E600
E600
E600
E600
E600
F640
7FC0
3FC0
1F80
0600
0600
0600
ENDCHAR
STARTCHAR sterling
ENCODING 163
SWIDTH 602 0
DWIDTH 14 0
BBX 12 18 1 0
BITMAP
07C0
0FE0
0FE0
1E20
1C00
1C00
1C00
1C00
7FC0
7FC0
7FC0
1C00
1C00
1C00
1C00
FFF0
FFF0
FFF0
ENDCHAR
STARTCHAR currency
ENCODING 164
SWIDTH 602 0
DWIDTH 14 0
BBX 10 10 3 3
BITMAP
4080
FFC0
7F80
7380
6180
6180
7380
7F80
FFC0
4080
ENDCHAR
STARTCHAR yen
ENCODING 165
SWIDTH 602 0
DWIDTH 14 0
BBX 13 18 1 0
BITMAP
F078
7070
78F0
78F0
38E0
3DE0
1DC0
FFF8
FFF8
0F80
0700
FFF8
FFF8
0700
0700
0700
0700
0700
ENDCHAR
STARTCHAR brokenbar
ENCODING 166
SWIDTH 602 0
DWIDTH 14 0
BBX 3 21 6 -4
BITMAP
E0
E0
E0
E0
E0
E0
E0
E0
E0
00
00
00
E0
E0
E0
E0
E0
E0
E0
E0
E0
ENDCHAR
STARTCHAR section
ENCODING 167
SWIDTH 602 0
DWIDTH 14 0
BBX 10 20 2 -2
BITMAP
1E00
3F00
7F00
7100
7000
7800
3C00
7F00
E780
E3C0
E1C0
7BC0
3F80
0F00
0780
0380
4380
7F80
7F00
3E00
ENDCHAR
STARTCHAR dieresis
ENCODING 168
SWIDTH 602 0
DWIDTH 14 0
BBX 8 3 4 16
BITMAP
E7
E7
E7
ENDCHAR
STARTCHAR copyright
ENCODING 169
SWIDTH 602 0
DWIDTH 14 0
BBX 14 14 0 1
BITMAP
0FC0
1FE0
3870
6018
E79C
CC0C
CC0C
CC0C
CC0C
E79C
6018
3870
1FE0
0FC0
ENDCHAR
STARTCHAR ordfeminine
ENCODING 170
SWIDTH 602 0
DWIDTH 14 0
BBX 8 13 3 5
BITMAP
3C
7E
43
03
7F
FF
C3
C7
FF
7B
00
7F
7F
ENDCHAR
STARTCHAR guillemotleft
ENCODING 171
SWIDTH 602 0
DWIDTH 14 0
BBX 12 11 1 1
BITMAP
0410
0C30
1C70
38E0
F3C0
E300
F3C0
38E0
1C70
0C30
0410
ENDCHAR
STARTCHAR logicalnot
ENCODING 172
SWIDTH 602 0
DWIDTH 14 0
BBX 12 6 1 5
BITMAP
FFF0
FFF0
FFF0
0070
0070
0070
ENDCHAR
STARTCHAR sfthyphen
ENCODING 173
SWIDTH 602 0
DWIDTH 14 0
BBX 7 3 4 5
BITMAP
FE
FE
FE
ENDCHAR
STARTCHAR registered
ENCODING 174
SWIDTH 602 0
DWIDTH 14 0
BBX 14 14 0 1
BITMAP
0FC0
1FE0
3870
6018
EFDC
CCCC
CF8C
CD8C
CCCC
ECFC
6018
3870
1FE0
0FC0
ENDCHAR
STARTCHAR macron
ENCODING 175
SWIDTH 602 0
DWIDTH 14 0
BBX 7 2 4 16
BITMAP
FE
FE
ENDCHAR
STARTCHAR degree
ENCODING 176
SWIDTH 602 0
DWIDTH 14 0
BBX 8 8 3 10
BITMAP
3C
7E
E7
C3
C3
E7
7E
3C
ENDCHAR
STARTCHAR plusminus
ENCODING 177
SWIDTH 602 0
DWIDTH 14 0
BBX 13 15 1 0
BITMAP
0700
0700
0700
0700
FFF8
FFF8
FFF8
0700
0700
0700
0700
0000
FFF8
FFF8
FFF8
ENDCHAR
STARTCHAR twosuperior
ENCODING 178
SWIDTH 602 0
DWIDTH 14 0
BBX 8 10 3 8
BITMAP
7C
FF
83
03
06
0C
38
60
FF
FF
ENDCHAR
STARTCHAR threesuperior
ENCODING 179
SWIDTH 602 0
DWIDTH 14 0
BBX 8 10 3 8
BITMAP
7C
FF
83
03
3E
3E
03
83
FF
7E
ENDCHAR
STARTCHAR acute
ENCODING 180
SWIDTH 602 0
DWIDTH 14 0
BBX 6 4 6 15
BITMAP
1C
38
70
E0
ENDCHAR
STARTCHAR mu
ENCODING 181
SWIDTH 602 0
DWIDTH 14 0
BBX 12 18 2 -5
BITMAP
E0E0
E0E0
E0E0
E0E0
E0E0
E0E0
E0E0
E0E0
E0E0
F1E0
FFF0
FF70
EE70
E000
E000
E000
E000
E000
ENDCHAR
STARTCHAR paragraph
ENCODING 182
SWIDTH 602 0
DWIDTH 14 0
BBX 12 20 1 -2
BITMAP
1FF0
3FF0
7F30
FF30
FF30
FF30
FF30
7F30
3F30
1F30
0330
0330
0330
0330
0330
0330
0330
0330
0330
0330
ENDCHAR
STARTCHAR periodcentered
ENCODING 183
SWIDTH 602 0
DWIDTH 14 0
BBX 4 4 5 6
BITMAP
F0
F0
F0
F0
ENDCHAR
STARTCHAR cedilla
ENCODING 184
SWIDTH 602 0
DWIDTH 14 0
BBX 5 5 5 -5
BITMAP
30
18
18
F8
F0
ENDCHAR
STARTCHAR onesuperior
ENCODING 185
SWIDTH 602 0
DWIDTH 14 0
BBX 8 10 3 8
BITMAP
F8
F8
18
18
18
18
18
18
FF
FF
ENDCHAR
STARTCHAR ordmasculine
ENCODING 186
SWIDTH 602 0
DWIDTH 14 0
BBX 9 13 3 5
BITMAP
3E00
7F00
E380
C180
C180
C180
C180
E380
7F00
3E00
0000
FF80
FF80
ENDCHAR
STARTCHAR guillemotright
ENCODING 187
SWIDTH 602 0
DWIDTH 14 0
BBX 12 11 2 1
BITMAP
8200
C300
E380
71C0
3CF0
0C70
3CF0
71C0
E380
C300
8200
ENDCHAR
STARTCHAR onequarter
ENCODING 188
SWIDTH 602 0
DWIDTH 14 0
BBX 14 23 0 -3
BITMAP
F800
F800
1800
1800
1800
1800
1800
1800
FF00
FF00
001C
01F0
1F00
70E0
00E0
01E0
0360
0660
0460
0FF0
0FF0
0060
0060
ENDCHAR
STARTCHAR onehalf
ENCODING 189
SWIDTH 602 0
DWIDTH 14 0
BBX 14 23 0 -3
BITMAP
F800
F800
1800
1800
1800
1800
1800
1800
FF00
FF00
001C
01F0
1F00
73F0
07F8
0618
0018
0030
0060
00C0
0380
07F8
07F8
ENDCHAR
STARTCHAR threequarters
ENCODING 190
SWIDTH 602 0
DWIDTH 14 0
BBX 14 23 0 -3
BITMAP
7E00
FF00
8300
0300
3E00
3F00
0300
8300
FF00
7E00
001C
01F0
1F00
70E0
00E0
01E0
0360
0660
0460
0FF0
0FF0
0060
0060
ENDCHAR
STARTCHAR questiondown
ENCODING 191
SWIDTH 602 0
DWIDTH 14 0
BBX 10 18 1 -5
BITMAP
0700
0700
0700
0000
0700
0700
0700
0700
0E00
3C00
3800
7000
E000
E000
E040
FFC0
7FC0
3F80
ENDCHAR
STARTCHAR Agrave
ENCODING 192
SWIDTH 602 0
DWIDTH 14 0
BBX 14 22 0 0
BITMAP
0E00
0700
0380
0000
0780
0FC0
0FC0
0FC0
0FC0
1CE0
1CE0
1CE0
1CE0
3CF0
3870
3FF0
7FF8
7FF8
7038
7038
F03C
F03C
ENDCHAR
STARTCHAR Aacute
ENCODING 193
SWIDTH 602 0
DWIDTH 14 0
BBX 14 22 0 0
BITMAP
00E0
01C0
0380
0000
0780
0FC0
0FC0
0FC0
0FC0
1CE0
1CE0
1CE0
1CE0
3CF0
3870
3FF0
7FF8
7FF8
7038
7038
F03C
F03C
ENDCHAR
STARTCHAR Acircumflex
ENCODING 194
SWIDTH 602 0
DWIDTH 14 0
BBX 14 22 0 0
BITMAP
0780
0FC0
1860
0000
0780
0FC0
0FC0
0FC0
0FC0
1CE0
1CE0
1CE0
1CE0
3CF0
3870
3FF0
7FF8
7FF8
7038
7038
F03C
F03C
ENDCHAR
STARTCHAR Atilde
ENCODING 195
SWIDTH 602 0
DWIDTH 14 0
BBX 14 22 0 0
BITMAP
0E60
1FE0
19C0
0000
0780
0FC0
0FC0
0FC0
0FC0
1CE0
1CE0
1CE0
1CE0
3CF0
3870
3FF0
7FF8
7FF8
7038
7038
F03C
F03C
ENDCHAR
STARTCHAR Adieresis
ENCODING 196
SWIDTH 602 0
DWIDTH 14 0
BBX 14 22 0 0
BITMAP
1CE0
1CE0
1CE0
0000
0780
0FC0
0FC0
0FC0
0FC0
1CE0
1CE0
1CE0
1CE0
3CF0
3870
3FF0
7FF8
7FF8
7038
7038
F03C
F03C
ENDCHAR
STARTCHAR Aring
ENCODING 197
SWIDTH 602 0
DWIDTH 14 0
BBX 14 22 1 0
BITMAP
0780
0FC0
0CC0
0CC0
0780
0780
0780
0FC0
0FC0
0FC0
1CE0
1CE0
1CE0
1CE0
3870
3FF0
3FF0
7FF8
7038
7038
F03C
F03C
ENDCHAR
STARTCHAR AE
ENCODING 198
SWIDTH 602 0
DWIDTH 14 0
BBX 14 18 0 0
BITMAP
0FFC
0FFC
1FFC
1DC0
1DC0
1DC0
19C0
39F8
39F8
39F8
39C0
7FC0
7FC0
7FC0
71C0
71FC
E1FC
E1FC
ENDCHAR
STARTCHAR Ccedilla
ENCODING 199
SWIDTH 602 0
DWIDTH 14 0
BBX 11 23 2 -5
BITMAP
0FC0
1FE0
3FE0
7860
7020
F000
E000
E000
E000
E000
E000
E000
F000
7020
7860
3FE0
1FE0
0FC0
0180
0180
0180
0F80
0F80
ENDCHAR
STARTCHAR Egrave
ENCODING 200
SWIDTH 602 0
DWIDTH 14 0
BBX 11 22 2 0
BITMAP
3800
1C00
0E00
0000
FFE0
FFE0
FFE0
E000
E000
E000
E000
FFC0
FFC0
FFC0
E000
E000
E000
E000
E000
FFE0
FFE0
FFE0
ENDCHAR
STARTCHAR Eacute
ENCODING 201
SWIDTH 602 0
DWIDTH 14 0
BBX 11 22 2 0
BITMAP
03C0
0380
0600
0000
FFE0
FFE0
FFE0
E000
E000
E000
E000
FFC0
FFC0
FFC0
E000
E000
E000
E000
E000
FFE0
FFE0
FFE0
ENDCHAR
STARTCHAR Ecircumflex
ENCODING 202
SWIDTH 602 0
DWIDTH 14 0
BBX 11 22 2 0
BITMAP
0F00
1B80
30C0
0000
FFE0
FFE0
FFE0
E000
E000
E000
E000
FFC0
FFC0
FFC0
E000
E000
E000
E000
E000
FFE0
FFE0
FFE0
ENDCHAR
STARTCHAR Edieresis
ENCODING 203
SWIDTH 602 0
DWIDTH 14 0
BBX 11 22 2 0
BITMAP
39C0
39C0
39C0
0000
FFE0
FFE0
FFE0
E000
E000
E000
E000
FFC0
FFC0
FFC0
E000
E000
E000
E000
E000
FFE0
FFE0
FFE0
ENDCHAR
STARTCHAR Igrave
ENCODING 204
SWIDTH 602 0
DWIDTH 14 0
BBX 9 22 3 0
BITMAP
7000
3800
1C00
0000
FF80
FF80
FF80
1C00
1C00
1C00
1C00
1C00
1C00
1C00
1C00
1C00
1C00
1C00
1C00
FF80
FF80
FF80
ENDCHAR
STARTCHAR Iacute
ENCODING 205
SWIDTH 602 0
DWIDTH 14 0
BBX 9 22 3 0
BITMAP
0700
0E00
1C00
0000
FF80
FF80
FF80
1C00
1C00
1C00
1C00
1C00
1C00
1C00
1C00
1C00
1C00
1C00
1C00
FF80
FF80
FF80
ENDCHAR
STARTCHAR Icircumflex
ENCODING 206
SWIDTH 602 0
DWIDTH 14 0
BBX 9 22 3 0
BITMAP
3E00
7700
E380
0000
FF80
FF80
FF80
1C00
1C00
1C00
1C00
1C00
1C00
1C00
1C00
1C00
1C00
1C00
1C00
FF80
FF80
FF80
ENDCHAR
STARTCHAR Idieresis
ENCODING 207
SWIDTH 602 0
DWIDTH 14 0
BBX 9 22 3 0
BITMAP
7700
7700
7700
0000
FF80
FF80
FF80
1C00
1C00
1C00
1C00
1C00
1C00
1C00
1C00
1C00
1C00
1C00
1C00
FF80
FF80
FF80
ENDCHAR
STARTCHAR Eth
ENCODING 208
SWIDTH 602 0
DWIDTH 14 0
BBX 14 18 0 0
BITMAP
3F80
3FE0
3FF0
3878
3838
383C
381C
FF1C
FF1C
FF1C
381C
381C
383C
3838
3878
3FF0
3FE0
3F80
ENDCHAR
STARTCHAR Ntilde
ENCODING 209
SWIDTH 602 0
DWIDTH 14 0
BBX 11 22 1 0
BITMAP
1D80
3F80
3700
0000
F0E0
F0E0
F0E0
F8E0
F8E0
F8E0
ECE0
ECE0
ECE0
E6E0
E6E0
E6E0
E3E0
E3E0
E3E0
E1E0
E1E0
E1E0
ENDCHAR
STARTCHAR Ograve
ENCODING 210
SWIDTH 602 0
DWIDTH 14 0
BBX 12 22 1 0
BITMAP
1C00
0E00
0700
0000
0F00
3FC0
7FE0
70E0
70E0
E070
E070
E070
E070
E070
E070
E070
E070
70E0
70E0
7FE0
3FC0
0F00
ENDCHAR
STARTCHAR Oacute
ENCODING 211
SWIDTH 602 0
DWIDTH 14 0
BBX 12 22 1 0
BITMAP
01C0
0380
0700
0000
0F00
3FC0
7FE0
70E0
70E0
E070
E070
E070
E070
E070
E070
E070
E070
70E0
70E0
7FE0
3FC0
0F00
ENDCHAR
STARTCHAR Ocircumflex
ENCODING 212
SWIDTH 602 0
DWIDTH 14 0
BBX 12 22 1 0
BITMAP
0F00
1F80
30C0
0000
0F00
3FC0
7FE0
70E0
70E0
E070
E070
E070
E070
E070
E070
E070
E070
70E0
70E0
7FE0
3FC0
0F00
ENDCHAR
STARTCHAR Otilde
ENCODING 213
SWIDTH 602 0
DWIDTH 14 0
BBX 12 22 1 0
BITMAP
1CC0
3FC0
3380
0000
0F00
3FC0
7FE0
70E0
70E0
E070
E070
E070
E070
E070
E070
E070
E070
70E0
70E0
7FE0
3FC0
0F00
ENDCHAR
STARTCHAR Odieresis
ENCODING 214
SWIDTH 602 0
DWIDTH 14 0
BBX 12 22 1 0
BITMAP
39C0
39C0
39C0
0000
0F00
3FC0
7FE0
70E0
70E0
E070
E070
E070
E070
E070
E070
E070
E070
70E0
70E0
7FE0
3FC0
0F00
ENDCHAR
STARTCHAR multiply
ENCODING 215
SWIDTH 602 0
DWIDTH 14 0
BBX 12 12 1 1
BITMAP
2040
70E0
F9F0
7FE0
3FC0
1F80
1F80
3FC0
7FE0
F9F0
70E0
2040
ENDCHAR
STARTCHAR Oslash
ENCODING 216
SWIDTH 602 0
DWIDTH 14 0
BBX 14 18 0 0
BITMAP
07C8
1FFC
3FF8
38F0
3878
70F8
71F8
73F8
73B8
7738
7E38
7C38
7C38
7870
3870
7FF0
FFE0
CF80
ENDCHAR
STARTCHAR Ugrave
ENCODING 217
SWIDTH 602 0
DWIDTH 14 0
BBX 11 22 1 0
BITMAP
1C00
0E00
0700
0000
E0E0
E0E0
E0E0
E0E0
E0E0
E0E0
E0E0
E0E0
E0E0
E0E0
E0E0
E0E0
E0E0
E0E0
F1E0
7FC0
7FC0
1F00
ENDCHAR
STARTCHAR Uacute
ENCODING 218
SWIDTH 602 0
DWIDTH 14 0
BBX 11 22 1 0
BITMAP
01C0
0380
0700
0000
E0E0
E0E0
E0E0
E0E0
E0E0
E0E0
E0E0
E0E0
E0E0
E0E0
E0E0
E0E0
E0E0
E0E0
F1E0
7FC0
7FC0
1F00
ENDCHAR
STARTCHAR Ucircumflex
ENCODING 219
SWIDTH 602 0
DWIDTH 14 0
BBX 11 22 1 0
BITMAP
1F00
3B80
71C0
0000
E0E0
E0E0
E0E0
E0E0
E0E0
E0E0
E0E0
E0E0
E0E0
E0E0
E0E0
E0E0
E0E0
E0E0
F1E0
7FC0
7FC0
1F00
ENDCHAR
STARTCHAR Udieresis
ENCODING 220
SWIDTH 602 0
DWIDTH 14 0
BBX 11 22 1 0
BITMAP
71C0
71C0
71C0
0000
E0E0
E0E0
E0E0
E0E0
E0E0
E0E0
E0E0
E0E0
E0E0
E0E0
E0E0
E0E0
E0E0
E0E0
F1E0
7FC0
7FC0
1F00
ENDCHAR
STARTCHAR Yacute
ENCODING 221
SWIDTH 602 0
DWIDTH 14 0
BBX 13 22 1 0
BITMAP
01C0
0380
0700
0000
F078
7070
78F0
38E0
3DE0
1DC0
1DC0
1FC0
0F80
0F80
0700
0700
0700
0700
0700
0700
0700
0700
ENDCHAR
STARTCHAR Thorn
ENCODING 222
SWIDTH 602 0
DWIDTH 14 0
BBX 11 18 2 0
BITMAP
E000
E000
E000
FF00
FFC0
FFC0
E1E0
E0E0
E0E0
E0E0
E1E0
FFC0
FFC0
FF00
E000
E000
E000
E000
ENDCHAR
STARTCHAR germandbls
ENCODING 223
SWIDTH 602 0
DWIDTH 14 0
BBX 12 18 1 0
BITMAP
1F00
7F80
FF80
F3C0
E1C0
E7C0
EE00
EE00
EF00
EF80
E7C0
E1E0
E0F0
E070
E870
EFF0
EFE0
E7C0
ENDCHAR
STARTCHAR agrave
ENCODING 224
SWIDTH 602 0
DWIDTH 14 0
BBX 12 19 1 0
BITMAP
3800
1C00
0E00
0700
0000
0000
3F80
7FE0
7FE0
60F0
0070
3FF0
7FF0
FFF0
E070
E0F0
FFF0
7FF0
3E70
ENDCHAR
STARTCHAR aacute
ENCODING 225
SWIDTH 602 0
DWIDTH 14 0
BBX 12 19 1 0
BITMAP
00E0
01C0
0380
0700
0000
0000
3F80
7FE0
7FE0
60F0
0070
3FF0
7FF0
FFF0
E070
E0F0
FFF0
7FF0
3E70
ENDCHAR
STARTCHAR acircumflex
ENCODING 226
SWIDTH 602 0
DWIDTH 14 0
BBX 12 19 1 0
BITMAP
0700
0F80
1DC0
38E0
0000
0000
3F80
7FE0
7FE0
60F0
0070
3FF0
7FF0
FFF0
E070
E0F0
FFF0
7FF0
3E70
ENDCHAR
STARTCHAR atilde
ENCODING 227
SWIDTH 602 0
DWIDTH 14 0
BBX 12 19 1 0
BITMAP
1CC0
3EC0
37C0
3380
0000
0000
3F80
7FE0
7FE0
60F0
0070
3FF0
7FF0
FFF0
E070
E0F0
FFF0
7FF0
3E70
ENDCHAR
STARTCHAR adieresis
ENCODING 228
SWIDTH 602 0
DWIDTH 14 0
BBX 12 19 1 0
BITMAP
1CE0
1CE0
1CE0
0000
0000
0000
3F80
7FE0
7FE0
60F0
0070
3FF0
7FF0
FFF0
E070
E0F0
FFF0
7FF0
3E70
ENDCHAR
STARTCHAR aring
ENCODING 229
SWIDTH 602 0
DWIDTH 14 0
BBX 12 22 1 0
BITMAP
0700
0F80
18C0
18C0
18C0
0F80
0700
0000
0000
3F80
7FE0
7FE0
60F0
0070
3FF0
7FF0
FFF0
E070
E0F0
FFF0
7FF0
3E70
ENDCHAR
STARTCHAR ae
ENCODING 230
SWIDTH 602 0
DWIDTH 14 0
BBX 14 13 0 0
BITMAP
3CF0
7EF8
7FFC
439C
039C
3FFC
7FFC
FFFC
E380
E3C4
FFFC
7EFC
3C78
ENDCHAR
STARTCHAR ccedilla
ENCODING 231
SWIDTH 602 0
DWIDTH 14 0
BBX 11 18 2 -5
BITMAP
0FC0
3FE0
7FE0
7820
F000
E000
E000
E000
F000
7820
7FE0
3FE0
0FC0
0300
0180
0180
0F80
0F00
ENDCHAR
STARTCHAR egrave
ENCODING 232
SWIDTH 602 0
DWIDTH 14 0
BBX 12 19 1 0
BITMAP
3800
1C00
0E00
0700
0000
0000
1F80
3FC0
7FE0
70F0
E070
FFF0
FFF0
FFF0
E000
F020
7FE0
3FE0
1FC0
ENDCHAR
STARTCHAR eacute
ENCODING 233
SWIDTH 602 0
DWIDTH 14 0
BBX 12 19 1 0
BITMAP
0070
00E0
01C0
0300
0000
0000
1F80
3FC0
7FE0
70F0
E070
FFF0
FFF0
FFF0
E000
F020
7FE0
3FE0
1FC0
ENDCHAR
STARTCHAR ecircumflex
ENCODING 234
SWIDTH 602 0
DWIDTH 14 0
BBX 12 19 1 0
BITMAP
0780
0FC0
0CC0
1860
0000
0000
1F80
3FC0
7FE0
70F0
E070
FFF0
FFF0
FFF0
E000
F020
7FE0
3FE0
1FC0
ENDCHAR
STARTCHAR edieresis
ENCODING 235
SWIDTH 602 0
DWIDTH 14 0
BBX 12 19 1 0
BITMAP
1CE0
1CE0
1CE0
0000
0000
0000
1F80
3FC0
7FE0
70F0
E070
FFF0
FFF0
FFF0
E000
F020
7FE0
3FE0
1FC0
ENDCHAR
STARTCHAR igrave
ENCODING 236
SWIDTH 602 0
DWIDTH 14 0
BBX 11 19 2 0
BITMAP
7000
3800
1C00
0E00
0000
0000
7E00
7E00
7E00
0E00
0E00
0E00
0E00
0E00
0E00
0E00
FFE0
FFE0
FFE0
ENDCHAR
STARTCHAR iacute
ENCODING 237
SWIDTH 602 0
DWIDTH 14 0
BBX 11 19 2 0
BITMAP
01C0
0380
0700
0E00
0000
0000
7E00
7E00
7E00
0E00
0E00
0E00
0E00
0E00
0E00
0E00
FFE0
FFE0
FFE0
ENDCHAR
STARTCHAR icircumflex
ENCODING 238
SWIDTH 602 0
DWIDTH 14 0
BBX 11 19 2 0
BITMAP
0E00
1F00
3B80
71C0
0000
0000
7E00
7E00
7E00
0E00
0E00
0E00
0E00
0E00
0E00
0E00
FFE0
FFE0
FFE0
ENDCHAR
STARTCHAR idieresis
ENCODING 239
SWIDTH 602 0
DWIDTH 14 0
BBX 11 19 2 0
BITMAP
39C0
39C0
39C0
0000
0000
0000
7E00
7E00
7E00
0E00
0E00
0E00
0E00
0E00
0E00
0E00
FFE0
FFE0
FFE0
ENDCHAR
STARTCHAR eth
ENCODING 240
SWIDTH 602 0
DWIDTH 14 0
BBX 12 18 1 0
BITMAP
1C60
0FE0
0F80
7F80
6380
01C0
1FE0
3FE0
7FF0
F0F0
E070
E070
E070
E070
F0F0
7FE0
3FC0
1F80
ENDCHAR
STARTCHAR ntilde
ENCODING 241
SWIDTH 602 0
DWIDTH 14 0
BBX 11 19 2 0
BITMAP
3980
7D80
6F80
6700
0000
0000
E780
FFC0
FFE0
F1E0
E0E0
E0E0
E0E0
E0E0
E0E0
E0E0
E0E0
E0E0
E0E0
ENDCHAR
STARTCHAR ograve
ENCODING 242
SWIDTH 602 0
DWIDTH 14 0
BBX 12 19 1 0
BITMAP
3800
1C00
0E00
0700
0000
0000
1F80
3FC0
7FE0
F0E0
E070
E070
E070
E070
E070
70E0
7FE0
3FC0
1F80
ENDCHAR
STARTCHAR oacute
ENCODING 243
SWIDTH 602 0
DWIDTH 14 0
BBX 12 19 1 0
BITMAP
00E0
01C0
0380
0700
0000
0000
1F80
3FC0
7FE0
F0E0
E070
E070
E070
E070
E070
70E0
7FE0
3FC0
1F80
ENDCHAR
STARTCHAR ocircumflex
ENCODING 244
SWIDTH 602 0
DWIDTH 14 0
BBX 12 19 1 0
BITMAP
0F00
0F00
1980
30C0
0000
0000
1F80
3FC0
7FE0
F0E0
E070
E070
E070
E070
E070
70E0
7FE0
3FC0
1F80
ENDCHAR
STARTCHAR otilde
ENCODING 245
SWIDTH 602 0
DWIDTH 14 0
BBX 12 19 1 0
BITMAP
1CC0
3EC0
37C0
3380
0000
0000
1F80
3FC0
7FE0
F0E0
E070
E070
E070
E070
E070
70E0
7FE0
3FC0
1F80
ENDCHAR
STARTCHAR odieresis
ENCODING 246
SWIDTH 602 0
DWIDTH 14 0
BBX 12 19 1 0
BITMAP
39C0
39C0
39C0
0000
0000
0000
1F80
3FC0
7FE0
F0E0
E070
E070
E070
E070
E070
70E0
7FE0
3FC0
1F80
ENDCHAR
STARTCHAR divide
ENCODING 247
SWIDTH 602 0
DWIDTH 14 0
BBX 14 14 0 0
BITMAP
0780
0780
0780
0780
0000
FFFC
FFFC
FFFC
0000
0000
0780
0780
0780
0780
ENDCHAR
STARTCHAR oslash
ENCODING 248
SWIDTH 602 0
DWIDTH 14 0
BBX 13 15 1 -1
BITMAP
0010
1FB8
3FF0
7FE0
F0E0
E1F0
E7F0
EF70
FC70
F870
70F0
7FE0
FFC0
DF80
8000
ENDCHAR
STARTCHAR ugrave
ENCODING 249
SWIDTH 602 0
DWIDTH 14 0
BBX 11 19 2 0
BITMAP
7000
3800
1C00
0E00
0000
0000
E0E0
E0E0
E0E0
E0E0
E0E0
E0E0
E0E0
E0E0
E0E0
F1E0
FFE0
7FE0
3CE0
ENDCHAR
STARTCHAR uacute
ENCODING 250
SWIDTH 602 0
DWIDTH 14 0
BBX 11 19 2 0
BITMAP
01C0
0380
0700
0E00
0000
0000
E0E0
E0E0
E0E0
E0E0
E0E0
E0E0
E0E0
E0E0
E0E0
F1E0
FFE0
7FE0
3CE0
ENDCHAR
STARTCHAR ucircumflex
ENCODING 251
SWIDTH 602 0
DWIDTH 14 0
BBX 11 19 2 0
BITMAP
0E00
1F00
3B80
71C0
0000
0000
E0E0
E0E0
E0E0
E0E0
E0E0
E0E0
E0E0
E0E0
E0E0
F1E0
FFE0
7FE0
3CE0
ENDCHAR
STARTCHAR udieresis
ENCODING 252
SWIDTH 602 0
DWIDTH 14 0
BBX 11 19 2 0
BITMAP
71C0
71C0
71C0
0000
0000
0000
E0E0
E0E0
E0E0
E0E0
E0E0
E0E0
E0E0
E0E0
E0E0
F1E0
FFE0
7FE0
3CE0
ENDCHAR
STARTCHAR yacute
ENCODING 253
SWIDTH 602 0
DWIDTH 14 0
BBX 12 24 1 -5
BITMAP
00E0
01C0
0380
0700
0000
0000
F0F0
70E0
70E0
79E0
39C0
39C0
3DC0
1F80
1F80
0F80
0F00
0F00
0F00
0E00
1E00
7E00
7C00
7800
ENDCHAR
STARTCHAR thorn
ENCODING 254
SWIDTH 602 0
DWIDTH 14 0
BBX 12 23 1 -5
BITMAP
E000
E000
E000
E000
E000
E780
EFC0
FFE0
F0F0
E070
E070
E070
E070
E070
F0F0
FFE0
EFC0
E780
E000
E000
E000
E000
E000
ENDCHAR
STARTCHAR ydieresis
ENCODING 255
SWIDTH 602 0
DWIDTH 14 0
BBX 12 24 1 -5
BITMAP
39C0
39C0
39C0
0000
0000
0000
F0F0
70E0
70E0
79E0
39C0
39C0
3DC0
1F80
1F80
0F80
0F00
0F00
0F00
0E00
1E00
7E00
7C00
7800
ENDCHAR
STARTCHAR Amacron
ENCODING 256
SWIDTH 602 0
DWIDTH 14 0
BBX 14 22 0 0
BITMAP
0FC0
0FC0
0000
0000
0780
0FC0
0FC0
0FC0
0FC0
1CE0
1CE0
1CE0
1CE0
3CF0
3870
3FF0
7FF8
7FF8
7038
7038
F03C
F03C
ENDCHAR
STARTCHAR amacron
ENCODING 257
SWIDTH 602 0
DWIDTH 14 0
BBX 12 18 1 0
BITMAP
1FC0
1FC0
0000
0000
0000
3F80
7FE0
7FE0
60F0
0070
3FF0
7FF0
FFF0
E070
E0F0
FFF0
7FF0
3E70
ENDCHAR
STARTCHAR Abreve
ENCODING 258
SWIDTH 602 0
DWIDTH 14 0
BBX 14 22 0 0
BITMAP
1860
1FC0
0780
0000
0780
0FC0
0FC0
0FC0
0FC0
1CE0
1CE0
1CE0
1CE0
3CF0
3870
3FF0
7FF8
7FF8
7038
7038
F03C
F03C
ENDCHAR
STARTCHAR abreve
ENCODING 259
SWIDTH 602 0
DWIDTH 14 0
BBX 12 19 1 0
BITMAP
30C0
3FC0
0F00
0000
0000
0000
3F80
7FE0
7FE0
60F0
0070
3FF0
7FF0
FFF0
E070
E0F0
FFF0
7FF0
3E70
ENDCHAR
STARTCHAR Aogonek
ENCODING 260
SWIDTH 602 0
DWIDTH 14 0
BBX 14 23 0 -5
BITMAP
0780
0FC0
0FC0
0FC0
0FC0
1CE0
1CE0
1CE0
1CE0
3CF0
3870
3FF0
7FF8
7FF8
7038
7038
F03C
F03C
0030
0060
0060
007C
003C
ENDCHAR
STARTCHAR aogonek
ENCODING 261
SWIDTH 602 0
DWIDTH 14 0
BBX 12 18 1 -5
BITMAP
3F80
7FE0
7FE0
60F0
0070
3FF0
7FF0
FFF0
E070
E0F0
FFF0
7FF0
3E70
00C0
0180
0180
01F0
00F0
ENDCHAR
STARTCHAR Cacute
ENCODING 262
SWIDTH 602 0
DWIDTH 14 0
BBX 11 22 2 0
BITMAP
00E0
01C0
0380
0000
0FC0
1FE0
3FE0
7860
7020
F000
E000
E000
E000
E000
E000
E000
F000
7020
7860
3FE0
1FE0
0FC0
ENDCHAR
STARTCHAR cacute
ENCODING 263
SWIDTH 602 0
DWIDTH 14 0
BBX 12 19 2 0
BITMAP
00F0
01C0
0180
0300
0000
0000
0FC0
3FE0
7FE0
7820
F000
E000
E000
E000
F000
7820
7FE0
3FE0
0FC0
ENDCHAR
STARTCHAR Ccircumflex
ENCODING 264
SWIDTH 602 0
DWIDTH 14 0
BBX 11 22 2 0
BITMAP
07C0
0EE0
1C60
0000
0FC0
1FE0
3FE0
7860
7020
F000
E000
E000
E000
E000
E000
E000
F000
7020
7860
3FE0
1FE0
0FC0
ENDCHAR
STARTCHAR ccircumflex
ENCODING 265
SWIDTH 602 0
DWIDTH 14 0
BBX 11 19 2 0
BITMAP
0780
0F80
1CC0
1860
0000
0000
0FC0
3FE0
7FE0
7820
F000
E000
E000
E000
F000
7820
7FE0
3FE0
0FC0
ENDCHAR
STARTCHAR Cdotaccent
ENCODING 266
SWIDTH 602 0
DWIDTH 14 0
BBX 11 22 2 0
BITMAP
0700
0700
0700
0000
0FC0
1FE0
3FE0
7860
7020
F000
E000
E000
E000
E000
E000
E000
F000
7020
7860
3FE0
1FE0
0FC0
ENDCHAR
STARTCHAR cdotaccent
ENCODING 267
SWIDTH 602 0
DWIDTH 14 0
BBX 11 19 2 0
BITMAP
0700
0700
0700
0000
0000
0000
0FC0
3FE0
7FE0
7820
F000
E000
E000
E000
F000
7820
7FE0
3FE0
0FC0
ENDCHAR
STARTCHAR Ccaron
ENCODING 268
SWIDTH 602 0
DWIDTH 14 0
BBX 11 22 2 0
BITMAP
1860
0EC0
0780
0000
0FC0
1FE0
3FE0
7860
7020
F000
E000
E000
E000
E000
E000
E000
F000
7020
7860
3FE0
1FE0
0FC0
ENDCHAR
STARTCHAR ccaron
ENCODING 269
SWIDTH 602 0
DWIDTH 14 0
BBX 11 19 2 0
BITMAP
1860
1CC0
0F80
0780
0000
0000
0FC0
3FE0
7FE0
7820
F000
E000
E000
E000
F000
7820
7FE0
3FE0
0FC0
ENDCHAR
STARTCHAR Dcaron
ENCODING 270
SWIDTH 602 0
DWIDTH 14 0
BBX 12 23 2 0
BITMAP
7180
3B80
1F00
0000
0000
FE00
FF80
FFC0
E1E0
E0E0
E0F0
E070
E070
E070
E070
E070
E070
E0F0
E0E0
E1E0
FFC0
FF80
FE00
ENDCHAR
STARTCHAR dcaron
ENCODING 271
SWIDTH 602 0
DWIDTH 14 0
BBX 17 18 1 0
BITMAP
007380
007380
007300
007700
007000
1E7000
3F7000
7FF000
F0F000
E07000
E07000
E07000
E07000
E07000
F0F000
7FF000
3F7000
1E7000
ENDCHAR
STARTCHAR Dcroat
ENCODING 272
SWIDTH 602 0
DWIDTH 14 0
BBX 14 18 0 0
BITMAP
3F80
3FE0
3FF0
3878
3838
383C
381C
FF1C
FF1C
FF1C
381C
381C
383C
3838
3878
3FF0
3FE0
3F80
ENDCHAR
STARTCHAR dcroat
ENCODING 273
SWIDTH 602 0
DWIDTH 14 0
BBX 14 18 1 0
BITMAP
0070
0070
07FC
07FC
0070
1E70
3F70
7FF0
F0F0
E070
E070
E070
E070
E070
F0F0
7FF0
3F70
1E70
ENDCHAR
STARTCHAR Emacron
ENCODING 274
SWIDTH 602 0
DWIDTH 14 0
BBX 11 22 2 0
BITMAP
3F80
3F80
0000
0000
FFE0
FFE0
FFE0
E000
E000
E000
E000
FFC0
FFC0
FFC0
E000
E000
E000
E000
E000
FFE0
FFE0
FFE0
ENDCHAR
STARTCHAR emacron
ENCODING 275
SWIDTH 602 0
DWIDTH 14 0
BBX 12 18 1 0
BITMAP
1FC0
1FC0
0000
0000
0000
1F80
3FC0
7FE0
70F0
E070
FFF0
FFF0
FFF0
E000
F020
7FE0
3FE0
1FC0
ENDCHAR
STARTCHAR Ebreve
ENCODING 276
SWIDTH 602 0
DWIDTH 14 0
BBX 11 22 2 0
BITMAP
7180
3F80
1F00
0000
FFE0
FFE0
FFE0
E000
E000
E000
E000
FFC0
FFC0
FFC0
E000
E000
E000
E000
E000
FFE0
FFE0
FFE0
ENDCHAR
STARTCHAR ebreve
ENCODING 277
SWIDTH 602 0
DWIDTH 14 0
BBX 12 19 1 0
BITMAP
18C0
1FC0
0F80
0000
0000
0000
1F80
3FC0
7FE0
70F0
E070
FFF0
FFF0
FFF0
E000
F020
7FE0
3FE0
1FC0
ENDCHAR
STARTCHAR Edotaccent
ENCODING 278
SWIDTH 602 0
DWIDTH 14 0
BBX 11 22 2 0
BITMAP
0E00
0E00
0E00
0000
FFE0
FFE0
FFE0
E000
E000
E000
E000
FFC0
FFC0
FFC0
E000
E000
E000
E000
E000
FFE0
FFE0
FFE0
ENDCHAR
STARTCHAR edotaccent
ENCODING 279
SWIDTH 602 0
DWIDTH 14 0
BBX 12 19 1 0
BITMAP
0700
0700
0700
0000
0000
0000
1F80
3FC0
7FE0
70F0
E070
FFF0
FFF0
FFF0
E000
F020
7FE0
3FE0
1FC0
ENDCHAR
STARTCHAR Eogonek
ENCODING 280
SWIDTH 602 0
DWIDTH 14 0
BBX 11 23 2 -5
BITMAP
FFE0
FFE0
FFE0
E000
E000
E000
E000
FFC0
FFC0
FFC0
E000
E000
E000
E000
E000
FFE0
FFE0
FFE0
0300
0300
0300
03E0
03E0
ENDCHAR
STARTCHAR eogonek
ENCODING 281
SWIDTH 602 0
DWIDTH 14 0
BBX 12 18 1 -5
BITMAP
1F80
3FC0
7FE0
70F0
E070
FFF0
FFF0
FFF0
E000
F020
7FE0
3FE0
1FC0
0180
0180
0180
01F0
00F0
ENDCHAR
STARTCHAR Ecaron
ENCODING 282
SWIDTH 602 0
DWIDTH 14 0
BBX 11 22 2 0
BITMAP
30C0
1D80
0F00
0000
FFE0
FFE0
FFE0
E000
E000
E000
E000
FFC0
FFC0
FFC0
E000
E000
E000
E000
E000
FFE0
FFE0
FFE0
ENDCHAR
STARTCHAR ecaron
ENCODING 283
SWIDTH 602 0
DWIDTH 14 0
BBX 12 19 1 0
BITMAP
1860
1CC0
0F80
0780
0000
0000
1F80
3FC0
7FE0
70F0
E070
FFF0
FFF0
FFF0
E000
F020
7FE0
3FE0
1FC0
ENDCHAR
STARTCHAR Gcircumflex
ENCODING 284
SWIDTH 602 0
DWIDTH 14 0
BBX 12 22 1 0
BITMAP
03C0
07E0
0C30
0000
0FC0
1FE0
3FE0
7860
7000
F000
E000
E000
E1F0
E1F0
E1F0
E070
F070
7070
7870
3FF0
1FF0
0FC0
ENDCHAR
STARTCHAR gcircumflex
ENCODING 285
SWIDTH 602 0
DWIDTH 14 0
BBX 12 24 1 -5
BITMAP
0F00
0F80
19C0
30C0
0000
0000
1E70
3FF0
7FF0
F0F0
E070
E070
E070
E070
E070
F0F0
7FF0
3FF0
1F70
0070
40F0
7FE0
7FE0
3F80
ENDCHAR
STARTCHAR Gbreve
ENCODING 286
SWIDTH 602 0
DWIDTH 14 0
BBX 12 22 1 0
BITMAP
18E0
1FC0
0F80
0000
0FC0
1FE0
3FE0
7860
7000
F000
E000
E000
E1F0
E1F0
E1F0
E070
F070
7070
7870
3FF0
1FF0
0FC0
ENDCHAR
STARTCHAR gbreve
ENCODING 287
SWIDTH 602 0
DWIDTH 14 0
BBX 12 24 1 -5
BITMAP
30C0
3FC0
0F00
0000
0000
0000
1E70
3FF0
7FF0
F0F0
E070
E070
E070
E070
E070
F0F0
7FF0
3FF0
1F70
0070
40F0
7FE0
7FE0
3F80
ENDCHAR
STARTCHAR Gdotaccent
ENCODING 288
SWIDTH 602 0
DWIDTH 14 0
BBX 12 22 1 0
BITMAP
0380
0380
0380
0000
0FC0
1FE0
3FE0
7860
7000
F000
E000
E000
E1F0
E1F0
E1F0
E070
F070
7070
7870
3FF0
1FF0
0FC0
ENDCHAR
STARTCHAR gdotaccent
ENCODING 289
SWIDTH 602 0
DWIDTH 14 0
BBX 12 24 1 -5
BITMAP
0700
0700
0700
0000
0000
0000
1E70
3FF0
7FF0
F0F0
E070
E070
E070
E070
E070
F0F0
7FF0
3FF0
1F70
0070
40F0
7FE0
7FE0
3F80
ENDCHAR
STARTCHAR Gcommaaccent
ENCODING 290
SWIDTH 602 0
DWIDTH 14 0
BBX 12 24 1 -6
BITMAP
0FC0
1FE0
3FE0
7860
7000
F000
E000
E000
E1F0
E1F0
E1F0
E070
F070
7070
7870
3FF0
1FF0
0FC0
0000
0000
0380
0300
0700
0600
ENDCHAR
STARTCHAR gcommaaccent
ENCODING 291
SWIDTH 602 0
DWIDTH 14 0
BBX 12 24 1 -5
BITMAP
0300
0700
0700
0E00
0000
0000
1E70
3FF0
7FF0
F0F0
E070
E070
E070
E070
E070
F0F0
7FF0
3FF0
1F70
0070
40F0
7FE0
7FE0
3F80
ENDCHAR
STARTCHAR Hcircumflex
ENCODING 292
SWIDTH 602 0
DWIDTH 14 0
BBX 11 22 2 0
BITMAP
1F00
3B80
71C0
0000
E0E0
E0E0
E0E0
E0E0
E0E0
E0E0
E0E0
FFE0
FFE0
FFE0
E0E0
E0E0
E0E0
E0E0
E0E0
E0E0
E0E0
E0E0
ENDCHAR
STARTCHAR hcircumflex
ENCODING 293
SWIDTH 602 0
DWIDTH 14 0
BBX 14 22 -1 0
BITMAP
3E00
7700
E380
0000
1C00
1C00
1C00
1C00
1C00
1CF0
1FF8
1FFC
1E3C
1C1C
1C1C
1C1C
1C1C
1C1C
1C1C
1C1C
1C1C
1C1C
ENDCHAR
STARTCHAR Hbar
ENCODING 294
SWIDTH 602 0
DWIDTH 14 0
BBX 15 18 0 0
BITMAP
3838
3838
3838
FFFE
FFFE
3838
3838
3FF8
3FF8
3FF8
3838
3838
3838
3838
3838
3838
3838
3838
ENDCHAR
STARTCHAR hbar
ENCODING 295
SWIDTH 602 0
DWIDTH 14 0
BBX 13 18 0 0
BITMAP
3800
3800
FF00
FF00
3800
39E0
3FF0
3FF8
3C78
3838
3838
3838
3838
3838
3838
3838
3838
3838
ENDCHAR
STARTCHAR Itilde
ENCODING 296
SWIDTH 602 0
DWIDTH 14 0
BBX 9 22 3 0
BITMAP
3B00
7F00
6E00
0000
FF80
FF80
FF80
1C00
1C00
1C00
1C00
1C00
1C00
1C00
1C00
1C00
1C00
1C00
1C00
FF80
FF80
FF80
ENDCHAR
STARTCHAR itilde
ENCODING 297
SWIDTH 602 0
DWIDTH 14 0
BBX 11 19 2 0
BITMAP
3980
7D80
6F80
6700
0000
0000
7E00
7E00
7E00
0E00
0E00
0E00
0E00
0E00
0E00
0E00
FFE0
FFE0
FFE0
ENDCHAR
STARTCHAR Imacron
ENCODING 298
SWIDTH 602 0
DWIDTH 14 0
BBX 9 22 3 0
BITMAP
7F00
7F00
0000
0000
FF80
FF80
FF80
1C00
1C00
1C00
1C00
1C00
1C00
1C00
1C00
1C00
1C00
1C00
1C00
FF80
FF80
FF80
ENDCHAR
STARTCHAR imacron
ENCODING 299
SWIDTH 602 0
DWIDTH 14 0
BBX 11 18 2 0
BITMAP
3F80
3F80
0000
0000
0000
7E00
7E00
7E00
0E00
0E00
0E00
0E00
0E00
0E00
0E00
FFE0
FFE0
FFE0
ENDCHAR
STARTCHAR Ibreve
ENCODING 300
SWIDTH 602 0
DWIDTH 14 0
BBX 9 22 3 0
BITMAP
C300
FE00
3C00
0000
FF80
FF80
FF80
1C00
1C00
1C00
1C00
1C00
1C00
1C00
1C00
1C00
1C00
1C00
1C00
FF80
FF80
FF80
ENDCHAR
STARTCHAR ibreve
ENCODING 301
SWIDTH 602 0
DWIDTH 14 0
BBX 11 19 2 0
BITMAP
6180
7F80
1E00
0000
0000
0000
7E00
7E00
7E00
0E00
0E00
0E00
0E00
0E00
0E00
0E00
FFE0
FFE0
FFE0
ENDCHAR
STARTCHAR Iogonek
ENCODING 302
SWIDTH 602 0
DWIDTH 14 0
BBX 9 23 3 -5
BITMAP
FF80
FF80
FF80
1C00
1C00
1C00
1C00
1C00
1C00
1C00
1C00
1C00
1C00
1C00
1C00
FF80
FF80
FF80
1800
1800
1800
1F00
0F00
ENDCHAR
STARTCHAR iogonek
ENCODING 303
SWIDTH 602 0
DWIDTH 14 0
BBX 11 25 2 -5
BITMAP
0E00
0E00
0E00
0E00
0000
0000
0000
7E00
7E00
7E00
0E00
0E00
0E00
0E00
0E00
0E00
0E00
FFE0
FFE0
FFE0
0600
0C00
0C00
0F80
0780
ENDCHAR
STARTCHAR Idotaccent
ENCODING 304
SWIDTH 602 0
DWIDTH 14 0
BBX 9 22 3 0
BITMAP
1C00
1C00
1C00
0000
FF80
FF80
FF80
1C00
1C00
1C00
1C00
1C00
1C00
1C00
1C00
1C00
1C00
1C00
1C00
FF80
FF80
FF80
ENDCHAR
STARTCHAR dotlessi
ENCODING 305
SWIDTH 602 0
DWIDTH 14 0
BBX 11 13 2 0
BITMAP
7E00
7E00
7E00
0E00
0E00
0E00
0E00
0E00
0E00
0E00
FFE0
FFE0
FFE0
ENDCHAR
STARTCHAR IJ
ENCODING 306
SWIDTH 602 0
DWIDTH 14 0
BBX 14 18 0 0
BITMAP
FCFC
FCFC
FCFC
301C
301C
301C
301C
301C
301C
301C
301C
301C
301C
301C
333C
FFFC
FFF8
FDF0
ENDCHAR
STARTCHAR ij
ENCODING 307
SWIDTH 602 0
DWIDTH 14 0
BBX 14 25 0 -5
BITMAP
181C
181C
181C
181C
0000
0000
0000
79FC
79FC
79FC
181C
181C
181C
181C
181C
181C
181C
FF1C
FF1C
FF1C
001C
003C
03FC
03F8
03F0
ENDCHAR
STARTCHAR Jcircumflex
ENCODING 308
SWIDTH 602 0
DWIDTH 14 0
BBX 12 22 1 0
BITMAP
07C0
0EE0
1C70
0000
0FE0
0FE0
0FE0
00E0
00E0
00E0
00E0
00E0
00E0
00E0
00E0
00E0
00E0
80E0
C1E0
FFC0
FFC0
7F00
ENDCHAR
STARTCHAR jcircumflex
ENCODING 309
SWIDTH 602 0
DWIDTH 14 0
BBX 10 24 2 -5
BITMAP
0E00
1F00
3B80
71C0
0000
0000
3F00
3F00
3F00
0700
0700
0700
0700
0700
0700
0700
0700
0700
0700
0700
0F00
FF00
FE00
FC00
ENDCHAR
STARTCHAR Kcommaaccent
ENCODING 310
SWIDTH 602 0
DWIDTH 14 0
BBX 12 24 1 -6
BITMAP
E0F0
E1E0
E1C0
E3C0
E780
EF00
FE00
FE00
FF00
FF00
F780
E780
E3C0
E3C0
E1E0
E1E0
E0F0
E0F0
0000
0000
0700
0700
0600
0E00
ENDCHAR
STARTCHAR kcommaaccent
ENCODING 311
SWIDTH 602 0
DWIDTH 14 0
BBX 12 24 2 -6
BITMAP
E000
E000
E000
E000
E000
E1E0
E3C0
E780
EF00
FE00
FE00
FF00
F700
E780
E3C0
E1C0
E1E0
E0F0
0000
0000
0E00
0E00
0C00
0C00
ENDCHAR
STARTCHAR kgreenlandic
ENCODING 312
SWIDTH 602 0
DWIDTH 14 0
BBX 12 13 2 0
BITMAP
E1E0
E3C0
E780
EF00
FE00
FE00
FF00
F700
E780
E3C0
E1C0
E1E0
E0F0
ENDCHAR
STARTCHAR Lacute
ENCODING 313
SWIDTH 602 0
DWIDTH 14 0
BBX 11 22 3 0
BITMAP
0700
0E00
1C00
0000
E000
E000
E000
E000
E000
E000
E000
E000
E000
E000
E000
E000
E000
E000
E000
FFE0
FFE0
FFE0
ENDCHAR
STARTCHAR lacute
ENCODING 314
SWIDTH 602 0
DWIDTH 14 0
BBX 11 22 2 0
BITMAP
0380
0700
0E00
0000
FC00
FC00
FC00
1C00
1C00
1C00
1C00
1C00
1C00
1C00
1C00
1C00
1C00
1C00
1E00
1FE0
0FE0
07E0
ENDCHAR
STARTCHAR Lcommaaccent
ENCODING 315
SWIDTH 602 0
DWIDTH 14 0
BBX 11 24 3 -6
BITMAP
E000
E000
E000
E000
E000
E000
E000
E000
E000
E000
E000
E000
E000
E000
E000
FFE0
FFE0
FFE0
0000
0000
1C00
1C00
1800
1800
ENDCHAR
STARTCHAR lcommaaccent
ENCODING 316
SWIDTH 602 0
DWIDTH 14 0
BBX 11 24 2 -6
BITMAP
FC00
FC00
FC00
1C00
1C00
1C00
1C00
1C00
1C00
1C00
1C00
1C00
1C00
1C00
1E00
1FE0
0FE0
07E0
0000
0000
1C00
1800
3800
3000
ENDCHAR
STARTCHAR Lcaron
ENCODING 317
SWIDTH 602 0
DWIDTH 14 0
BBX 11 18 3 0
BITMAP
E000
E0E0
E1C0
E1C0
E180
E000
E000
E000
E000
E000
E000
E000
E000
E000
E000
FFE0
FFE0
FFE0
ENDCHAR
STARTCHAR lcaron
ENCODING 318
SWIDTH 602 0
DWIDTH 14 0
BBX 12 18 2 0
BITMAP
FC70
FC70
FC60
1CE0
1C00
1C00
1C00
1C00
1C00
1C00
1C00
1C00
1C00
1C00
1E00
1FE0
0FE0
07E0
ENDCHAR
STARTCHAR Ldot
ENCODING 319
SWIDTH 602 0
DWIDTH 14 0
BBX 11 18 3 0
BITMAP
E000
E000
E000
E000
E000
E000
E1E0
E1E0
E1E0
E1E0
E000
E000
E000
E000
E000
FFE0
FFE0
FFE0
ENDCHAR
STARTCHAR ldot
ENCODING 320
SWIDTH 602 0
DWIDTH 14 0
BBX 12 18 2 0
BITMAP
FC00
FC00
FC00
1C00
1C00
1C00
1CF0
1CF0
1CF0
1CF0
1C00
1C00
1C00
1C00
1E00
1FE0
0FE0
07E0
ENDCHAR
STARTCHAR Lslash
ENCODING 321
SWIDTH 602 0
DWIDTH 14 0
BBX 14 18 0 0
BITMAP
1C00
1C00
1C00
1C00
1C40
1DE0
1FC0
1F00
1E00
3C00
FC00
FC00
5C00
1C00
1C00
1FFC
1FFC
1FFC
ENDCHAR
STARTCHAR lslash
ENCODING 322
SWIDTH 602 0
DWIDTH 14 0
BBX 12 18 1 0
BITMAP
7E00
7E00
7E00
0E00
0E60
0EF0
0FC0
0F00
1E00
3E00
FE00
EE00
0E00
0E00
0F00
0FF0
07F0
03F0
ENDCHAR
STARTCHAR Nacute
ENCODING 323
SWIDTH 602 0
DWIDTH 14 0
BBX 11 22 1 0
BITMAP
01E0
01C0
0300
0000
F0E0
F0E0
F0E0
F8E0
F8E0
F8E0
ECE0
ECE0
ECE0
E6E0
E6E0
E6E0
E3E0
E3E0
E3E0
E1E0
E1E0
E1E0
ENDCHAR
STARTCHAR nacute
ENCODING 324
SWIDTH 602 0
DWIDTH 14 0
BBX 11 19 2 0
BITMAP
01C0
0380
0700
0E00
0000
0000
E780
FFC0
FFE0
F1E0
E0E0
E0E0
E0E0
E0E0
E0E0
E0E0
E0E0
E0E0
E0E0
ENDCHAR
STARTCHAR Ncommaaccent
ENCODING 325
SWIDTH 602 0
DWIDTH 14 0
BBX 11 24 1 -6
BITMAP
F0E0
F0E0
F0E0
F8E0
F8E0
F8E0
ECE0
ECE0
ECE0
E6E0
E6E0
E6E0
E3E0
E3E0
E3E0
E1E0
E1E0
E1E0
0000
0000
0600
0E00
0E00
0C00
ENDCHAR
STARTCHAR ncommaaccent
ENCODING 326
SWIDTH 602 0
DWIDTH 14 0
BBX 11 19 2 -6
BITMAP
E780
FFC0
FFE0
F1E0
E0E0
E0E0
E0E0
E0E0
E0E0
E0E0
E0E0
E0E0
E0E0
0000
0000
0E00
1C00
1C00
1800
ENDCHAR
STARTCHAR Ncaron
ENCODING 327
SWIDTH 602 0
DWIDTH 14 0
BBX 11 22 1 0
BITMAP
1860
0FC0
0780
0000
F0E0
F0E0
F0E0
F8E0
F8E0
F8E0
ECE0
ECE0
ECE0
E6E0
E6E0
E6E0
E3E0
E3E0
E3E0
E1E0
E1E0
E1E0
ENDCHAR
STARTCHAR ncaron
ENCODING 328
SWIDTH 602 0
DWIDTH 14 0
BBX 11 19 2 0
BITMAP
30C0
1980
1F80
0F00
0000
0000
E780
FFC0
FFE0
F1E0
E0E0
E0E0
E0E0
E0E0
E0E0
E0E0
E0E0
E0E0
E0E0
ENDCHAR
STARTCHAR napostrophe
ENCODING 329
SWIDTH 602 0
DWIDTH 14 0
BBX 16 18 -1 0
BITMAP
7800
7800
7800
7800
F000
F73C
E7FE
E7FE
078F
0707
0707
0707
0707
0707
0707
0707
0707
0707
ENDCHAR
STARTCHAR Eng
ENCODING 330
SWIDTH 602 0
DWIDTH 14 0
BBX 11 23 1 -5
BITMAP
E780
EFC0
FFC0
F1E0
E0E0
E0E0
E0E0
E0E0
E0E0
E0E0
E0E0
E0E0
E0E0
E0E0
E0E0
E0E0
E0E0
E0E0
00E0
01E0
07E0
07C0
0780
ENDCHAR
STARTCHAR eng
ENCODING 331
SWIDTH 602 0
DWIDTH 14 0
BBX 11 18 2 -5
BITMAP
E780
FFC0
FFE0
F1E0
E0E0
E0E0
E0E0
E0E0
E0E0
E0E0
E0E0
E0E0
E0E0
00E0
01E0
07E0
07C0
0780
ENDCHAR
STARTCHAR Omacron
ENCODING 332
SWIDTH 602 0
DWIDTH 14 0
BBX 12 22 1 0
BITMAP
1F80
1F80
0000
0000
0F00
3FC0
7FE0
70E0
70E0
E070
E070
E070
E070
E070
E070
E070
E070
70E0
70E0
7FE0
3FC0
0F00
ENDCHAR
STARTCHAR omacron
ENCODING 333
SWIDTH 602 0
DWIDTH 14 0
BBX 12 18 1 0
BITMAP
1F80
1F80
0000
0000
0000
1F80
3FC0
7FE0
F0E0
E070
E070
E070
E070
E070
70E0
7FE0
3FC0
1F80
ENDCHAR
STARTCHAR Obreve
ENCODING 334
SWIDTH 602 0
DWIDTH 14 0
BBX 12 22 1 0
BITMAP
30C0
3F80
0F00
0000
0F00
3FC0
7FE0
70E0
70E0
E070
E070
E070
E070
E070
E070
E070
E070
70E0
70E0
7FE0
3FC0
0F00
ENDCHAR
STARTCHAR obreve
ENCODING 335
SWIDTH 602 0
DWIDTH 14 0
BBX 12 19 1 0
BITMAP
30C0
3FC0
0F00
0000
0000
0000
1F80
3FC0
7FE0
F0E0
E070
E070
E070
E070
E070
70E0
7FE0
3FC0
1F80
ENDCHAR
STARTCHAR Ohungarumlaut
ENCODING 336
SWIDTH 602 0
DWIDTH 14 0
BBX 12 22 1 0
BITMAP
0EE0
1DC0
3B80
0000
0F00
3FC0
7FE0
70E0
70E0
E070
E070
E070
E070
E070
E070
E070
E070
70E0
70E0
7FE0
3FC0
0F00
ENDCHAR
STARTCHAR ohungarumlaut
ENCODING 337
SWIDTH 602 0
DWIDTH 14 0
BBX 12 19 1 0
BITMAP
0EE0
1CC0
1980
3300
0000
0000
1F80
3FC0
7FE0
F0E0
E070
E070
E070
E070
E070
70E0
7FE0
3FC0
1F80
ENDCHAR
STARTCHAR OE
ENCODING 338
SWIDTH 602 0
DWIDTH 14 0
BBX 13 18 1 0
BITMAP
1FF8
3FF8
7FF8
7380
E380
E380
E380
E3F8
E3F8
E3F8
E380
E380
E380
E380
7380
7FF8
3FF8
1FF8
ENDCHAR
STARTCHAR oe
ENCODING 339
SWIDTH 602 0
DWIDTH 14 0
BBX 14 13 0 0
BITMAP
3CF0
7EF8
7FFC
E39C
E39C
E3FC
E3FC
E3FC
E380
E3C4
7FFC
7EFC
3C78
ENDCHAR
STARTCHAR Racute
ENCODING 340
SWIDTH 602 0
DWIDTH 14 0
BBX 13 22 2 0
BITMAP
0380
0700
0E00
0000
FF00
FFC0
FFC0
E1E0
E0E0
E0E0
E0E0
E1E0
FFC0
FF00
FF80
E3C0
E3C0
E1E0
E1E0
E0F0
E0F0
E078
ENDCHAR
STARTCHAR racute
ENCODING 341
SWIDTH 602 0
DWIDTH 14 0
BBX 11 19 3 0
BITMAP
00E0
01C0
0380
0700
0000
0000
E780
EFC0
FFC0
F840
F000
E000
E000
E000
E000
E000
E000
E000
E000
ENDCHAR
STARTCHAR Rcommaaccent
ENCODING 342
SWIDTH 602 0
DWIDTH 14 0
BBX 13 24 2 -6
BITMAP
FF00
FFC0
FFC0
E1E0
E0E0
E0E0
E0E0
E1E0
FFC0
FF00
FF80
E3C0
E3C0
E1E0
E1E0
E0F0
E0F0
E078
0000
0000
0E00
0E00
0C00
0C00
ENDCHAR
STARTCHAR rcommaaccent
ENCODING 343
SWIDTH 602 0
DWIDTH 14 0
BBX 10 19 3 -6
BITMAP
E780
EFC0
FFC0
F840
F000
E000
E000
E000
E000
E000
E000
E000
E000
0000
0000
E000
E000
C000
C000
ENDCHAR
STARTCHAR Rcaron
ENCODING 344
SWIDTH 602 0
DWIDTH 14 0
BBX 13 22 2 0
BITMAP
6180
3B00
1E00
0000
FF00
FFC0
FFC0
E1E0
E0E0
E0E0
E0E0
E1E0
FFC0
FF00
FF80
E3C0
E3C0
E1E0
E1E0
E0F0
E0F0
E078
ENDCHAR
STARTCHAR rcaron
ENCODING 345
SWIDTH 602 0
DWIDTH 14 0
BBX 10 19 3 0
BITMAP
30C0
3980
1F00
0F00
0000
0000
E780
EFC0
FFC0
F840
F000
E000
E000
E000
E000
E000
E000
E000
E000
ENDCHAR
STARTCHAR Sacute
ENCODING 346
SWIDTH 602 0
DWIDTH 14 0
BBX 11 22 2 0
BITMAP
03C0
0380
0600
0000
1F80
7FC0
7FC0
F0C0
E040
E000
F000
7E00
7F80
1FC0
07E0
01E0
00E0
80E0
E1E0
FFC0
FFC0
7F00
ENDCHAR
STARTCHAR sacute
ENCODING 347
SWIDTH 602 0
DWIDTH 14 0
BBX 11 19 2 0
BITMAP
01C0
0380
0700
0E00
0000
0000
3F80
7FC0
FFC0
E040
F800
FF80
7FC0
0FE0
00E0
C0E0
FFE0
FFC0
3F80
ENDCHAR
STARTCHAR Scircumflex
ENCODING 348
SWIDTH 602 0
DWIDTH 14 0
BBX 11 22 2 0
BITMAP
1F00
3B80
71C0
0000
1F80
7FC0
7FC0
F0C0
E040
E000
F000
7E00
7F80
1FC0
07E0
01E0
00E0
80E0
E1E0
FFC0
FFC0
7F00
ENDCHAR
STARTCHAR scircumflex
ENCODING 349
SWIDTH 602 0
DWIDTH 14 0
BBX 11 19 2 0
BITMAP
0E00
1F00
3B80
71C0
0000
0000
3F80
7FC0
FFC0
E040
F800
FF80
7FC0
0FE0
00E0
C0E0
FFE0
FFC0
3F80
ENDCHAR
STARTCHAR Scedilla
ENCODING 350
SWIDTH 602 0
DWIDTH 14 0
BBX 11 23 2 -5
BITMAP
1F80
7FC0
7FC0
F0C0
E040
E000
F000
7E00
7F80
1FC0
07E0
01E0
00E0
80E0
E1E0
FFC0
FFC0
7F00
0600
0300
0300
1F00
1E00
ENDCHAR
STARTCHAR scedilla
ENCODING 351
SWIDTH 602 0
DWIDTH 14 0
BBX 11 18 2 -5
BITMAP
3F80
7FC0
FFC0
E040
F800
FF80
7FC0
0FE0
00E0
C0E0
FFE0
FFC0
3F80
0600
0300
0300
1F00
1E00
ENDCHAR
STARTCHAR Scaron
ENCODING 352
SWIDTH 602 0
DWIDTH 14 0
BBX 11 22 2 0
BITMAP
71C0
3B80
1F00
0000
1F80
7FC0
7FC0
F0C0
E040
E000
F000
7E00
7F80
1FC0
07E0
01E0
00E0
80E0
E1E0
FFC0
FFC0
7F00
ENDCHAR
STARTCHAR scaron
ENCODING 353
SWIDTH 602 0
DWIDTH 14 0
BBX 11 19 2 0
BITMAP
71C0
3B80
1F00
0E00
0000
0000
3F80
7FC0
FFC0
E040
F800
FF80
7FC0
0FE0
00E0
C0E0
FFE0
FFC0
3F80
ENDCHAR
STARTCHAR Tcommaaccent
ENCODING 354
SWIDTH 602 0
DWIDTH 14 0
BBX 11 23 2 -5
BITMAP
FFE0
FFE0
FFE0
0E00
0E00
0E00
0E00
0E00
0E00
0E00
0E00
0E00
0E00
0E00
0E00
0E00
0E00
0E00
0600
0300
0300
1F00
1E00
ENDCHAR
STARTCHAR tcommaaccent
ENCODING 355
SWIDTH 602 0
DWIDTH 14 0
BBX 10 22 2 -5
BITMAP
1C00
1C00
1C00
1C00
FFC0
FFC0
FFC0
1C00
1C00
1C00
1C00
1C00
1C00
1C00
1FC0
0FC0
07C0
0180
00C0
00C0
07C0
0780
ENDCHAR
STARTCHAR Tcaron
ENCODING 356
SWIDTH 602 0
DWIDTH 14 0
BBX 11 23 2 0
BITMAP
71C0
3B80
1F00
0000
0000
FFE0
FFE0
FFE0
0E00
0E00
0E00
0E00
0E00
0E00
0E00
0E00
0E00
0E00
0E00
0E00
0E00
0E00
0E00
ENDCHAR
STARTCHAR tcaron
ENCODING 357
SWIDTH 602 0
DWIDTH 14 0
BBX 12 20 2 0
BITMAP
0070
0070
0060
1CE0
1C00
1C00
1C00
FFC0
FFC0
FFC0
1C00
1C00
1C00
1C00
1C00
1C00
1C00
1FC0
0FC0
07C0
ENDCHAR
STARTCHAR Tbar
ENCODING 358
SWIDTH 602 0
DWIDTH 14 0
BBX 11 18 2 0
BITMAP
FFE0
FFE0
FFE0
0E00
0E00
0E00
0E00
0E00
0E00
7FC0
7FC0
0E00
0E00
0E00
0E00
0E00
0E00
0E00
ENDCHAR
STARTCHAR tbar
ENCODING 359
SWIDTH 602 0
DWIDTH 14 0
BBX 10 17 2 0
BITMAP
1C00
1C00
1C00
1C00
FFC0
FFC0
FFC0
1C00
7F00
7F00
1C00
1C00
1C00
1C00
1FC0
0FC0
07C0
ENDCHAR
STARTCHAR Utilde
ENCODING 360
SWIDTH 602 0
DWIDTH 14 0
BBX 11 22 1 0
BITMAP
1D80
3F80
3700
0000
E0E0
E0E0
E0E0
E0E0
E0E0
E0E0
E0E0
E0E0
E0E0
E0E0
E0E0
E0E0
E0E0
E0E0
F1E0
7FC0
7FC0
1F00
ENDCHAR
STARTCHAR utilde
ENCODING 361
SWIDTH 602 0
DWIDTH 14 0
BBX 11 19 2 0
BITMAP
1980
3D80
3780
3300
0000
0000
E0E0
E0E0
E0E0
E0E0
E0E0
E0E0
E0E0
E0E0
E0E0
F1E0
FFE0
7FE0
3CE0
ENDCHAR
STARTCHAR Umacron
ENCODING 362
SWIDTH 602 0
DWIDTH 14 0
BBX 11 22 1 0
BITMAP
3F80
3F80
0000
0000
E0E0
E0E0
E0E0
E0E0
E0E0
E0E0
E0E0
E0E0
E0E0
E0E0
E0E0
E0E0
E0E0
E0E0
F1E0
7FC0
7FC0
1F00
ENDCHAR
STARTCHAR umacron
ENCODING 363
SWIDTH 602 0
DWIDTH 14 0
BBX 11 18 2 0
BITMAP
3F80
3F80
0000
0000
0000
E0E0
E0E0
E0E0
E0E0
E0E0
E0E0
E0E0
E0E0
E0E0
F1E0
FFE0
7FE0
3CE0
ENDCHAR
STARTCHAR Ubreve
ENCODING 364
SWIDTH 602 0
DWIDTH 14 0
BBX 11 22 1 0
BITMAP
30C0
3F80
0F00
0000
E0E0
E0E0
E0E0
E0E0
E0E0
E0E0
E0E0
E0E0
E0E0
E0E0
E0E0
E0E0
E0E0
E0E0
F1E0
7FC0
7FC0
1F00
ENDCHAR
STARTCHAR ubreve
ENCODING 365
SWIDTH 602 0
DWIDTH 14 0
BBX 11 19 2 0
BITMAP
6180
7F80
1E00
0000
0000
0000
E0E0
E0E0
E0E0
E0E0
E0E0
E0E0
E0E0
E0E0
E0E0
F1E0
FFE0
7FE0
3CE0
ENDCHAR
STARTCHAR Uring
ENCODING 366
SWIDTH 602 0
DWIDTH 14 0
BBX 11 23 1 0
BITMAP
0700
0F80
18C0
18C0
18C0
EFE0
E7E0
E0E0
E0E0
E0E0
E0E0
E0E0
E0E0
E0E0
E0E0
E0E0
E0E0
E0E0
E0E0
F1E0
7FC0
7FC0
1F00
ENDCHAR
STARTCHAR uring
ENCODING 367
SWIDTH 602 0
DWIDTH 14 0
BBX 11 22 2 0
BITMAP
0E00
1F00
3180
3180
3180
1F00
0E00
0000
0000
E0E0
E0E0
E0E0
E0E0
E0E0
E0E0
E0E0
E0E0
E0E0
F1E0
FFE0
7FE0
3CE0
ENDCHAR
STARTCHAR Uhungarumlaut
ENCODING 368
SWIDTH 602 0
DWIDTH 14 0
BBX 11 22 1 0
BITMAP
0EE0
1DC0
3B80
0000
E0E0
E0E0
E0E0
E0E0
E0E0
E0E0
E0E0
E0E0
E0E0
E0E0
E0E0
E0E0
E0E0
E0E0
F1E0
7FC0
7FC0
1F00
ENDCHAR
STARTCHAR uhungarumlaut
ENCODING 369
SWIDTH 602 0
DWIDTH 14 0
BBX 11 19 2 0
BITMAP
1DC0
3980
3300
6600
0000
0000
E0E0
E0E0
E0E0
E0E0
E0E0
E0E0
E0E0
E0E0
E0E0
F1E0
FFE0
7FE0
3CE0
ENDCHAR
STARTCHAR Uogonek
ENCODING 370
SWIDTH 602 0
DWIDTH 14 0
BBX 11 23 1 -5
BITMAP
E0E0
E0E0
E0E0
E0E0
E0E0
E0E0
E0E0
E0E0
E0E0
E0E0
E0E0
E0E0
E0E0
E0E0
F1E0
7FC0
7FC0
1F00
0600
0C00
0C00
0F80
0780
ENDCHAR
STARTCHAR uogonek
ENCODING 371
SWIDTH 602 0
DWIDTH 14 0
BBX 12 18 2 -5
BITMAP
E0E0
E0E0
E0E0
E0E0
E0E0
E0E0
E0E0
E0E0
E0E0
F1E0
FFE0
7FE0
3CE0
00C0
0180
0180
01F0
00F0
ENDCHAR
STARTCHAR Wcircumflex
ENCODING 372
SWIDTH 602 0
DWIDTH 14 0
BBX 14 22 0 0
BITMAP
0780
0FC0
1860
0000
E01C
E01C
E01C
E01C
601C
7798
77B8
77B8
77B8
77B8
77F8
7CF8
7CF8
3CF8
3CF0
3CF0
3870
3870
ENDCHAR
STARTCHAR wcircumflex
ENCODING 373
SWIDTH 602 0
DWIDTH 14 0
BBX 14 19 0 0
BITMAP
0780
0780
0CC0
1860
0000
0000
E01C
E01C
E01C
6318
77B8
77B8
77B8
77B8
34B0
3CF0
3CF0
3CF0
3CF0
ENDCHAR
STARTCHAR Ycircumflex
ENCODING 374
SWIDTH 602 0
DWIDTH 14 0
BBX 13 22 1 0
BITMAP
0F80
1DC0
38E0
0000
F078
7070
78F0
38E0
3DE0
1DC0
1DC0
1FC0
0F80
0F80
0700
0700
0700
0700
0700
0700
0700
0700
ENDCHAR
STARTCHAR ycircumflex
ENCODING 375
SWIDTH 602 0
DWIDTH 14 0
BBX 12 24 1 -5
BITMAP
0F00
0F00
1980
30C0
0000
0000
F0F0
70E0
70E0
79E0
39C0
39C0
3DC0
1F80
1F80
0F80
0F00
0F00
0F00
0E00
1E00
7E00
7C00
7800
ENDCHAR
STARTCHAR Ydieresis
ENCODING 376
SWIDTH 602 0
DWIDTH 14 0
BBX 13 22 1 0
BITMAP
1DC0
1DC0
1DC0
0000
F078
7070
78F0
38E0
3DE0
1DC0
1DC0
1FC0
0F80
0F80
0700
0700
0700
0700
0700
0700
0700
0700
ENDCHAR
STARTCHAR Zacute
ENCODING 377
SWIDTH 602 0
DWIDTH 14 0
BBX 12 22 1 0
BITMAP
01E0
01C0
0300
0000
FFF0
FFF0
FFF0
00F0
01E0
03C0
03C0
0780
0F00
0F00
1E00
3C00
3C00
7800
F000
FFF0
FFF0
FFF0
ENDCHAR
STARTCHAR zacute
ENCODING 378
SWIDTH 602 0
DWIDTH 14 0
BBX 11 19 1 0
BITMAP
00E0
01C0
0380
0700
0000
0000
FFE0
FFE0
FFE0
03C0
0780
0F00
1F00
1E00
3C00
7800
FFE0
FFE0
FFE0
ENDCHAR
STARTCHAR Zdotaccent
ENCODING 379
SWIDTH 602 0
DWIDTH 14 0
BBX 12 22 1 0
BITMAP
0380
0380
0380
0000
FFF0
FFF0
FFF0
00F0
01E0
03C0
03C0
0780
0F00
0F00
1E00
3C00
3C00
7800
F000
FFF0
FFF0
FFF0
ENDCHAR
STARTCHAR zdotaccent
ENCODING 380
SWIDTH 602 0
DWIDTH 14 0
BBX 11 19 1 0
BITMAP
0700
0700
0700
0000
0000
0000
FFE0
FFE0
FFE0
03C0
0780
0F00
1F00
1E00
3C00
7800
FFE0
FFE0
FFE0
ENDCHAR
STARTCHAR Zcaron
ENCODING 381
SWIDTH 602 0
DWIDTH 14 0
BBX 12 22 1 0
BITMAP
38E0
1DC0
0F80
0000
FFF0
FFF0
FFF0
00F0
01E0
03C0
03C0
0780
0F00
0F00
1E00
3C00
3C00
7800
F000
FFF0
FFF0
FFF0
ENDCHAR
STARTCHAR zcaron
ENCODING 382
SWIDTH 602 0
DWIDTH 14 0
BBX 11 19 1 0
BITMAP
38E0
1DC0
0F80
0700
0000
0000
FFE0
FFE0
FFE0
03C0
0780
0F00
1F00
1E00
3C00
7800
FFE0
FFE0
FFE0
ENDCHAR
STARTCHAR longs
ENCODING 383
SWIDTH 602 0
DWIDTH 14 0
BBX 10 18 2 0
BITMAP
0FC0
1FC0
1FC0
1C00
1C00
FC00
FC00
FC00
1C00
1C00
1C00
1C00
1C00
1C00
1C00
1C00
1C00
1C00
ENDCHAR
STARTCHAR uni0180
ENCODING 384
SWIDTH 602 0
DWIDTH 14 0
BBX 13 18 0 0
BITMAP
3800
FF80
FF80
3800
3800
3BE0
3FF0
3EF8
3C78
3838
3838
3838
3838
3838
3C78
3EF8
3FF0
3BE0
ENDCHAR
STARTCHAR uni0181
ENCODING 385
SWIDTH 602 0
DWIDTH 14 0
BBX 15 18 0 0
BITMAP
7FF0
FFF8
FFFC
FE3C
FE1C
3E1C
3E3C
3FFC
3FF0
3FFC
3E1E
3E0E
3E0E
3E0E
3E1E
3FFC
3FFC
3FF0
ENDCHAR
STARTCHAR uni0182
ENCODING 386
SWIDTH 602 0
DWIDTH 14 0
BBX 11 18 2 0
BITMAP
FFE0
FFE0
FFE0
E000
E000
E000
E000
FF00
FFC0
FFC0
E1E0
E0E0
E0E0
E0E0
E1E0
FFC0
FFC0
FF00
ENDCHAR
STARTCHAR uni0183
ENCODING 387
SWIDTH 602 0
DWIDTH 14 0
BBX 11 18 2 0
BITMAP
FF80
FF80
E000
E000
E000
EF80
FFC0
FBE0
F1E0
E0E0
E0E0
E0E0
E0E0
E0E0
F1E0
FBE0
FFC0
EF80
ENDCHAR
STARTCHAR uni0184
ENCODING 388
SWIDTH 602 0
DWIDTH 14 0
BBX 13 17 1 0
BITMAP
0800
1800
3800
7800
F800
7800
7FC0
7FF0
7FF0
7878
7878
7878
7878
7878
7FF0
7FF0
7FC0
ENDCHAR
STARTCHAR uni0185
ENCODING 389
SWIDTH 602 0
DWIDTH 14 0
BBX 13 18 1 0
BITMAP
0800
1800
3800
7800
F800
FBE0
7FF0
7FF0
7878
7878
7878
7878
7878
7878
7878
7FF0
7FF0
7BE0
ENDCHAR
STARTCHAR uni0186
ENCODING 390
SWIDTH 602 0
DWIDTH 14 0
BBX 11 18 2 0
BITMAP
7E00
FF00
FF80
C3C0
81C0
01E0
00E0
00E0
00E0
00E0
00E0
00E0
01E0
81C0
C3C0
FF80
FF00
7E00
ENDCHAR
STARTCHAR uni0187
ENCODING 391
SWIDTH 602 0
DWIDTH 14 0
BBX 13 19 2 0
BITMAP
0078
07F8
1FF0
3FE0
7CE0
F820
F000
F000
E000
E000
E000
E000
F000
F000
F000
7820
7FE0
3FE0
1FE0
ENDCHAR
STARTCHAR uni0188
ENCODING 392
SWIDTH 602 0
DWIDTH 14 0
BBX 13 18 2 0
BITMAP
0078
00F8
01F0
01E0
01E0
1FC0
3FC0
7CC0
F000
F000
F000
E000
F000
F000
F000
7FC0
3FC0
1FC0
ENDCHAR
STARTCHAR uni0189
ENCODING 393
SWIDTH 602 0
DWIDTH 14 0
BBX 14 18 0 0
BITMAP
3F80
3FE0
3FF0
3878
3838
383C
381C
FF1C
FF1C
FF1C
381C
381C
383C
3838
3878
3FF0
3FE0
3F80
ENDCHAR
STARTCHAR uni018A
ENCODING 394
SWIDTH 602 0
DWIDTH 14 0
BBX 14 18 0 0
BITMAP
1C00
7FE0
FFF0
FFF8
FE78
FE3C
1E3C
1E3C
1E1C
1E1C
1E3C
1E3C
1E3C
1E3C
1E78
1FF8
1FF0
1FC0
ENDCHAR
STARTCHAR uni018B
ENCODING 395
SWIDTH 602 0
DWIDTH 14 0
BBX 13 18 1 0
BITMAP
7FF8
7FF8
7FF8
0078
0078
0078
0078
03F8
1FF8
3FF8
7878
7078
F078
F078
7078
7FF8
3FF8
1FF8
ENDCHAR
STARTCHAR uni018C
ENCODING 396
SWIDTH 602 0
DWIDTH 14 0
BBX 11 18 2 0
BITMAP
3FE0
3FE0
00E0
00E0
00E0
3EE0
7FE0
FBE0
F1E0
E0E0
E0E0
E0E0
E0E0
E0E0
F1E0
FBE0
7FE0
3EE0
ENDCHAR
STARTCHAR uni018D
ENCODING 397
SWIDTH 602 0
DWIDTH 14 0
BBX 12 18 1 -5
BITMAP
1FC0
3FE0
7DE0
70F0
F070
F070
F070
F070
F070
70F0
7FE0
3FE0
1FC0
01E0
00E0
21E0
3FE0
3FC0
ENDCHAR
STARTCHAR uni018E
ENCODING 398
SWIDTH 602 0
DWIDTH 14 0
BBX 11 18 2 0
BITMAP
FFE0
FFE0
FFE0
00E0
00E0
00E0
00E0
7FE0
7FE0
7FE0
00E0
00E0
00E0
00E0
00E0
FFE0
FFE0
FFE0
ENDCHAR
STARTCHAR uni018F
ENCODING 399
SWIDTH 602 0
DWIDTH 14 0
BBX 12 18 1 0
BITMAP
0780
1FC0
1FE0
18E0
00E0
0070
0070
0070
FFF0
FFF0
FFF0
E070
E070
70E0
70E0
7FE0
3FC0
0F00
ENDCHAR
STARTCHAR uni0190
ENCODING 400
SWIDTH 602 0
DWIDTH 14 0
BBX 11 18 1 0
BITMAP
1F80
7FC0
FFC0
F0C0
E040
E000
F000
7F00
1F00
7F00
F000
E000
E000
E020
F060
7FE0
7FE0
1FC0
ENDCHAR
STARTCHAR uni0191
ENCODING 401
SWIDTH 602 0
DWIDTH 14 0
BBX 12 23 1 -5
BITMAP
3FF0
3FF0
3FF0
3FF0
3C00
3C00
3C00
3FF0
3FF0
3FF0
3C00
3C00
3C00
3C00
3C00
3C00
3C00
3C00
3C00
3C00
F800
F800
F000
ENDCHAR
STARTCHAR florin
ENCODING 402
SWIDTH 602 0
DWIDTH 14 0
BBX 12 23 1 -5
BITMAP
03F0
07F0
0780
0700
0700
3FF0
3FF0
3FF0
0700
0700
0700
0700
0700
0700
0700
0700
0700
0700
0700
0700
FF00
FE00
FC00
ENDCHAR
STARTCHAR uni0193
ENCODING 403
SWIDTH 602 0
DWIDTH 14 0
BBX 14 19 0 0
BITMAP
003C
07FC
1FF8
3FF0
3E70
7810
7800
7000
7000
F000
F1F0
F1F0
71F0
7070
7870
7C70
3FF0
1FF0
0FE0
ENDCHAR
STARTCHAR uni0194
ENCODING 404
SWIDTH 602 0
DWIDTH 14 0
BBX 14 21 0 -3
BITMAP
F03C
783C
7878
3C70
1CF0
1EE0
0FE0
0FC0
07C0
07C0
0FC0
0FE0
1FE0
1CE0
1CE0
1C70
3C70
3CF0
3FF0
1FF0
1FE0
ENDCHAR
STARTCHAR uni0195
ENCODING 405
SWIDTH 602 0
DWIDTH 14 0
BBX 14 18 0 0
BITMAP
E000
E000
E000
E000
E000
FF00
FF00
F70C
E38C
E38C
E38C
E38C
E39C
E39C
E39C
E3F8
E1F8
E1F0
ENDCHAR
STARTCHAR uni0196
ENCODING 406
SWIDTH 602 0
DWIDTH 14 0
BBX 11 18 2 0
BITMAP
FFC0
FFC0
FFC0
FFC0
1E00
1E00
1E00
1E00
1E00
1E00
1E00
1E00
0E00
0E00
0F00
0FE0
07E0
03E0
ENDCHAR
STARTCHAR uni0197
ENCODING 407
SWIDTH 602 0
DWIDTH 14 0
BBX 10 18 2 0
BITMAP
FFC0
FFC0
FFC0
FFC0
1E00
1E00
1E00
1E00
1E00
7FC0
7FC0
7FC0
1E00
1E00
1E00
FFC0
FFC0
FFC0
ENDCHAR
STARTCHAR uni0198
ENCODING 408
SWIDTH 602 0
DWIDTH 14 0
BBX 14 18 0 0
BITMAP
F000
F078
F0FC
F1F8
F3C0
F780
FF00
FF00
FF00
FF80
FF80
F3C0
F3C0
F1E0
F0E0
F0F0
F070
F078
ENDCHAR
STARTCHAR uni0199
ENCODING 409
SWIDTH 602 0
DWIDTH 14 0
BBX 12 18 2 0
BITMAP
3C00
7C00
F800
F000
E000
E1E0
E3C0
E780
EF00
FE00
FE00
FF00
F780
E380
E3C0
E1C0
E1E0
E0F0
ENDCHAR
STARTCHAR uni019A
ENCODING 410
SWIDTH 602 0
DWIDTH 14 0
BBX 12 18 1 0
BITMAP
FE00
FE00
0E00
0E00
0E00
0E00
0E00
0E00
0E00
3F80
3F80
0E00
0E00
0E00
0E00
0FF0
0FF0
03F0
ENDCHAR
STARTCHAR uni019B
ENCODING 411
SWIDTH 602 0
DWIDTH 14 0
BBX 12 18 1 0
BITMAP
3800
3B80
3F80
1E00
3E00
7E00
6F00
4F00
1F00
1F80
1F80
3FC0
39C0
39E0
78E0
70E0
F0F0
F070
ENDCHAR
STARTCHAR uni019C
ENCODING 412
SWIDTH 602 0
DWIDTH 14 0
BBX 13 18 1 0
BITMAP
E738
E738
E738
E738
E738
E738
E738
E738
E738
E738
E738
E738
E738
E738
E738
EF78
FFF8
7BF8
ENDCHAR
STARTCHAR uni019D
ENCODING 413
SWIDTH 602 0
DWIDTH 14 0
BBX 14 23 0 -5
BITMAP
3C1C
3E1C
3E1C
3E1C
3F1C
3F1C
3F1C
3F9C
3D9C
3DDC
3CDC
3CDC
3CFC
3C7C
3C7C
3C7C
3C3C
3C3C
3800
3800
F800
F800
E000
ENDCHAR
STARTCHAR uni019E
ENCODING 414
SWIDTH 602 0
DWIDTH 14 0
BBX 11 18 2 -5
BITMAP
EF80
EFC0
FBC0
F1C0
E1E0
E1E0
E1E0
E1E0
E1E0
E1E0
E1E0
E1E0
E1E0
01E0
01E0
01E0
01E0
01E0
ENDCHAR
STARTCHAR uni019F
ENCODING 415
SWIDTH 602 0
DWIDTH 14 0
BBX 12 18 1 0
BITMAP
0F00
3FC0
3FE0
79E0
70F0
F0F0
F070
FFF0
FFF0
FFF0
F070
F070
F070
70F0
78F0
7FE0
3FE0
1F80
ENDCHAR
STARTCHAR Ohorn
ENCODING 416
SWIDTH 602 0
DWIDTH 14 0
BBX 14 19 0 0
BITMAP
000C
0F04
3FC4
7FFC
71FC
F0E0
E070
E070
E070
E070
E070
E070
E070
E070
F0E0
71E0
7FE0
3FC0
1F00
ENDCHAR
STARTCHAR ohorn
ENCODING 417
SWIDTH 602 0
DWIDTH 14 0
BBX 14 14 0 0
BITMAP
000C
1F84
3FC4
7FFC
F0FC
E070
E070
E070
E070
E070
F0E0
7FE0
3FC0
1F80
ENDCHAR
STARTCHAR uni01A2
ENCODING 418
SWIDTH 602 0
DWIDTH 14 0
BBX 14 18 0 0
BITMAP
0E1C
3FBC
3FFC
7BFC
70FC
70FC
F0DC
F0DC
F0DC
F0DC
F0DC
F0DC
70DC
70DC
79DC
7FDC
3FDC
1F9C
ENDCHAR
STARTCHAR uni01A3
ENCODING 419
SWIDTH 602 0
DWIDTH 14 0
BBX 14 18 0 -5
BITMAP
1FBC
3FFC
7DFC
71FC
F1EC
F1CC
F1CC
F1CC
F1CC
71CC
7FCC
3FCC
1F8C
000C
000C
000C
000C
000C
ENDCHAR
STARTCHAR uni01A4
ENCODING 420
SWIDTH 602 0
DWIDTH 14 0
BBX 14 18 0 0
BITMAP
0F00
7FF0
7FF8
FEFC
EE3C
EE1C
0E1C
0E3C
0EFC
0FF8
0FF0
0E00
0E00
0E00
0E00
0E00
0E00
0E00
ENDCHAR
STARTCHAR uni01A5
ENCODING 421
SWIDTH 602 0
DWIDTH 14 0
BBX 11 23 2 -5
BITMAP
7C00
7C00
F800
E000
E000
EF80
FFC0
FBE0
F1E0
E0E0
E0E0
E0E0
E0E0
E0E0
F1E0
FFE0
FFC0
EF80
E000
E000
E000
E000
E000
ENDCHAR
STARTCHAR uni01A6
ENCODING 422
SWIDTH 602 0
DWIDTH 14 0
BBX 12 21 2 -3
BITMAP
E000
E000
E000
FE00
FF80
FFC0
E3E0
E1E0
E1E0
E1E0
E1C0
FFC0
FF00
FF80
E780
E3C0
E1C0
E1E0
00E0
00F0
0070
ENDCHAR
STARTCHAR uni01A7
ENCODING 423
SWIDTH 602 0
DWIDTH 14 0
BBX 11 18 2 0
BITMAP
1F00
FF80
FFC0
E1E0
80E0
00E0
01E0
0FE0
3FC0
7F00
FC00
F000
E000
E000
E060
FFE0
7FE0
3FC0
ENDCHAR
STARTCHAR uni01A8
ENCODING 424
SWIDTH 602 0
DWIDTH 14 0
BBX 10 13 2 0
BITMAP
7F80
7FC0
61C0
01C0
03C0
1FC0
7F80
FE00
F000
E000
F0C0
7FC0
3FC0
ENDCHAR
STARTCHAR uni01A9
ENCODING 425
SWIDTH 602 0
DWIDTH 14 0
BBX 12 18 1 0
BITMAP
FFF0
FFF0
FFF0
FFF0
7800
3C00
1E00
1E00
0F00
0780
0F00
1E00
3C00
7800
7800
FFF0
FFF0
FFF0
ENDCHAR
STARTCHAR uni01AA
ENCODING 426
SWIDTH 602 0
DWIDTH 14 0
BBX 12 23 1 -5
BITMAP
7E00
FF00
FF00
C700
FFF0
FFF0
0700
0700
0700
0700
0700
0700
0700
0700
0700
0700
0700
0700
0700
0780
07F0
07F0
01F0
ENDCHAR
STARTCHAR uni01AB
ENCODING 427
SWIDTH 602 0
DWIDTH 14 0
BBX 12 22 1 -5
BITMAP
0E00
0E00
0E00
0E00
FFF0
FFF0
FFF0
0E00
0E00
0E00
0E00
0E00
0E00
0E00
0FF0
0FF0
07F0
00F0
00E0
03E0
03E0
0380
ENDCHAR
STARTCHAR uni01AC
ENCODING 428
SWIDTH 602 0
DWIDTH 14 0
BBX 13 18 0 0
BITMAP
0FF8
7FF8
7FF8
FFF8
E780
E780
0780
0780
0780
0780
0780
0780
0780
0780
0780
0780
0780
0780
ENDCHAR
STARTCHAR uni01AD
ENCODING 429
SWIDTH 602 0
DWIDTH 14 0
BBX 12 18 1 0
BITMAP
07C0
0FC0
0F80
0E00
0E00
FFF0
FFF0
FFF0
0E00
0E00
0E00
0E00
0E00
0E00
0E00
0FF0
0FF0
07F0
ENDCHAR
STARTCHAR uni01AE
ENCODING 430
SWIDTH 602 0
DWIDTH 14 0
BBX 12 23 1 -5
BITMAP
FFF0
FFF0
FFF0
FFF0
0F00
0F00
0F00
0F00
0F00
0F00
0F00
0F00
0F00
0F00
0F00
0F00
0F00
0F00
0700
0700
07E0
07E0
03E0
ENDCHAR
STARTCHAR Uhorn
ENCODING 431
SWIDTH 602 0
DWIDTH 14 0
BBX 14 19 0 0
BITMAP
000C
E0E4
E0E4
E0FC
E0FC
E0E0
E0E0
E0E0
E0E0
E0E0
E0E0
E0E0
E0E0
E0E0
E0E0
F1C0
7FC0
7F80
1F00
ENDCHAR
STARTCHAR uhorn
ENCODING 432
SWIDTH 602 0
DWIDTH 14 0
BBX 14 14 0 0
BITMAP
000C
E0E4
E0E4
E0FC
E0FC
E0E0
E0E0
E0E0
E0E0
E0E0
F1E0
7FE0
7FE0
3EE0
ENDCHAR
STARTCHAR uni01B1
ENCODING 433
SWIDTH 602 0
DWIDTH 14 0
BBX 12 17 1 0
BITMAP
FDF0
FDF0
1DC0
39E0
78E0
70F0
F070
F070
F070
F070
F070
F0F0
70F0
79E0
3FE0
3FC0
0F80
ENDCHAR
STARTCHAR uni01B2
ENCODING 434
SWIDTH 602 0
DWIDTH 14 0
BBX 12 18 1 0
BITMAP
F000
F000
F000
F180
F1C0
F0E0
F0E0
F0F0
F0F0
F0F0
F0F0
F0F0
F0F0
F0F0
71E0
7FE0
3FC0
1F00
ENDCHAR
STARTCHAR uni01B3
ENCODING 435
SWIDTH 602 0
DWIDTH 14 0
BBX 14 18 0 0
BITMAP
F018
F03C
787C
787C
38F0
3CE0
1DE0
1FC0
0FC0
0F80
0780
0780
0780
0780
0780
0780
0780
0780
ENDCHAR
STARTCHAR uni01B4
ENCODING 436
SWIDTH 602 0
DWIDTH 14 0
BBX 13 18 1 -5
BITMAP
E078
E0F8
F0F0
71E0
71C0
79C0
3B80
3B80
3F80
1F00
1F00
0F00
0E00
0E00
1E00
FC00
FC00
F000
ENDCHAR
STARTCHAR uni01B5
ENCODING 437
SWIDTH 602 0
DWIDTH 14 0
BBX 13 18 1 0
BITMAP
7FF0
7FF0
7FF0
7FF0
00F0
01E0
03C0
03C0
0780
3FE0
3FE0
3FE0
3C00
7800
7800
FFF8
FFF8
FFF8
ENDCHAR
STARTCHAR uni01B6
ENCODING 438
SWIDTH 602 0
DWIDTH 14 0
BBX 11 13 2 0
BITMAP
FFE0
FFE0
01E0
03C0
0780
0F00
7FC0
7FC0
7800
7800
FFE0
FFE0
FFE0
ENDCHAR
STARTCHAR uni01B7
ENCODING 439
SWIDTH 602 0
DWIDTH 14 0
BBX 14 18 0 0
BITMAP
3FF8
3FF8
3FF8
3FF8
01F0
03E0
07C0
0F80
0FE0
0FF8
00FC
003C
003C
F03C
F83C
7FFC
7FF8
1FF0
ENDCHAR
STARTCHAR uni01B8
ENCODING 440
SWIDTH 602 0
DWIDTH 14 0
BBX 14 18 0 0
BITMAP
7FF8
7FF8
7FF8
7FF8
3E00
1F00
0F80
07C0
1FE0
7FE0
7E00
F800
F000
F03C
F83C
7FFC
7FF8
1FF0
ENDCHAR
STARTCHAR uni01B9
ENCODING 441
SWIDTH 602 0
DWIDTH 14 0
BBX 12 18 1 -5
BITMAP
7FF0
7FF0
7800
3C00
1E00
0F00
0780
03C0
1FC0
7FC0
7C00
F800
F000
F000
F810
7FF0
3FF0
1FF0
ENDCHAR
STARTCHAR uni01BA
ENCODING 442
SWIDTH 602 0
DWIDTH 14 0
BBX 11 18 2 -5
BITMAP
FFE0
FFE0
03E0
03C0
0780
0F00
1E00
3FC0
7FE0
01E0
01E0
3FE0
FFC0
F800
E000
F9E0
FFE0
3FC0
ENDCHAR
STARTCHAR uni01BB
ENCODING 443
SWIDTH 602 0
DWIDTH 14 0
BBX 11 18 1 0
BITMAP
1F00
7FC0
7FE0
61E0
00E0
00E0
00E0
01E0
03C0
3FE0
3FE0
3FE0
1E00
3C00
7800
FFE0
FFE0
FFE0
ENDCHAR
STARTCHAR uni01BC
ENCODING 444
SWIDTH 602 0
DWIDTH 14 0
BBX 14 18 0 0
BITMAP
3FF8
3FF8
3FF8
3FF8
3C00
3C00
3C00
3C00
3FF0
3FF8
00FC
003C
003C
F03C
F83C
7FFC
7FF8
1FF0
ENDCHAR
STARTCHAR uni01BD
ENCODING 445
SWIDTH 602 0
DWIDTH 14 0
BBX 12 18 1 -5
BITMAP
3FE0
3FE0
3800
3800
3800
3800
3800
3800
3FC0
3FE0
03F0
00F0
00F0
00F0
C1F0
FFF0
FFE0
7F80
ENDCHAR
STARTCHAR uni01BE
ENCODING 446
SWIDTH 602 0
DWIDTH 14 0
BBX 11 17 2 0
BITMAP
3C00
3C00
FF80
FF80
3C00
3F00
3F80
3FC0
03C0
01E0
01E0
01E0
01E0
83C0
FFC0
FF80
FF00
ENDCHAR
STARTCHAR uni01BF
ENCODING 447
SWIDTH 602 0
DWIDTH 14 0
BBX 12 18 1 -5
BITMAP
F7E0
FFF0
FFF0
F8F0
F0F0
F070
F0F0
F0E0
F1E0
F3C0
F780
FF00
FE00
F800
F000
F000
F000
F000
ENDCHAR
STARTCHAR uni01C0
ENCODING 448
SWIDTH 602 0
DWIDTH 14 0
BBX 3 18 6 0
BITMAP
E0
E0
E0
E0
E0
E0
E0
E0
E0
E0
E0
E0
E0
E0
E0
E0
E0
E0
ENDCHAR
STARTCHAR uni01C1
ENCODING 449
SWIDTH 602 0
DWIDTH 14 0
BBX 8 18 3 0
BITMAP
E7
E7
E7
E7
E7
E7
E7
E7
E7
E7
E7
E7
E7
E7
E7
E7
E7
E7
ENDCHAR
STARTCHAR uni01C2
ENCODING 450
SWIDTH 602 0
DWIDTH 14 0
BBX 13 18 1 0
BITMAP
0700
0700
0700
0700
0700
FFF8
FFF8
0700
0700
0700
FFF8
FFF8
FFF8
0700
0700
0700
0700
0700
ENDCHAR
STARTCHAR uni01C3
ENCODING 451
SWIDTH 602 0
DWIDTH 14 0
BBX 3 18 6 0
BITMAP
E0
E0
E0
E0
E0
E0
E0
E0
E0
E0
E0
E0
E0
00
00
E0
E0
E0
ENDCHAR
STARTCHAR uni01CD
ENCODING 461
SWIDTH 602 0
DWIDTH 14 0
BBX 14 22 0 0
BITMAP
1C70
0EE0
07C0
0000
0780
0FC0
0FC0
0FC0
0FC0
1CE0
1CE0
1CE0
1CE0
3CF0
3870
3FF0
7FF8
7FF8
7038
7038
F03C
F03C
ENDCHAR
STARTCHAR uni01CE
ENCODING 462
SWIDTH 602 0
DWIDTH 14 0
BBX 12 19 1 0
BITMAP
38E0
1DC0
0F80
0700
0000
0000
3F80
7FE0
7FE0
60F0
0070
3FF0
7FF0
FFF0
E070
E0F0
FFF0
7FF0
3E70
ENDCHAR
STARTCHAR uni01CF
ENCODING 463
SWIDTH 602 0
DWIDTH 14 0
BBX 9 22 3 0
BITMAP
E380
7700
3E00
0000
FF80
FF80
FF80
1C00
1C00
1C00
1C00
1C00
1C00
1C00
1C00
1C00
1C00
1C00
1C00
FF80
FF80
FF80
ENDCHAR
STARTCHAR uni01D0
ENCODING 464
SWIDTH 602 0
DWIDTH 14 0
BBX 11 19 2 0
BITMAP
71C0
3B80
1F00
0E00
0000
0000
7E00
7E00
7E00
0E00
0E00
0E00
0E00
0E00
0E00
0E00
FFE0
FFE0
FFE0
ENDCHAR
STARTCHAR uni01D1
ENCODING 465
SWIDTH 602 0
DWIDTH 14 0
BBX 12 22 1 0
BITMAP
38E0
1DC0
0F80
0000
0F00
3FC0
7FE0
70E0
70E0
E070
E070
E070
E070
E070
E070
E070
E070
70E0
70E0
7FE0
3FC0
0F00
ENDCHAR
STARTCHAR uni01D2
ENCODING 466
SWIDTH 602 0
DWIDTH 14 0
BBX 12 19 1 0
BITMAP
38E0
1DC0
0F80
0700
0000
0000
1F80
3FC0
7FE0
F0E0
E070
E070
E070
E070
E070
70E0
7FE0
3FC0
1F80
ENDCHAR
STARTCHAR uni01D3
ENCODING 467
SWIDTH 602 0
DWIDTH 14 0
BBX 11 22 1 0
BITMAP
38E0
1DC0
0F80
0000
E0E0
E0E0
E0E0
E0E0
E0E0
E0E0
E0E0
E0E0
E0E0
E0E0
E0E0
E0E0
E0E0
E0E0
F1E0
7FC0
7FC0
1F00
ENDCHAR
STARTCHAR uni01D4
ENCODING 468
SWIDTH 602 0
DWIDTH 14 0
BBX 11 19 2 0
BITMAP
71C0
3B80
1F00
0E00
0000
0000
E0E0
E0E0
E0E0
E0E0
E0E0
E0E0
E0E0
E0E0
E0E0
F1E0
FFE0
7FE0
3CE0
ENDCHAR
STARTCHAR uni01D5
ENCODING 469
SWIDTH 602 0
DWIDTH 14 0
BBX 11 23 1 0
BITMAP
1FC0
1FC0
1CE0
1CE0
1CE0
E0E0
E0E0
E0E0
E0E0
E0E0
E0E0
E0E0
E0E0
E0E0
E0E0
E0E0
E0E0
E0E0
E0E0
F1E0
7FC0
7FC0
1F00
ENDCHAR
STARTCHAR uni01D6
ENCODING 470
SWIDTH 602 0
DWIDTH 14 0
BBX 11 22 2 0
BITMAP
3F80
3F80
0000
71C0
71C0
71C0
0000
0000
0000
E0E0
E0E0
E0E0
E0E0
E0E0
E0E0
E0E0
E0E0
E0E0
F1E0
FFE0
7FE0
3CE0
ENDCHAR
STARTCHAR uni01D7
ENCODING 471
SWIDTH 602 0
DWIDTH 14 0
BBX 11 24 1 0
BITMAP
01C0
0380
0700
1CE0
1CE0
1CE0
E0E0
E0E0
E0E0
E0E0
E0E0
E0E0
E0E0
E0E0
E0E0
E0E0
E0E0
E0E0
E0E0
E0E0
F1E0
7FC0
7FC0
1F00
ENDCHAR
STARTCHAR uni01D8
ENCODING 472
SWIDTH 602 0
DWIDTH 14 0
BBX 11 24 2 0
BITMAP
01C0
0380
0700
0E00
0000
71C0
71C0
71C0
0000
0000
0000
E0E0
E0E0
E0E0
E0E0
E0E0
E0E0
E0E0
E0E0
E0E0
F1E0
FFE0
7FE0
3CE0
ENDCHAR
STARTCHAR uni01D9
ENCODING 473
SWIDTH 602 0
DWIDTH 14 0
BBX 11 24 1 0
BITMAP
38E0
1DC0
0F80
1CE0
1CE0
1CE0
E0E0
E0E0
E0E0
E0E0
E0E0
E0E0
E0E0
E0E0
E0E0
E0E0
E0E0
E0E0
E0E0
E0E0
F1E0
7FC0
7FC0
1F00
ENDCHAR
STARTCHAR uni01DA
ENCODING 474
SWIDTH 602 0
DWIDTH 14 0
BBX 11 24 2 0
BITMAP
71C0
3B80
1F00
0E00
0000
71C0
71C0
71C0
0000
0000
0000
E0E0
E0E0
E0E0
E0E0
E0E0
E0E0
E0E0
E0E0
E0E0
F1E0
FFE0
7FE0
3CE0
ENDCHAR
STARTCHAR uni01DB
ENCODING 475
SWIDTH 602 0
DWIDTH 14 0
BBX 11 24 1 0
BITMAP
1C00
0E00
0700
1CE0
1CE0
1CE0
E0E0
E0E0
E0E0
E0E0
E0E0
E0E0
E0E0
E0E0
E0E0
E0E0
E0E0
E0E0
E0E0
E0E0
F1E0
7FC0
7FC0
1F00
ENDCHAR
STARTCHAR uni01DC
ENCODING 476
SWIDTH 602 0
DWIDTH 14 0
BBX 11 24 2 0
BITMAP
7000
3800
1C00
0E00
0000
71C0
71C0
71C0
0000
0000
0000
E0E0
E0E0
E0E0
E0E0
E0E0
E0E0
E0E0
E0E0
E0E0
F1E0
FFE0
7FE0
3CE0
ENDCHAR
STARTCHAR uni01DD
ENCODING 477
SWIDTH 602 0
DWIDTH 14 0
BBX 12 13 1 0
BITMAP
1F80
3FC0
7FE0
60F0
4070
FFF0
FFF0
FFF0
E070
F0E0
7FE0
3FC0
1F80
ENDCHAR
STARTCHAR uni01DE
ENCODING 478
SWIDTH 602 0
DWIDTH 14 0
BBX 14 23 0 0
BITMAP
0FE0
0FE0
0E70
0E70
0E70
0780
0FC0
0FC0
0FC0
0FC0
1CE0
1CE0
1CE0
1CE0
3CF0
3870
3FF0
7FF8
7FF8
7038
7038
F03C
F03C
ENDCHAR
STARTCHAR uni01DF
ENCODING 479
SWIDTH 602 0
DWIDTH 14 0
BBX 12 22 1 0
BITMAP
1FC0
1FC0
0000
1CE0
1CE0
1CE0
0000
0000
0000
3F80
7FE0
7FE0
60F0
0070
3FF0
7FF0
FFF0
E070
E0F0
FFF0
7FF0
3E70
ENDCHAR
STARTCHAR uni01E0
ENCODING 480
SWIDTH 602 0
DWIDTH 14 0
BBX 14 23 0 0
BITMAP
0FE0
0FE0
0380
0380
0380
0780
0FC0
0FC0
0FC0
0FC0
1CE0
1CE0
1CE0
1CE0
3CF0
3870
3FF0
7FF8
7FF8
7038
7038
F03C
F03C
ENDCHAR
STARTCHAR uni01E1
ENCODING 481
SWIDTH 602 0
DWIDTH 14 0
BBX 12 22 1 0
BITMAP
1FC0
1FC0
0000
0700
0700
0700
0000
0000
0000
3F80
7FE0
7FE0
60F0
0070
3FF0
7FF0
FFF0
E070
E0F0
FFF0
7FF0
3E70
ENDCHAR
STARTCHAR uni01E2
ENCODING 482
SWIDTH 602 0
DWIDTH 14 0
BBX 14 22 0 0
BITMAP
03F8
03F8
0000
0000
0FFC
0FFC
1FFC
1DC0
1DC0
1DC0
19C0
39F8
39F8
39F8
39C0
7FC0
7FC0
7FC0
71C0
71FC
E1FC
E1FC
ENDCHAR
STARTCHAR uni01E3
ENCODING 483
SWIDTH 602 0
DWIDTH 14 0
BBX 14 18 0 0
BITMAP
0FE0
0FE0
0000
0000
0000
3CF0
7EF8
7FFC
439C
039C
3FFC
7FFC
FFFC
E380
E3C4
FFFC
7EFC
3C78
ENDCHAR
STARTCHAR Gcaron
ENCODING 486
SWIDTH 602 0
DWIDTH 14 0
BBX 12 22 1 0
BITMAP
0C30
07E0
03C0
0000
0FC0
1FE0
3FE0
7860
7000
F000
E000
E000
E1F0
E1F0
E1F0
E070
F070
7070
7870
3FF0
1FF0
0FC0
ENDCHAR
STARTCHAR gcaron
ENCODING 487
SWIDTH 602 0
DWIDTH 14 0
BBX 12 24 1 -5
BITMAP
30C0
19C0
0F80
0F00
0000
0000
1E70
3FF0
7FF0
F0F0
E070
E070
E070
E070
E070
F0F0
7FF0
3FF0
1F70
0070
40F0
7FE0
7FE0
3F80
ENDCHAR
STARTCHAR uni01E8
ENCODING 488
SWIDTH 602 0
DWIDTH 14 0
BBX 12 22 1 0
BITMAP
38E0
1DC0
0F80
0000
E0F0
E1E0
E1C0
E3C0
E780
EF00
FE00
FE00
FF00
FF00
F780
E780
E3C0
E3C0
E1E0
E1E0
E0F0
E0F0
ENDCHAR
STARTCHAR uni01E9
ENCODING 489
SWIDTH 602 0
DWIDTH 14 0
BBX 12 22 2 0
BITMAP
71C0
3B80
1F00
0000
E000
E000
E000
E000
E000
E1E0
E3C0
E780
EF00
FE00
FE00
FF00
F700
E780
E3C0
E1C0
E1E0
E0F0
ENDCHAR
STARTCHAR uni01EA
ENCODING 490
SWIDTH 602 0
DWIDTH 14 0
BBX 12 23 1 -5
BITMAP
0F00
3FC0
7FE0
70E0
70E0
E070
E070
E070
E070
E070
E070
E070
E070
70E0
70E0
7FE0
3FC0
0F00
0600
0C00
0C00
0F80
0780
ENDCHAR
STARTCHAR uni01EB
ENCODING 491
SWIDTH 602 0
DWIDTH 14 0
BBX 12 18 1 -5
BITMAP
1F80
3FC0
7FE0
F0E0
E070
E070
E070
E070
E070
70E0
7FE0
3FC0
1F80
0600
0C00
0C00
0F80
0780
ENDCHAR
STARTCHAR uni01EC
ENCODING 492
SWIDTH 602 0
DWIDTH 14 0
BBX 12 27 1 -5
BITMAP
1FC0
1FC0
0000
0000
0F00
3FC0
7FE0
70E0
70E0
E070
E070
E070
E070
E070
E070
E070
E070
70E0
70E0
7FE0
3FC0
0F00
0600
0C00
0C00
0F80
0780
ENDCHAR
STARTCHAR uni01ED
ENCODING 493
SWIDTH 602 0
DWIDTH 14 0
BBX 12 23 1 -5
BITMAP
1FC0
1FC0
0000
0000
0000
1F80
3FC0
7FE0
F0E0
E070
E070
E070
E070
E070
70E0
7FE0
3FC0
1F80
0600
0C00
0C00
0F80
0780
ENDCHAR
STARTCHAR uni01EE
ENCODING 494
SWIDTH 602 0
DWIDTH 14 0
BBX 14 22 0 0
BITMAP
1C70
0EE0
07C0
0000
3FF8
3FF8
3FF8
3FF8
01F0
03E0
07C0
0F80
0FE0
0FF8
00FC
003C
003C
F03C
F83C
7FFC
7FF8
1FF0
ENDCHAR
STARTCHAR uni01EF
ENCODING 495
SWIDTH 602 0
DWIDTH 14 0
BBX 12 24 1 -5
BITMAP
38E0
1DC0
0F80
0700
0000
0000
7FE0
7FE0
01E0
03C0
0780
0780
0F00
1E00
1FC0
1FE0
03F0
00F0
00F0
00F0
C1F0
FFF0
FFE0
7F80
ENDCHAR
STARTCHAR uni01F0
ENCODING 496
SWIDTH 602 0
DWIDTH 14 0
BBX 10 24 2 -5
BITMAP
30C0
3980
1F00
0F00
0000
0000
3F00
3F00
3F00
0700
0700
0700
0700
0700
0700
0700
0700
0700
0700
0700
0F00
FF00
FE00
FC00
ENDCHAR
STARTCHAR uni01F4
ENCODING 500
SWIDTH 602 0
DWIDTH 14 0
BBX 12 22 1 0
BITMAP
00F0
00E0
0180
0000
0FC0
1FE0
3FE0
7860
7000
F000
E000
E000
E1F0
E1F0
E1F0
E070
F070
7070
7870
3FF0
1FF0
0FC0
ENDCHAR
STARTCHAR uni01F5
ENCODING 501
SWIDTH 602 0
DWIDTH 14 0
BBX 12 24 1 -5
BITMAP
00E0
01C0
0380
0700
0000
0000
1E70
3FF0
7FF0
F0F0
E070
E070
E070
E070
E070
F0F0
7FF0
3FF0
1F70
0070
40F0
7FE0
7FE0
3F80
ENDCHAR
STARTCHAR uni01F6
ENCODING 502
SWIDTH 602 0
DWIDTH 14 0
BBX 14 18 0 0
BITMAP
E380
E380
E380
E380
E380
E380
E380
FF9C
FF9C
FF9C
E39C
E39C
E39C
E39C
E39C
E3FC
E1F8
E0F0
ENDCHAR
STARTCHAR uni01F8
ENCODING 504
SWIDTH 602 0
DWIDTH 14 0
BBX 11 22 1 0
BITMAP
1C00
0E00
0700
0000
F0E0
F0E0
F0E0
F8E0
F8E0
F8E0
ECE0
ECE0
ECE0
E6E0
E6E0
E6E0
E3E0
E3E0
E3E0
E1E0
E1E0
E1E0
ENDCHAR
STARTCHAR uni01F9
ENCODING 505
SWIDTH 602 0
DWIDTH 14 0
BBX 11 19 2 0
BITMAP
7000
3800
1C00
0E00
0000
0000
E780
FFC0
FFE0
F1E0
E0E0
E0E0
E0E0
E0E0
E0E0
E0E0
E0E0
E0E0
E0E0
ENDCHAR
STARTCHAR AEacute
ENCODING 508
SWIDTH 602 0
DWIDTH 14 0
BBX 14 22 0 0
BITMAP
001C
0038
0070
0000
0FFC
0FFC
1FFC
1DC0
1DC0
1DC0
19C0
39F8
39F8
39F8
39C0
7FC0
7FC0
7FC0
71C0
71FC
E1FC
E1FC
ENDCHAR
STARTCHAR aeacute
ENCODING 509
SWIDTH 602 0
DWIDTH 14 0
BBX 14 19 0 0
BITMAP
0070
00E0
01C0
0380
0000
0000
3CF0
7EF8
7FFC
439C
039C
3FFC
7FFC
FFFC
E380
E3C4
FFFC
7EFC
3C78
ENDCHAR
STARTCHAR Oslashacute
ENCODING 510
SWIDTH 602 0
DWIDTH 14 0
BBX 14 22 0 0
BITMAP
00E0
01C0
0380
0000
07C8
1FFC
3FF8
38F0
3878
70F8
71F8
73F8
73B8
7738
7E38
7C38
7C38
7870
3870
7FF0
FFE0
CF80
ENDCHAR
STARTCHAR oslashacute
ENCODING 511
SWIDTH 602 0
DWIDTH 14 0
BBX 13 20 1 -1
BITMAP
00E0
01C0
0380
0700
0000
0010
1FB8
3FF0
7FE0
F0E0
E1F0
E7F0
EF70
FC70
F870
70F0
7FE0
FFC0
DF80
8000
ENDCHAR
STARTCHAR uni0200
ENCODING 512
SWIDTH 602 0
DWIDTH 14 0
BBX 14 22 0 0
BITMAP
3BC0
1CC0
0E60
0000
0780
0FC0
0FC0
0FC0
0FC0
1CE0
1CE0
1CE0
1CE0
3CF0
3870
3FF0
7FF8
7FF8
7038
7038
F03C
F03C
ENDCHAR
STARTCHAR uni0201
ENCODING 513
SWIDTH 602 0
DWIDTH 14 0
BBX 12 19 1 0
BITMAP
7300
3380
1980
18C0
0000
0000
3F80
7FE0
7FE0
60F0
0070
3FF0
7FF0
FFF0
E070
E0F0
FFF0
7FF0
3E70
ENDCHAR
STARTCHAR uni0202
ENCODING 514
SWIDTH 602 0
DWIDTH 14 0
BBX 14 22 0 0
BITMAP
07C0
0EE0
1860
0000
0780
0FC0
0FC0
0FC0
0FC0
1CE0
1CE0
1CE0
1CE0
3CF0
3870
3FF0
7FF8
7FF8
7038
7038
F03C
F03C
ENDCHAR
STARTCHAR uni0203
ENCODING 515
SWIDTH 602 0
DWIDTH 14 0
BBX 12 19 1 0
BITMAP
0F00
1F80
38C0
30C0
0000
0000
3F80
7FE0
7FE0
60F0
0070
3FF0
7FF0
FFF0
E070
E0F0
FFF0
7FF0
3E70
ENDCHAR
STARTCHAR uni0204
ENCODING 516
SWIDTH 602 0
DWIDTH 14 0
BBX 11 22 2 0
BITMAP
EF00
7300
3980
0000
FFE0
FFE0
FFE0
E000
E000
E000
E000
FFC0
FFC0
FFC0
E000
E000
E000
E000
E000
FFE0
FFE0
FFE0
ENDCHAR
STARTCHAR uni0205
ENCODING 517
SWIDTH 602 0
DWIDTH 14 0
BBX 12 19 1 0
BITMAP
3300
3980
1980
0CC0
0000
0000
1F80
3FC0
7FE0
70F0
E070
FFF0
FFF0
FFF0
E000
F020
7FE0
3FE0
1FC0
ENDCHAR
STARTCHAR uni0206
ENCODING 518
SWIDTH 602 0
DWIDTH 14 0
BBX 11 22 2 0
BITMAP
1F00
3B80
6180
0000
FFE0
FFE0
FFE0
E000
E000
E000
E000
FFC0
FFC0
FFC0
E000
E000
E000
E000
E000
FFE0
FFE0
FFE0
ENDCHAR
STARTCHAR uni0207
ENCODING 519
SWIDTH 602 0
DWIDTH 14 0
BBX 12 19 1 0
BITMAP
0780
1FC0
18C0
1060
0000
0000
1F80
3FC0
7FE0
70F0
E070
FFF0
FFF0
FFF0
E000
F020
7FE0
3FE0
1FC0
ENDCHAR
STARTCHAR uni0208
ENCODING 520
SWIDTH 602 0
DWIDTH 14 0
BBX 10 22 2 0
BITMAP
EF00
7300
3980
0000
7FC0
7FC0
7FC0
0E00
0E00
0E00
0E00
0E00
0E00
0E00
0E00
0E00
0E00
0E00
0E00
7FC0
7FC0
7FC0
ENDCHAR
STARTCHAR uni0209
ENCODING 521
SWIDTH 602 0
DWIDTH 14 0
BBX 11 19 2 0
BITMAP
E600
6700
3300
3180
0000
0000
7E00
7E00
7E00
0E00
0E00
0E00
0E00
0E00
0E00
0E00
FFE0
FFE0
FFE0
ENDCHAR
STARTCHAR uni020A
ENCODING 522
SWIDTH 602 0
DWIDTH 14 0
BBX 9 22 3 0
BITMAP
3E00
7700
C300
0000
FF80
FF80
FF80
1C00
1C00
1C00
1C00
1C00
1C00
1C00
1C00
1C00
1C00
1C00
1C00
FF80
FF80
FF80
ENDCHAR
STARTCHAR uni020B
ENCODING 523
SWIDTH 602 0
DWIDTH 14 0
BBX 11 19 2 0
BITMAP
1E00
3F00
7180
6180
0000
0000
7E00
7E00
7E00
0E00
0E00
0E00
0E00
0E00
0E00
0E00
FFE0
FFE0
FFE0
ENDCHAR
STARTCHAR uni020C
ENCODING 524
SWIDTH 602 0
DWIDTH 14 0
BBX 12 22 1 0
BITMAP
7780
3980
1CC0
0000
0F00
3FC0
7FE0
70E0
70E0
E070
E070
E070
E070
E070
E070
E070
E070
70E0
70E0
7FE0
3FC0
0F00
ENDCHAR
STARTCHAR uni020D
ENCODING 525
SWIDTH 602 0
DWIDTH 14 0
BBX 12 19 1 0
BITMAP
7300
3380
1980
18C0
0000
0000
1F80
3FC0
7FE0
F0E0
E070
E070
E070
E070
E070
70E0
7FE0
3FC0
1F80
ENDCHAR
STARTCHAR uni020E
ENCODING 526
SWIDTH 602 0
DWIDTH 14 0
BBX 12 22 1 0
BITMAP
0F80
1DC0
30C0
0000
0F00
3FC0
7FE0
70E0
70E0
E070
E070
E070
E070
E070
E070
E070
E070
70E0
70E0
7FE0
3FC0
0F00
ENDCHAR
STARTCHAR uni020F
ENCODING 527
SWIDTH 602 0
DWIDTH 14 0
BBX 12 19 1 0
BITMAP
0F00
1F80
38C0
30C0
0000
0000
1F80
3FC0
7FE0
F0E0
E070
E070
E070
E070
E070
70E0
7FE0
3FC0
1F80
ENDCHAR
STARTCHAR uni0210
ENCODING 528
SWIDTH 602 0
DWIDTH 14 0
BBX 14 22 1 0
BITMAP
F700
3380
19C0
0000
7F80
7FE0
7FE0
70F0
7070
7070
7070
70F0
7FE0
7F80
7FC0
71E0
71E0
70F0
70F0
7078
7078
703C
ENDCHAR
STARTCHAR uni0211
ENCODING 529
SWIDTH 602 0
DWIDTH 14 0
BBX 10 19 3 0
BITMAP
E600
7700
3300
1980
0000
0000
E780
EFC0
FFC0
F840
F000
E000
E000
E000
E000
E000
E000
E000
E000
ENDCHAR
STARTCHAR uni0212
ENCODING 530
SWIDTH 602 0
DWIDTH 14 0
BBX 13 22 2 0
BITMAP
3E00
7700
6180
0000
FF00
FFC0
FFC0
E1E0
E0E0
E0E0
E0E0
E1E0
FFC0
FF00
FF80
E3C0
E3C0
E1E0
E1E0
E0F0
E0F0
E078
ENDCHAR
STARTCHAR uni0213
ENCODING 531
SWIDTH 602 0
DWIDTH 14 0
BBX 10 19 3 0
BITMAP
1E00
3F80
3180
6080
0000
0000
E780
EFC0
FFC0
F840
F000
E000
E000
E000
E000
E000
E000
E000
E000
ENDCHAR
STARTCHAR uni0214
ENCODING 532
SWIDTH 602 0
DWIDTH 14 0
BBX 11 22 1 0
BITMAP
7780
3980
1CC0
0000
E0E0
E0E0
E0E0
E0E0
E0E0
E0E0
E0E0
E0E0
E0E0
E0E0
E0E0
E0E0
E0E0
E0E0
F1E0
7FC0
7FC0
1F00
ENDCHAR
STARTCHAR uni0215
ENCODING 533
SWIDTH 602 0
DWIDTH 14 0
BBX 11 19 2 0
BITMAP
E600
6700
3300
3180
0000
0000
E0E0
E0E0
E0E0
E0E0
E0E0
E0E0
E0E0
E0E0
E0E0
F1E0
FFE0
7FE0
3CE0
ENDCHAR
STARTCHAR uni0216
ENCODING 534
SWIDTH 602 0
DWIDTH 14 0
BBX 11 22 1 0
BITMAP
0F80
1DC0
30C0
0000
E0E0
E0E0
E0E0
E0E0
E0E0
E0E0
E0E0
E0E0
E0E0
E0E0
E0E0
E0E0
E0E0
E0E0
F1E0
7FC0
7FC0
1F00
ENDCHAR
STARTCHAR uni0217
ENCODING 535
SWIDTH 602 0
DWIDTH 14 0
BBX 11 19 2 0
BITMAP
1E00
3F00
7180
6180
0000
0000
E0E0
E0E0
E0E0
E0E0
E0E0
E0E0
E0E0
E0E0
E0E0
F1E0
FFE0
7FE0
3CE0
ENDCHAR
STARTCHAR Scommaaccent
ENCODING 536
SWIDTH 602 0
DWIDTH 14 0
BBX 11 24 2 -6
BITMAP
1F80
7FC0
7FC0
F0C0
E040
E000
F000
7E00
7F80
1FC0
07E0
01E0
00E0
80E0
E1E0
FFC0
FFC0
7F00
0000
0000
1C00
1800
3800
3000
ENDCHAR
STARTCHAR scommaaccent
ENCODING 537
SWIDTH 602 0
DWIDTH 14 0
BBX 11 19 2 -6
BITMAP
3F80
7FC0
FFC0
E040
F800
FF80
7FC0
0FE0
00E0
C0E0
FFE0
FFC0
3F80
0000
0000
1C00
1800
3800
3000
ENDCHAR
STARTCHAR uni021A
ENCODING 538
SWIDTH 602 0
DWIDTH 14 0
BBX 11 24 2 -6
BITMAP
FFE0
FFE0
FFE0
0E00
0E00
0E00
0E00
0E00
0E00
0E00
0E00
0E00
0E00
0E00
0E00
0E00
0E00
0E00
0000
0000
1C00
1800
3800
3000
ENDCHAR
STARTCHAR uni021B
ENCODING 539
SWIDTH 602 0
DWIDTH 14 0
BBX 10 23 2 -6
BITMAP
1C00
1C00
1C00
1C00
FFC0
FFC0
FFC0
1C00
1C00
1C00
1C00
1C00
1C00
1C00
1FC0
0FC0
07C0
0000
0000
0E00
0E00
0C00
1C00
ENDCHAR
STARTCHAR uni021C
ENCODING 540
SWIDTH 602 0
DWIDTH 14 0
BBX 13 23 1 -5
BITMAP
0F00
7FE0
FFE0
F3F0
80F0
00F0
00F0
01F0
03E0
0FC0
3FC0
3FF0
31F0
00F8
00F8
00F8
01F0
03F0
1FE0
7F80
FE00
F800
C000
ENDCHAR
STARTCHAR uni021D
ENCODING 541
SWIDTH 602 0
DWIDTH 14 0
BBX 12 18 1 -5
BITMAP
3FC0
7FE0
61F0
00F0
00F0
01E0
03C0
1F80
3FE0
31F0
00F0
00F0
01F0
03E0
1FC0
FF80
FC00
E000
ENDCHAR
STARTCHAR uni021E
ENCODING 542
SWIDTH 602 0
DWIDTH 14 0
BBX 11 22 2 0
BITMAP
71C0
3B80
1F00
0000
E0E0
E0E0
E0E0
E0E0
E0E0
E0E0
E0E0
FFE0
FFE0
FFE0
E0E0
E0E0
E0E0
E0E0
E0E0
E0E0
E0E0
E0E0
ENDCHAR
STARTCHAR uni021F
ENCODING 543
SWIDTH 602 0
DWIDTH 14 0
BBX 11 22 2 0
BITMAP
71C0
3B80
1F00
0000
E000
E000
E000
E000
E000
E780
FFC0
FFE0
F1E0
E0E0
E0E0
E0E0
E0E0
E0E0
E0E0
E0E0
E0E0
E0E0
ENDCHAR
STARTCHAR uni0220
ENCODING 544
SWIDTH 602 0
DWIDTH 14 0
BBX 12 23 1 -5
BITMAP
F380
F7E0
FFE0
F8F0
F0F0
F070
F070
F070
F070
F070
F070
F070
F070
F070
F070
F070
F070
F070
0070
0070
0070
0070
0070
ENDCHAR
STARTCHAR uni0221
ENCODING 545
SWIDTH 602 0
DWIDTH 14 0
BBX 14 20 0 -2
BITMAP
01C0
01C0
01C0
01C0
01C0
3DC0
7FC0
7FC0
F3C0
F3C0
F1C0
F1DC
F3DC
F3FC
F3F4
7FFC
7FFC
3CF8
00C0
00C0
ENDCHAR
STARTCHAR uni0224
ENCODING 548
SWIDTH 602 0
DWIDTH 14 0
BBX 13 23 1 -5
BITMAP
7FF0
7FF0
7FF0
7FF0
00F0
01E0
03C0
03C0
0780
0F00
1E00
1E00
3C00
7800
7800
FFF8
FFF8
FFF8
0078
0070
01F0
01F0
01E0
ENDCHAR
STARTCHAR uni0225
ENCODING 549
SWIDTH 602 0
DWIDTH 14 0
BBX 11 18 2 -5
BITMAP
FFE0
FFE0
01E0
03C0
0780
0F00
1E00
3C00
7800
7800
FFE0
FFE0
FFE0
01E0
01E0
07C0
07C0
0700
ENDCHAR
STARTCHAR uni0226
ENCODING 550
SWIDTH 602 0
DWIDTH 14 0
BBX 14 22 0 0
BITMAP
0380
0380
0380
0000
0780
0FC0
0FC0
0FC0
0FC0
1CE0
1CE0
1CE0
1CE0
3CF0
3870
3FF0
7FF8
7FF8
7038
7038
F03C
F03C
ENDCHAR
STARTCHAR uni0227
ENCODING 551
SWIDTH 602 0
DWIDTH 14 0
BBX 12 19 1 0
BITMAP
0700
0700
0700
0000
0000
0000
3F80
7FE0
7FE0
60F0
0070
3FF0
7FF0
FFF0
E070
E0F0
FFF0
7FF0
3E70
ENDCHAR
STARTCHAR uni0228
ENCODING 552
SWIDTH 602 0
DWIDTH 14 0
BBX 11 23 2 -5
BITMAP
FFE0
FFE0
FFE0
E000
E000
E000
E000
FFC0
FFC0
FFC0
E000
E000
E000
E000
E000
FFE0
FFE0
FFE0
0300
0300
0380
0F00
0F00
ENDCHAR
STARTCHAR uni0229
ENCODING 553
SWIDTH 602 0
DWIDTH 14 0
BBX 12 18 1 -5
BITMAP
1F80
3FC0
7FE0
70F0
E070
FFF0
FFF0
FFF0
E000
F020
7FE0
3FE0
1FC0
0180
0180
01C0
0780
0780
ENDCHAR
STARTCHAR uni022A
ENCODING 554
SWIDTH 602 0
DWIDTH 14 0
BBX 12 23 1 0
BITMAP
1FC0
1FC0
1CE0
1CE0
1CE0
0F00
3FC0
7FE0
70E0
70E0
E070
E070
E070
E070
E070
E070
E070
E070
70E0
70E0
7FE0
3FC0
0F00
ENDCHAR
STARTCHAR uni022B
ENCODING 555
SWIDTH 602 0
DWIDTH 14 0
BBX 12 22 1 0
BITMAP
1FC0
1FC0
0000
39C0
39C0
39C0
0000
0000
0000
1F80
3FC0
7FE0
F0E0
E070
E070
E070
E070
E070
70E0
7FE0
3FC0
1F80
ENDCHAR
STARTCHAR uni022C
ENCODING 556
SWIDTH 602 0
DWIDTH 14 0
BBX 12 23 1 0
BITMAP
1FC0
1FC0
1CC0
3FC0
3380
0F00
3FC0
7FE0
70E0
70E0
E070
E070
E070
E070
E070
E070
E070
E070
70E0
70E0
7FE0
3FC0
0F00
ENDCHAR
STARTCHAR uni022D
ENCODING 557
SWIDTH 602 0
DWIDTH 14 0
BBX 12 22 1 0
BITMAP
1FC0
1FC0
0000
1CC0
3EC0
37C0
3380
0000
0000
1F80
3FC0
7FE0
F0E0
E070
E070
E070
E070
E070
70E0
7FE0
3FC0
1F80
ENDCHAR
STARTCHAR uni022E
ENCODING 558
SWIDTH 602 0
DWIDTH 14 0
BBX 12 22 1 0
BITMAP
0700
0700
0700
0000
0F00
3FC0
7FE0
70E0
70E0
E070
E070
E070
E070
E070
E070
E070
E070
70E0
70E0
7FE0
3FC0
0F00
ENDCHAR
STARTCHAR uni022F
ENCODING 559
SWIDTH 602 0
DWIDTH 14 0
BBX 12 19 1 0
BITMAP
0700
0700
0700
0000
0000
0000
1F80
3FC0
7FE0
F0E0
E070
E070
E070
E070
E070
70E0
7FE0
3FC0
1F80
ENDCHAR
STARTCHAR uni0230
ENCODING 560
SWIDTH 602 0
DWIDTH 14 0
BBX 12 23 1 0
BITMAP
1FC0
1FC0
0700
0700
0700
0F00
3FC0
7FE0
70E0
70E0
E070
E070
E070
E070
E070
E070
E070
E070
70E0
70E0
7FE0
3FC0
0F00
ENDCHAR
STARTCHAR uni0231
ENCODING 561
SWIDTH 602 0
DWIDTH 14 0
BBX 12 22 1 0
BITMAP
1FC0
1FC0
0000
0700
0700
0700
0000
0000
0000
1F80
3FC0
7FE0
F0E0
E070
E070
E070
E070
E070
70E0
7FE0
3FC0
1F80
ENDCHAR
STARTCHAR uni0232
ENCODING 562
SWIDTH 602 0
DWIDTH 14 0
BBX 13 22 1 0
BITMAP
1FC0
1FC0
0000
0000
F078
7070
78F0
38E0
3DE0
1DC0
1DC0
1FC0
0F80
0F80
0700
0700
0700
0700
0700
0700
0700
0700
ENDCHAR
STARTCHAR uni0233
ENCODING 563
SWIDTH 602 0
DWIDTH 14 0
BBX 12 23 1 -5
BITMAP
1FC0
1FC0
0000
0000
0000
F0F0
70E0
70E0
79E0
39C0
39C0
3DC0
1F80
1F80
0F80
0F00
0F00
0F00
0E00
1E00
7E00
7C00
7800
ENDCHAR
STARTCHAR uni0234
ENCODING 564
SWIDTH 602 0
DWIDTH 14 0
BBX 13 20 1 -2
BITMAP
FC00
FC00
1C00
1C00
1C00
1C00
1C00
1C00
1C00
1C00
1C00
1C30
1C78
1C78
1EC8
1FF8
0FF8
07F0
0180
0300
ENDCHAR
STARTCHAR uni0235
ENCODING 565
SWIDTH 602 0
DWIDTH 14 0
BBX 14 15 0 -2
BITMAP
FF00
FF80
FB80
F380
F3C0
F3C0
F3C8
F3DC
F3DC
F3F4
F3FC
F1FC
F1F8
0060
0040
ENDCHAR
STARTCHAR uni0236
ENCODING 566
SWIDTH 602 0
DWIDTH 14 0
BBX 12 19 1 -2
BITMAP
0E00
0E00
0E00
0E00
FFF0
FFF0
FFF0
0E00
0E00
0E00
0E60
0E60
0EE0
0EA0
0FA0
0FE0
07E0
0100
0300
ENDCHAR
STARTCHAR dotlessj
ENCODING 567
SWIDTH 602 0
DWIDTH 14 0
BBX 8 18 2 -5
BITMAP
3F
3F
3F
07
07
07
07
07
07
07
07
07
07
07
0F
FF
FE
FC
ENDCHAR
STARTCHAR uni0238
ENCODING 568
SWIDTH 602 0
DWIDTH 14 0
BBX 14 18 0 0
BITMAP
0300
0300
0300
0300
0300
3B78
7F78
77FC
E39C
E38C
E30C
E30C
E30C
E38C
639C
7FFC
7F78
3B78
ENDCHAR
STARTCHAR uni0239
ENCODING 569
SWIDTH 602 0
DWIDTH 14 0
BBX 14 18 0 -5
BITMAP
3B78
7F78
77FC
E39C
E38C
E30C
E30C
E30C
E38C
639C
7FFC
7F78
3B78
0300
0300
0300
0300
0300
ENDCHAR
STARTCHAR uni023A
ENCODING 570
SWIDTH 602 0
DWIDTH 14 0
BBX 14 19 0 -1
BITMAP
078C
07DC
07F8
0FF8
0FF0
0EE0
1EE0
1DE0
1FF0
1F70
3F70
3FF0
3FF8
3FF8
7838
7038
703C
F03C
4000
ENDCHAR
STARTCHAR uni023B
ENCODING 571
SWIDTH 602 0
DWIDTH 14 0
BBX 14 19 0 -1
BITMAP
01EC
07FC
0FF8
1F38
1E78
3CE0
3CC0
39C0
3B80
3B00
3F00
3E00
3C00
3C00
3E08
7FF8
6FF8
E7F8
4000
ENDCHAR
STARTCHAR uni023C
ENCODING 572
SWIDTH 602 0
DWIDTH 14 0
BBX 13 15 1 -1
BITMAP
0018
0FF8
1FF0
3EE0
79C0
7B80
7B00
7700
7E00
7C00
7800
7FE0
7FE0
EFE0
C000
ENDCHAR
STARTCHAR uni023D
ENCODING 573
SWIDTH 602 0
DWIDTH 14 0
BBX 14 18 0 0
BITMAP
1E00
1E00
1E00
1E00
1E00
1E00
1E00
1E00
1E00
FFC0
FFC0
FFC0
1E00
1E00
1E00
1FFC
1FFC
1FFC
ENDCHAR
STARTCHAR uni023E
ENCODING 574
SWIDTH 602 0
DWIDTH 14 0
BBX 14 18 0 0
BITMAP
7FFC
7FFC
7FFC
7FF8
07F0
07E0
07E0
07C0
0780
0780
0780
0F80
0F80
1F80
3F80
7780
7780
E780
ENDCHAR
STARTCHAR uni023F
ENCODING 575
SWIDTH 602 0
DWIDTH 14 0
BBX 11 19 2 -6
BITMAP
3FC0
7FC0
F0C0
E000
F800
FF00
7FC0
0FC0
01C0
01E0
E1C0
FFC0
FF80
7800
3C00
1C00
0FC0
07C0
01C0
ENDCHAR
STARTCHAR uni0240
ENCODING 576
SWIDTH 602 0
DWIDTH 14 0
BBX 11 19 2 -6
BITMAP
FFE0
FFE0
01E0
03C0
0780
0F00
1E00
3C00
7800
7800
F000
E000
F000
7800
3C00
1C00
0FE0
07E0
01E0
ENDCHAR
STARTCHAR uni0241
ENCODING 577
SWIDTH 602 0
DWIDTH 14 0
BBX 14 18 0 0
BITMAP
0100
7FF0
7FF8
FFFC
E03C
E03C
003C
003C
007C
0FF8
0FF0
0FC0
0E00
0E00
0E00
0E00
0E00
0E00
ENDCHAR
STARTCHAR uni0243
ENCODING 579
SWIDTH 602 0
DWIDTH 14 0
BBX 14 18 0 0
BITMAP
7F00
7FE0
7FF0
78F8
7878
7878
7878
7FF0
7FC0
7FF0
7878
FF38
FF3C
FF3C
7838
7FF8
7FF0
7FE0
ENDCHAR
STARTCHAR uni0244
ENCODING 580
SWIDTH 602 0
DWIDTH 14 0
BBX 14 18 0 0
BITMAP
7838
7838
7838
7838
7838
7838
7838
7838
7838
FFFC
FFFC
FFFC
7838
7838
3878
3FF8
3FF0
0FE0
ENDCHAR
STARTCHAR uni0245
ENCODING 581
SWIDTH 602 0
DWIDTH 14 0
BBX 13 18 1 0
BITMAP
0F80
0F80
1F80
1F80
1FC0
1DC0
3DC0
39C0
39E0
38E0
78E0
78E0
70E0
70F0
F070
F070
E070
E078
ENDCHAR
STARTCHAR uni024C
ENCODING 588
SWIDTH 602 0
DWIDTH 14 0
BBX 14 18 0 0
BITMAP
3E00
3FE0
3FF0
3DF8
3C78
3C78
3C78
3C78
FFF0
FFE0
FFE0
3DE0
3CF0
3C70
3C78
3C78
3C3C
3C3C
ENDCHAR
STARTCHAR uni024D
ENCODING 589
SWIDTH 602 0
DWIDTH 14 0
BBX 11 13 2 0
BITMAP
7BE0
7FE0
7F60
7C00
7800
7800
FF80
FF80
7800
7800
7800
7800
7800
ENDCHAR
STARTCHAR uni0250
ENCODING 592
SWIDTH 602 0
DWIDTH 14 0
BBX 12 13 1 0
BITMAP
F7E0
FFF0
F8F0
F0F0
F0F0
F0F0
FFF0
FFE0
FC00
F000
78E0
7FE0
3FE0
ENDCHAR
STARTCHAR uni0251
ENCODING 593
SWIDTH 602 0
DWIDTH 14 0
BBX 12 13 1 0
BITMAP
3F70
3F70
7FF0
70F0
70F0
F070
F070
F070
70F0
78F0
7FF0
3F70
1F70
ENDCHAR
STARTCHAR uni0252
ENCODING 594
SWIDTH 602 0
DWIDTH 14 0
BBX 12 13 1 0
BITMAP
F7C0
FFE0
FDE0
F0F0
F0F0
F070
F070
F070
F0F0
F8F0
FFE0
FFE0
F7C0
ENDCHAR
STARTCHAR uni0253
ENCODING 595
SWIDTH 602 0
DWIDTH 14 0
BBX 12 18 1 0
BITMAP
3F00
7F00
FF00
F000
E000
E780
FFC0
FFE0
F0F0
E070
E070
E070
E070
E070
F0F0
FFE0
FFC0
E780
ENDCHAR
STARTCHAR uni0254
ENCODING 596
SWIDTH 602 0
DWIDTH 14 0
BBX 11 13 2 0
BITMAP
7E00
FF80
FFC0
83C0
01E0
00E0
00E0
00E0
01E0
83C0
FFC0
FF80
7E00
ENDCHAR
STARTCHAR uni0255
ENCODING 597
SWIDTH 602 0
DWIDTH 14 0
BBX 11 15 2 -2
BITMAP
1FC0
3FC0
7CC0
F000
F000
E000
E000
E7C0
FFC0
FC60
7EE0
3FC0
1FC0
1C00
1C00
ENDCHAR
STARTCHAR uni0256
ENCODING 598
SWIDTH 602 0
DWIDTH 14 0
BBX 12 22 1 -4
BITMAP
01E0
01E0
01E0
01E0
01E0
3DE0
7FE0
FFE0
F1E0
E1E0
E1E0
E1E0
E1E0
E1E0
F1E0
7FE0
7FE0
3DE0
01E0
01F0
00F0
0070
ENDCHAR
STARTCHAR uni0257
ENCODING 599
SWIDTH 602 0
DWIDTH 14 0
BBX 12 18 1 0
BITMAP
00F0
00F0
01E0
01E0
01E0
3DE0
7FE0
FFE0
F1E0
E1E0
E1E0
E1E0
E1E0
E1E0
F1E0
FFE0
7FE0
3DE0
ENDCHAR
STARTCHAR uni0258
ENCODING 600
SWIDTH 602 0
DWIDTH 14 0
BBX 12 13 1 0
BITMAP
1FC0
7FE0
79F0
F0F0
F070
FFF0
FFF0
FFF0
0070
00F0
73E0
7FE0
7F80
ENDCHAR
STARTCHAR uni0259
ENCODING 601
SWIDTH 602 0
DWIDTH 14 0
BBX 12 13 1 0
BITMAP
1F80
3FC0
7FE0
60F0
4070
FFF0
FFF0
FFF0
E070
F0E0
7FE0
3FC0
1F80
ENDCHAR
STARTCHAR uni025A
ENCODING 602
SWIDTH 602 0
DWIDTH 14 0
BBX 14 13 0 0
BITMAP
7F18
FFB8
F7F8
81F8
03D8
07D8
1FDC
3DCC
79C0
E1C0
7FC0
7F80
3F00
ENDCHAR
STARTCHAR uni025B
ENCODING 603
SWIDTH 602 0
DWIDTH 14 0
BBX 10 13 2 0
BITMAP
3F80
7F80
FF80
E000
E000
7E00
1E00
7E00
E000
E000
FFC0
7FC0
3FC0
ENDCHAR
STARTCHAR uni025C
ENCODING 604
SWIDTH 602 0
DWIDTH 14 0
BBX 12 13 1 0
BITMAP
0FC0
3FE0
7FF0
7070
4070
1FE0
1F80
1FE0
8070
E070
FFF0
7FE0
3F80
ENDCHAR
STARTCHAR uni025D
ENCODING 605
SWIDTH 602 0
DWIDTH 14 0
BBX 13 13 1 0
BITMAP
FE30
FF70
CFF0
07F0
07B0
3E30
3E38
3F18
0700
0780
CF80
FF00
FE00
ENDCHAR
STARTCHAR uni025E
ENCODING 606
SWIDTH 602 0
DWIDTH 14 0
BBX 12 14 1 -1
BITMAP
1FE0
3FF0
78F0
7070
F070
F7E0
E780
F7E0
7070
7070
78F0
3FF0
1FE0
0200
ENDCHAR
STARTCHAR uni025F
ENCODING 607
SWIDTH 602 0
DWIDTH 14 0
BBX 10 18 2 -5
BITMAP
7F00
7F00
7F00
0700
0700
0700
7FC0
7FC0
0700
0700
0700
0700
0700
0F00
0F00
FF00
FE00
FC00
ENDCHAR
STARTCHAR uni0260
ENCODING 608
SWIDTH 602 0
DWIDTH 14 0
BBX 14 23 0 -5
BITMAP
003C
007C
00FC
00F0
00F0
1FE0
3FE0
7FE0
70E0
F0E0
F0E0
F0E0
F0E0
F0E0
79E0
7FE0
3FE0
1CE0
00E0
41E0
7FE0
7FC0
3F00
ENDCHAR
STARTCHAR uni0261
ENCODING 609
SWIDTH 602 0
DWIDTH 14 0
BBX 12 18 1 -5
BITMAP
1FF0
3FF0
7FF0
7870
7070
F070
F070
70F0
70F0
79F0
7FF0
3F70
1EF0
00F0
00F0
3FE0
3FC0
1F80
ENDCHAR
STARTCHAR uni0262
ENCODING 610
SWIDTH 602 0
DWIDTH 14 0
BBX 11 13 2 0
BITMAP
1FC0
3FC0
7DC0
F000
E000
E000
E7E0
E7E0
E0E0
F0E0
7FE0
3FE0
1F80
ENDCHAR
STARTCHAR uni0263
ENCODING 611
SWIDTH 602 0
DWIDTH 14 0
BBX 11 18 2 -5
BITMAP
E1E0
F3C0
7BC0
3F80
3F00
1F00
1F00
3F00
3F80
7B80
7380
71C0
E1C0
E1C0
E1C0
FFC0
7FC0
3F00
ENDCHAR
STARTCHAR uni0264
ENCODING 612
SWIDTH 602 0
DWIDTH 14 0
BBX 11 14 2 -1
BITMAP
E1E0
F1C0
73C0
7F80
3F00
1F00
1E00
3F00
3F00
3B80
7B80
7F80
7F80
3F00
ENDCHAR
STARTCHAR uni0265
ENCODING 613
SWIDTH 602 0
DWIDTH 14 0
BBX 11 18 2 -5
BITMAP
E1E0
E1E0
E1E0
E1E0
E1E0
E1E0
E1E0
E1E0
E1E0
F1E0
FFE0
7FE0
7DE0
01E0
01E0
01E0
01E0
01E0
ENDCHAR
STARTCHAR uni0266
ENCODING 614
SWIDTH 602 0
DWIDTH 14 0
BBX 11 18 2 0
BITMAP
3C00
7C00
F800
F000
E000
EF80
FFC0
FBC0
F1C0
E1E0
E1E0
E1E0
E1E0
E1E0
E1E0
E1E0
E1E0
E1E0
ENDCHAR
STARTCHAR uni0267
ENCODING 615
SWIDTH 602 0
DWIDTH 14 0
BBX 11 23 2 -5
BITMAP
3C00
7C00
F800
F000
E000
EF80
FFC0
FBC0
F1C0
E1E0
E1E0
E1E0
E1E0
E1E0
E1E0
E1E0
E1E0
E1E0
01C0
01C0
0FC0
0FC0
0F00
ENDCHAR
STARTCHAR uni0268
ENCODING 616
SWIDTH 602 0
DWIDTH 14 0
BBX 12 18 1 0
BITMAP
0F00
0F00
0F00
0000
0000
7F00
7F00
7F00
0700
0700
0700
7FC0
7FC0
0700
0700
FFF0
FFF0
FFF0
ENDCHAR
STARTCHAR uni0269
ENCODING 617
SWIDTH 602 0
DWIDTH 14 0
BBX 11 13 2 0
BITMAP
FC00
FC00
FC00
1C00
1C00
1C00
1C00
1C00
1E00
1E00
0FE0
0FE0
03E0
ENDCHAR
STARTCHAR uni026A
ENCODING 618
SWIDTH 602 0
DWIDTH 14 0
BBX 12 13 1 0
BITMAP
FFF0
FFF0
FFF0
0700
0700
0700
0700
0700
0700
0700
FFF0
FFF0
FFF0
ENDCHAR
STARTCHAR uni026B
ENCODING 619
SWIDTH 602 0
DWIDTH 14 0
BBX 12 18 1 0
BITMAP
7F00
7F00
0F00
0F00
0F00
0F00
0F00
0F00
0F00
7F10
FFF0
CFF0
0F80
0F00
0F00
07F0
07F0
03F0
ENDCHAR
STARTCHAR uni026C
ENCODING 620
SWIDTH 602 0
DWIDTH 14 0
BBX 12 18 1 0
BITMAP
FE00
FE00
0E00
0E00
0E00
0E00
7E00
FE00
CE00
FFC0
7FC0
0E00
0E00
0E00
0F00
0FF0
07F0
03F0
ENDCHAR
STARTCHAR uni026D
ENCODING 621
SWIDTH 602 0
DWIDTH 14 0
BBX 12 23 1 -5
BITMAP
FE00
FE00
0E00
0E00
0E00
0E00
0E00
0E00
0E00
0E00
0E00
0E00
0E00
0E00
0E00
0E00
0E00
0E00
0E00
0F00
0F80
07F0
07F0
ENDCHAR
STARTCHAR uni026E
ENCODING 622
SWIDTH 602 0
DWIDTH 14 0
BBX 14 23 0 -5
BITMAP
FC00
FC00
1C00
1C00
1C00
1FF8
1FF8
1C38
1C38
1C70
1CE0
1CE0
1DC0
1DF0
1DF8
1FBC
0F9C
0F9C
001C
043C
07FC
07F8
03F0
ENDCHAR
STARTCHAR uni026F
ENCODING 623
SWIDTH 602 0
DWIDTH 14 0
BBX 13 13 1 0
BITMAP
E738
E738
E738
E738
E738
E738
E738
E738
E738
E738
EF78
FFF8
7BB8
ENDCHAR
STARTCHAR uni0270
ENCODING 624
SWIDTH 602 0
DWIDTH 14 0
BBX 13 18 1 -5
BITMAP
E738
E738
E738
E738
E738
E738
E738
E738
E738
E738
EF78
FFF8
7BB8
0038
0038
0038
0038
0038
ENDCHAR
STARTCHAR uni0271
ENCODING 625
SWIDTH 602 0
DWIDTH 14 0
BBX 13 18 1 -5
BITMAP
DFF0
FFF0
EF70
E730
E730
E738
E738
E738
E738
E738
E738
E738
E738
0038
0070
00F0
00F0
00E0
ENDCHAR
STARTCHAR uni0272
ENCODING 626
SWIDTH 602 0
DWIDTH 14 0
BBX 13 18 1 -5
BITMAP
3BE0
3FF0
3FF0
3C78
3C78
3878
3878
3878
3878
3878
3878
3878
3878
3800
3800
F800
F000
E000
ENDCHAR
STARTCHAR uni0273
ENCODING 627
SWIDTH 602 0
DWIDTH 14 0
BBX 13 18 1 -5
BITMAP
EF80
FFC0
FFC0
F1E0
F1E0
E1E0
E1E0
E1E0
E1E0
E1E0
E1E0
E1E0
E1E0
01E0
01E0
00F8
00F8
0078
ENDCHAR
STARTCHAR uni0274
ENCODING 628
SWIDTH 602 0
DWIDTH 14 0
BBX 12 13 1 0
BITMAP
F8F0
FCF0
FCF0
FCF0
FEF0
FEF0
F7F0
F7F0
F3F0
F3F0
F3F0
F1F0
F1F0
ENDCHAR
STARTCHAR uni0275
ENCODING 629
SWIDTH 602 0
DWIDTH 14 0
BBX 12 13 1 0
BITMAP
1FC0
3FE0
7DE0
70F0
F070
F070
FFF0
FFF0
F070
70F0
7FE0
3FE0
1F80
ENDCHAR
STARTCHAR uni0276
ENCODING 630
SWIDTH 602 0
DWIDTH 14 0
BBX 13 13 1 0
BITMAP
1FF0
7FF0
7B80
E380
E380
E3F0
E3F0
E380
E380
E380
7FF8
7FF8
1FF8
ENDCHAR
STARTCHAR uni0277
ENCODING 631
SWIDTH 602 0
DWIDTH 14 0
BBX 12 14 1 0
BITMAP
0F00
3FC0
7FE0
79F0
F0F0
F0F0
F0F0
F670
F6F0
F6F0
F7F0
FFF0
7DF0
38E0
ENDCHAR
STARTCHAR uni0278
ENCODING 632
SWIDTH 602 0
DWIDTH 14 0
BBX 14 23 0 -5
BITMAP
3FF0
3FF0
0380
0380
0380
1FE0
3FF0
7FF8
7BBC
F3BC
F39C
F39C
F3BC
F3BC
7BBC
7FF8
3FF0
1FE0
0380
0380
3FF0
3FF0
3FF0
ENDCHAR
STARTCHAR uni0279
ENCODING 633
SWIDTH 602 0
DWIDTH 14 0
BBX 10 13 2 0
BITMAP
01C0
01C0
01C0
01C0
01C0
01C0
01C0
01C0
01C0
03C0
FFC0
FFC0
FDC0
ENDCHAR
STARTCHAR uni027A
ENCODING 634
SWIDTH 602 0
DWIDTH 14 0
BBX 10 18 2 0
BITMAP
01C0
01C0
01C0
01C0
01C0
01C0
01C0
01C0
01C0
01C0
01C0
01C0
01C0
01C0
03C0
FFC0
FFC0
FDC0
ENDCHAR
STARTCHAR uni027B
ENCODING 635
SWIDTH 602 0
DWIDTH 14 0
BBX 13 18 1 -5
BITMAP
01C0
01C0
01C0
01C0
01C0
01C0
01C0
03C0
03C0
03C0
FFC0
FDC0
F9C0
01C0
01C0
01F8
01F8
0078
ENDCHAR
STARTCHAR uni027C
ENCODING 636
SWIDTH 602 0
DWIDTH 14 0
BBX 10 18 2 -5
BITMAP
F7C0
FFC0
FFC0
F000
F000
F000
F000
F000
F000
F000
F000
F000
F000
F000
F000
F000
F000
F000
ENDCHAR
STARTCHAR uni027D
ENCODING 637
SWIDTH 602 0
DWIDTH 14 0
BBX 10 18 2 -5
BITMAP
F7C0
FFC0
FFC0
F000
F000
F000
F000
F000
F000
F000
F000
F000
F000
F000
F000
7C00
7C00
3C00
ENDCHAR
STARTCHAR uni027E
ENCODING 638
SWIDTH 602 0
DWIDTH 14 0
BBX 11 13 2 0
BITMAP
0FE0
1FE0
1FE0
1C00
1C00
1C00
1C00
1C00
1C00
1C00
FFE0
FFE0
FFE0
ENDCHAR
STARTCHAR uni027F
ENCODING 639
SWIDTH 602 0
DWIDTH 14 0
BBX 11 13 2 0
BITMAP
FC00
FE00
FE00
0E00
0F00
0F00
0F00
0F00
0F00
0F00
FFE0
FFE0
FFE0
ENDCHAR
STARTCHAR uni0280
ENCODING 640
SWIDTH 602 0
DWIDTH 14 0
BBX 12 13 1 0
BITMAP
FF80
FFC0
FFC0
F1C0
F1C0
FFC0
FF80
FF80
F780
F3C0
F1E0
F1E0
F0F0
ENDCHAR
STARTCHAR uni0281
ENCODING 641
SWIDTH 602 0
DWIDTH 14 0
BBX 12 13 1 0
BITMAP
F0F0
F0F0
F1E0
F3E0
F7C0
FF80
FF80
F3C0
F1E0
F1E0
FFE0
FFC0
FF80
ENDCHAR
STARTCHAR uni0282
ENCODING 642
SWIDTH 602 0
DWIDTH 14 0
BBX 10 18 2 -5
BITMAP
3FC0
7FC0
F0C0
E000
F000
FF00
7FC0
0FC0
01C0
01C0
E1C0
FFC0
FF80
F000
F000
7C00
7C00
3C00
ENDCHAR
STARTCHAR uni0283
ENCODING 643
SWIDTH 602 0
DWIDTH 14 0
BBX 12 23 1 -5
BITMAP
03F0
07F0
0780
0700
0700
0700
0700
0700
0700
0700
0700
0700
0700
0700
0700
0700
0700
0700
0700
0700
FF00
FE00
FC00
ENDCHAR
STARTCHAR uni0284
ENCODING 644
SWIDTH 602 0
DWIDTH 14 0
BBX 12 23 1 -5
BITMAP
03F0
07F0
0780
0700
0700
7F00
7F00
7F00
0700
0700
0700
3FE0
3FE0
0700
0700
0700
0700
0700
0700
0700
FF00
FE00
FC00
ENDCHAR
STARTCHAR uni0285
ENCODING 645
SWIDTH 602 0
DWIDTH 14 0
BBX 12 23 1 -5
BITMAP
FC00
FE00
1E00
0F00
0F00
0F00
0F00
0F00
0F00
0F00
0F00
0F00
0F00
0F00
0F00
0F00
0F00
0F00
0F00
0F00
0FF0
07F0
03F0
ENDCHAR
STARTCHAR uni0286
ENCODING 646
SWIDTH 602 0
DWIDTH 14 0
BBX 12 23 1 -5
BITMAP
03F0
07F0
0780
0700
0700
0700
0700
0700
0700
0700
0700
0700
0700
0700
0700
0700
3FF0
FFF0
FFF0
C700
FF00
FE00
7C00
ENDCHAR
STARTCHAR uni0287
ENCODING 647
SWIDTH 602 0
DWIDTH 14 0
BBX 11 17 2 -4
BITMAP
FC00
FE00
FE00
0E00
0F00
0F00
0F00
0F00
0F00
0F00
FFE0
FFE0
FFE0
0F00
0F00
0F00
0F00
ENDCHAR
STARTCHAR uni0288
ENCODING 648
SWIDTH 602 0
DWIDTH 14 0
BBX 11 22 2 -5
BITMAP
1C00
1C00
1C00
1C00
FFE0
FFE0
FFE0
1C00
1C00
1C00
1C00
1C00
1C00
1C00
1C00
1C00
1C00
1C00
1C00
1FE0
0FE0
07E0
ENDCHAR
STARTCHAR uni0289
ENCODING 649
SWIDTH 602 0
DWIDTH 14 0
BBX 12 13 1 0
BITMAP
70F0
70F0
70F0
70F0
70F0
70F0
FFF0
FFF0
70F0
78F0
7FF0
3FF0
3EF0
ENDCHAR
STARTCHAR uni028A
ENCODING 650
SWIDTH 602 0
DWIDTH 14 0
BBX 12 14 1 -1
BITMAP
F9F0
F9F0
39C0
79E0
78F0
F0F0
F070
F070
F070
F0F0
78F0
7FE0
3FE0
1F80
ENDCHAR
STARTCHAR uni028B
ENCODING 651
SWIDTH 602 0
DWIDTH 14 0
BBX 12 13 1 0
BITMAP
F9C0
F9E0
F8F0
38F0
3870
3870
3870
3870
3870
38F0
3FE0
1FE0
0F80
ENDCHAR
STARTCHAR uni028C
ENCODING 652
SWIDTH 602 0
DWIDTH 14 0
BBX 12 13 1 0
BITMAP
0F80
0F80
1F80
1FC0
1DC0
39C0
39C0
38E0
78E0
70E0
70F0
F070
F070
ENDCHAR
STARTCHAR uni028D
ENCODING 653
SWIDTH 602 0
DWIDTH 14 0
BBX 14 13 0 0
BITMAP
3C70
3CF0
3CF0
3CF8
34F8
76F8
76F8
7798
779C
779C
E39C
E39C
E39C
ENDCHAR
STARTCHAR uni028E
ENCODING 654
SWIDTH 602 0
DWIDTH 14 0
BBX 13 18 1 0
BITMAP
01F0
03F0
03F0
0780
0700
0F00
0F00
0F80
1F80
1F80
3DC0
3DC0
39E0
78E0
70E0
70F0
F070
E078
ENDCHAR
STARTCHAR uni028F
ENCODING 655
SWIDTH 602 0
DWIDTH 14 0
BBX 12 13 1 0
BITMAP
F0F0
78F0
79E0
3FC0
1FC0
1F80
0F00
0700
0700
0700
0700
0700
0700
ENDCHAR
STARTCHAR uni0290
ENCODING 656
SWIDTH 602 0
DWIDTH 14 0
BBX 13 18 1 -5
BITMAP
FFC0
FFC0
03C0
03C0
0780
0F00
1E00
3C00
7800
F000
FFC0
FFC0
FFC0
01C0
01E0
01F8
00F8
0078
ENDCHAR
STARTCHAR uni0291
ENCODING 657
SWIDTH 602 0
DWIDTH 14 0
BBX 12 14 1 -1
BITMAP
7FE0
7FE0
01E0
03C0
0780
0780
0F60
1EF0
3DF0
79B0
FFF0
FFF0
FFE0
0180
ENDCHAR
STARTCHAR uni0292
ENCODING 658
SWIDTH 602 0
DWIDTH 14 0
BBX 12 18 1 -5
BITMAP
7FE0
7FE0
01E0
03C0
0780
0780
0F00
1E00
1FC0
1FE0
03F0
00F0
00F0
00F0
C1F0
FFF0
FFE0
7F80
ENDCHAR
STARTCHAR uni0293
ENCODING 659
SWIDTH 602 0
DWIDTH 14 0
BBX 12 18 1 -5
BITMAP
7FE0
7FE0
01E0
03C0
03C0
0780
0F00
1E00
1FC0
1FE0
03F0
3EF0
7FF0
FFF0
E1F0
FFF0
7FE0
3FE0
ENDCHAR
STARTCHAR uni0294
ENCODING 660
SWIDTH 602 0
DWIDTH 14 0
BBX 11 18 2 0
BITMAP
FE00
FF00
FF80
87C0
03C0
01C0
01E0
03C0
03C0
3FC0
3F80
3F00
3C00
3C00
3C00
3C00
3C00
3C00
ENDCHAR
STARTCHAR uni0295
ENCODING 661
SWIDTH 602 0
DWIDTH 14 0
BBX 11 18 2 0
BITMAP
1FC0
3FE0
7FE0
F860
F000
F000
F000
F000
F800
7F00
7F00
1F00
0700
0700
0700
0700
0700
0700
ENDCHAR
STARTCHAR uni0296
ENCODING 662
SWIDTH 602 0
DWIDTH 14 0
BBX 11 18 2 0
BITMAP
3C00
3C00
3C00
3C00
3C00
3C00
3F00
3F80
0FC0
03C0
01C0
01E0
01C0
03C0
CFC0
FF80
FF00
7E00
ENDCHAR
STARTCHAR uni0297
ENCODING 663
SWIDTH 602 0
DWIDTH 14 0
BBX 11 23 2 -5
BITMAP
1FC0
3FE0
7FE0
F860
F000
F000
F000
F000
F000
F000
F000
F000
F000
F000
F000
F000
F000
F000
F000
7CE0
7FE0
3FE0
0FC0
ENDCHAR
STARTCHAR uni0298
ENCODING 664
SWIDTH 602 0
DWIDTH 14 0
BBX 13 15 1 -1
BITMAP
0F80
3FC0
7FE0
7FF0
F0F0
E078
E638
E738
E678
E078
F0F0
7FF0
3FE0
1FC0
0700
ENDCHAR
STARTCHAR uni0299
ENCODING 665
SWIDTH 602 0
DWIDTH 14 0
BBX 12 13 1 0
BITMAP
FF80
FFC0
FFE0
E0E0
E0E0
FFC0
FFC0
FFE0
E070
E070
FFF0
FFE0
FFC0
ENDCHAR
STARTCHAR uni029A
ENCODING 666
SWIDTH 602 0
DWIDTH 14 0
BBX 12 14 1 -1
BITMAP
3F80
7FC0
F9E0
F0F0
F070
7E70
1E70
7E70
F070
F0F0
F1E0
7FE0
3F80
0400
ENDCHAR
STARTCHAR uni029B
ENCODING 667
SWIDTH 602 0
DWIDTH 14 0
BBX 13 18 1 0
BITMAP
00F8
01F8
01F0
01C0
01C0
1FC0
3FC0
7DC0
F000
E000
E000
E7E0
E7E0
E0E0
F0E0
7FE0
3FE0
1F80
ENDCHAR
STARTCHAR uni029C
ENCODING 668
SWIDTH 602 0
DWIDTH 14 0
BBX 12 13 1 0
BITMAP
F0F0
F0F0
F0F0
F0F0
F0F0
FFF0
FFF0
FFF0
F0F0
F0F0
F0F0
F0F0
F0F0
ENDCHAR
STARTCHAR uni029D
ENCODING 669
SWIDTH 602 0
DWIDTH 14 0
BBX 12 25 1 -5
BITMAP
01C0
01C0
01C0
01C0
01C0
0000
0000
1FC0
1FC0
1FC0
01C0
01C0
01C0
01C0
01C0
01C0
01C0
01C0
3FF0
7FF0
FFF0
E1C0
FFC0
7F80
3F00
ENDCHAR
STARTCHAR uni029E
ENCODING 670
SWIDTH 602 0
DWIDTH 14 0
BBX 11 18 2 -5
BITMAP
E0E0
F0E0
78E0
38E0
3CE0
1DE0
1FE0
0FE0
0FE0
1EE0
3CE0
78E0
F0E0
00E0
00E0
00E0
00E0
00E0
ENDCHAR
STARTCHAR uni029F
ENCODING 671
SWIDTH 602 0
DWIDTH 14 0
BBX 9 13 3 0
BITMAP
F000
F000
F000
F000
F000
F000
F000
F000
F000
F000
FF80
FF80
FF80
ENDCHAR
STARTCHAR uni02A0
ENCODING 672
SWIDTH 602 0
DWIDTH 14 0
BBX 12 23 1 -5
BITMAP
00F0
00F0
01E0
01E0
01E0
3DE0
7FE0
FBE0
F1E0
E1E0
E1E0
E1E0
E1E0
E1E0
F1E0
FFE0
7FE0
3DE0
01E0
01E0
01E0
01E0
01E0
ENDCHAR
STARTCHAR uni02A1
ENCODING 673
SWIDTH 602 0
DWIDTH 14 0
BBX 11 18 2 0
BITMAP
FE00
FF80
FFC0
87C0
03E0
01E0
01E0
01E0
03C0
3FC0
3F80
3F00
3C00
FF80
FF80
FF80
3C00
3C00
ENDCHAR
STARTCHAR uni02A2
ENCODING 674
SWIDTH 602 0
DWIDTH 14 0
BBX 11 18 2 0
BITMAP
1FC0
3FC0
7FC0
F840
F000
E000
E000
F000
F000
FF00
7F00
3F00
0F00
3FE0
3FE0
3FE0
0F00
0F00
ENDCHAR
STARTCHAR uni02A3
ENCODING 675
SWIDTH 602 0
DWIDTH 14 0
BBX 13 18 1 0
BITMAP
0600
0600
0600
0600
0600
77F8
F7F8
FE18
CE30
CE70
CE60
C6E0
CEC0
CFC0
CF80
FFF8
F7F8
77F8
ENDCHAR
STARTCHAR uni02A4
ENCODING 676
SWIDTH 602 0
DWIDTH 14 0
BBX 14 23 0 -5
BITMAP
0600
0600
0600
0600
0600
3FFC
7FFC
7FFC
E618
C638
C630
C670
C660
C6F8
E6F8
6E1C
7E1C
7E0C
000C
011C
01FC
01F8
01F8
ENDCHAR
STARTCHAR uni02A5
ENCODING 677
SWIDTH 602 0
DWIDTH 14 0
BBX 14 19 0 -1
BITMAP
0600
0600
0600
0600
0600
3FFC
7FFC
7E1C
6618
E638
C630
C67C
C66C
E6DC
66D4
7FFC
7FFC
3FF8
0010
ENDCHAR
STARTCHAR uni02A6
ENCODING 678
SWIDTH 602 0
DWIDTH 14 0
BBX 13 17 1 0
BITMAP
3000
3000
3000
3000
FFF0
FFF0
FF90
3300
3380
31E0
31F0
3070
3038
3018
3F38
3FF0
1FF0
ENDCHAR
STARTCHAR uni02A7
ENCODING 679
SWIDTH 602 0
DWIDTH 14 0
BBX 11 23 2 -5
BITMAP
01E0
31E0
3380
3300
3300
FF00
FF00
FF00
3300
3300
3300
3300
3300
3300
3300
3F00
3F00
1F00
0300
0300
1F00
1F00
1E00
ENDCHAR
STARTCHAR uni02A8
ENCODING 680
SWIDTH 602 0
DWIDTH 14 0
BBX 12 19 1 -2
BITMAP
3000
3000
3000
3000
FEF0
FFF0
FFD0
3380
3300
3300
3300
3370
3370
33D0
3FD0
3FF0
1EF0
00C0
00C0
ENDCHAR
STARTCHAR uni02A9
ENCODING 681
SWIDTH 602 0
DWIDTH 14 0
BBX 13 23 1 -5
BITMAP
1C00
3C00
3000
3000
3000
FF70
FFF0
FFB0
33B8
3318
3318
3318
3318
3318
3318
3318
3318
3318
0038
0030
0070
0070
0060
ENDCHAR
STARTCHAR uni02AA
ENCODING 682
SWIDTH 602 0
DWIDTH 14 0
BBX 13 18 1 0
BITMAP
F000
F000
3000
3000
3000
31F0
31F0
3190
3180
3180
31E0
31F0
3078
3018
3018
3F38
3FF0
1FF0
ENDCHAR
STARTCHAR uni02AB
ENCODING 683
SWIDTH 602 0
DWIDTH 14 0
BBX 13 18 1 0
BITMAP
F000
F000
3000
3000
3000
31F8
31F8
31F8
3030
3030
3060
30E0
30C0
31C0
3180
3FF8
3FF8
1FF8
ENDCHAR
STARTCHAR uni02AC
ENCODING 684
SWIDTH 602 0
DWIDTH 14 0
BBX 13 15 1 0
BITMAP
E738
E730
6F70
6D70
7DE0
79E0
38E0
0000
E738
E730
6F70
6D70
7DE0
79E0
39E0
ENDCHAR
STARTCHAR uni02AD
ENCODING 685
SWIDTH 602 0
DWIDTH 14 0
BBX 8 13 3 2
BITMAP
FF
C3
C3
C3
C3
00
00
00
FF
C3
C3
C3
C3
ENDCHAR
STARTCHAR uni02AE
ENCODING 686
SWIDTH 602 0
DWIDTH 14 0
BBX 13 23 1 -5
BITMAP
F000
F800
7800
3C00
3C00
3C78
3C78
3C78
3C78
3C78
3C78
3C78
3C78
3C78
3C78
3EF8
1FF8
0F78
0078
0078
0078
0078
0078
ENDCHAR
STARTCHAR uni02AF
ENCODING 687
SWIDTH 602 0
DWIDTH 14 0
BBX 13 23 1 -5
BITMAP
E000
F000
7000
3800
3800
38C0
38C0
38C0
38C0
38C0
38C0
38C0
38C0
38C0
39C0
3FC0
3FC0
1EC0
00C0
00E0
00F8
00F8
0078
ENDCHAR
STARTCHAR uni02B0
ENCODING 688
SWIDTH 602 0
DWIDTH 14 0
BBX 7 10 4 8
BITMAP
C0
C0
C0
FC
EE
CE
CE
CE
CE
CE
ENDCHAR
STARTCHAR uni02B1
ENCODING 689
SWIDTH 602 0
DWIDTH 14 0
BBX 7 10 4 8
BITMAP
70
E0
C0
FC
EE
CE
CE
CE
CE
CE
ENDCHAR
STARTCHAR uni02B2
ENCODING 690
SWIDTH 602 0
DWIDTH 14 0
BBX 5 14 5 4
BITMAP
18
18
00
00
F8
18
18
18
18
18
18
18
F8
F0
ENDCHAR
STARTCHAR uni02B3
ENCODING 691
SWIDTH 602 0
DWIDTH 14 0
BBX 6 7 4 8
BITMAP
DC
E0
C0
C0
C0
C0
C0
ENDCHAR
STARTCHAR uni02B4
ENCODING 692
SWIDTH 602 0
DWIDTH 14 0
BBX 6 7 4 8
BITMAP
0C
0C
0C
0C
0C
9C
FC
ENDCHAR
STARTCHAR uni02B5
ENCODING 693
SWIDTH 602 0
DWIDTH 14 0
BBX 8 10 3 5
BITMAP
0E
0E
0E
0E
0E
9E
FE
0E
07
07
ENDCHAR
STARTCHAR uni02B6
ENCODING 694
SWIDTH 602 0
DWIDTH 14 0
BBX 8 7 3 8
BITMAP
E7
E6
FE
FC
E6
EE
FE
ENDCHAR
STARTCHAR uni02B7
ENCODING 695
SWIDTH 602 0
DWIDTH 14 0
BBX 9 7 3 8
BITMAP
C180
C180
D900
DF00
5700
7700
6600
ENDCHAR
STARTCHAR uni02B8
ENCODING 696
SWIDTH 602 0
DWIDTH 14 0
BBX 8 10 3 5
BITMAP
E3
67
66
36
3C
1C
1C
18
78
70
ENDCHAR
STARTCHAR uni02B9
ENCODING 697
SWIDTH 602 0
DWIDTH 14 0
BBX 3 6 6 13
BITMAP
60
E0
E0
C0
C0
C0
ENDCHAR
STARTCHAR uni02BB
ENCODING 699
SWIDTH 602 0
DWIDTH 14 0
BBX 5 8 5 10
BITMAP
38
78
70
F0
F0
F0
F0
F0
ENDCHAR
STARTCHAR uni02BC
ENCODING 700
SWIDTH 602 0
DWIDTH 14 0
BBX 5 8 5 10
BITMAP
78
78
78
78
78
70
F0
E0
ENDCHAR
STARTCHAR uni02BD
ENCODING 701
SWIDTH 602 0
DWIDTH 14 0
BBX 3 6 6 14
BITMAP
E0
E0
E0
C0
E0
60
ENDCHAR
STARTCHAR uni02BE
ENCODING 702
SWIDTH 602 0
DWIDTH 14 0
BBX 3 6 6 12
BITMAP
C0
C0
60
60
E0
C0
ENDCHAR
STARTCHAR uni02BF
ENCODING 703
SWIDTH 602 0
DWIDTH 14 0
BBX 3 6 6 12
BITMAP
60
E0
80
80
E0
60
ENDCHAR
STARTCHAR uni02C0
ENCODING 704
SWIDTH 602 0
DWIDTH 14 0
BBX 7 10 4 8
BITMAP
F8
FC
0C
0E
0E
7C
78
70
70
70
ENDCHAR
STARTCHAR uni02C1
ENCODING 705
SWIDTH 602 0
DWIDTH 14 0
BBX 7 10 4 8
BITMAP
3E
7E
E0
C0
E0
F8
78
18
18
18
ENDCHAR
STARTCHAR circumflex
ENCODING 710
SWIDTH 602 0
DWIDTH 14 0
BBX 9 4 3 15
BITMAP
1C00
3E00
7700
E380
ENDCHAR
STARTCHAR caron
ENCODING 711
SWIDTH 602 0
DWIDTH 14 0
BBX 9 4 3 15
BITMAP
E380
7700
3E00
1C00
ENDCHAR
STARTCHAR uni02C8
ENCODING 712
SWIDTH 602 0
DWIDTH 14 0
BBX 2 7 6 12
BITMAP
C0
C0
C0
C0
C0
C0
C0
ENDCHAR
STARTCHAR uni02C9
ENCODING 713
SWIDTH 602 0
DWIDTH 14 0
BBX 7 2 4 16
BITMAP
FE
FE
ENDCHAR
STARTCHAR uni02CC
ENCODING 716
SWIDTH 602 0
DWIDTH 14 0
BBX 2 7 6 -2
BITMAP
C0
C0
C0
C0
C0
C0
C0
ENDCHAR
STARTCHAR uni02CD
ENCODING 717
SWIDTH 602 0
DWIDTH 14 0
BBX 7 2 4 -5
BITMAP
FE
FE
ENDCHAR
STARTCHAR uni02CE
ENCODING 718
SWIDTH 602 0
DWIDTH 14 0
BBX 6 4 4 -7
BITMAP
E0
70
38
1C
ENDCHAR
STARTCHAR uni02CF
ENCODING 719
SWIDTH 602 0
DWIDTH 14 0
BBX 6 4 5 -7
BITMAP
1C
38
70
E0
ENDCHAR
STARTCHAR uni02D0
ENCODING 720
SWIDTH 602 0
DWIDTH 14 0
BBX 4 13 5 0
BITMAP
F0
70
60
20
00
00
00
00
00
20
60
70
F0
ENDCHAR
STARTCHAR uni02D1
ENCODING 721
SWIDTH 602 0
DWIDTH 14 0
BBX 4 4 5 9
BITMAP
F0
70
60
20
ENDCHAR
STARTCHAR uni02D2
ENCODING 722
SWIDTH 602 0
DWIDTH 14 0
BBX 3 6 6 7
BITMAP
C0
C0
60
60
E0
C0
ENDCHAR
STARTCHAR uni02D3
ENCODING 723
SWIDTH 602 0
DWIDTH 14 0
BBX 3 6 6 7
BITMAP
60
E0
80
80
E0
60
ENDCHAR
STARTCHAR uni02D6
ENCODING 726
SWIDTH 602 0
DWIDTH 14 0
BBX 7 7 4 3
BITMAP
30
30
FE
FE
FE
30
30
ENDCHAR
STARTCHAR uni02D7
ENCODING 727
SWIDTH 602 0
DWIDTH 14 0
BBX 5 3 5 5
BITMAP
F8
F8
F8
ENDCHAR
STARTCHAR breve
ENCODING 728
SWIDTH 602 0
DWIDTH 14 0
BBX 8 3 3 16
BITMAP
C3
FF
3C
ENDCHAR
STARTCHAR dotaccent
ENCODING 729
SWIDTH 602 0
DWIDTH 14 0
BBX 3 3 6 16
BITMAP
E0
E0
E0
ENDCHAR
STARTCHAR ring
ENCODING 730
SWIDTH 602 0
DWIDTH 14 0
BBX 7 7 4 15
BITMAP
38
7C
C6
C6
C6
7C
38
ENDCHAR
STARTCHAR ogonek
ENCODING 731
SWIDTH 602 0
DWIDTH 14 0
BBX 5 5 5 -5
BITMAP
60
C0
C0
F8
78
ENDCHAR
STARTCHAR tilde
ENCODING 732
SWIDTH 602 0
DWIDTH 14 0
BBX 8 4 3 15
BITMAP
73
FB
DF
CE
ENDCHAR
STARTCHAR hungarumlaut
ENCODING 733
SWIDTH 602 0
DWIDTH 14 0
BBX 9 4 3 15
BITMAP
3B80
7300
6600
CC00
ENDCHAR
STARTCHAR uni02DE
ENCODING 734
SWIDTH 602 0
DWIDTH 14 0
BBX 15 8 -4 5
BITMAP
01C0
0FC0
7FC0
FFC0
F0C0
80E0
00FE
007E
ENDCHAR
STARTCHAR uni02E0
ENCODING 736
SWIDTH 602 0
DWIDTH 14 0
BBX 7 10 4 5
BITMAP
CE
7C
78
38
78
6C
CC
CC
FC
78
ENDCHAR
STARTCHAR uni02E1
ENCODING 737
SWIDTH 602 0
DWIDTH 14 0
BBX 8 10 3 8
BITMAP
F8
18
18
18
18
18
18
18
1C
1F
ENDCHAR
STARTCHAR uni02E2
ENCODING 738
SWIDTH 602 0
DWIDTH 14 0
BBX 7 7 4 8
BITMAP
FC
C0
E0
7C
0E
8E
FC
ENDCHAR
STARTCHAR uni02E3
ENCODING 739
SWIDTH 602 0
DWIDTH 14 0
BBX 7 7 4 8
BITMAP
CE
6C
78
30
78
EC
CE
ENDCHAR
STARTCHAR uni02E4
ENCODING 740
SWIDTH 602 0
DWIDTH 14 0
BBX 7 10 4 8
BITMAP
3E
7E
E0
C0
E0
F8
78
18
18
18
ENDCHAR
STARTCHAR uni02E5
ENCODING 741
SWIDTH 602 0
DWIDTH 14 0
BBX 8 17 3 0
BITMAP
FF
FF
FF
03
03
03
03
03
03
03
03
03
03
03
03
03
03
ENDCHAR
STARTCHAR uni02E6
ENCODING 742
SWIDTH 602 0
DWIDTH 14 0
BBX 8 17 3 0
BITMAP
03
03
03
03
FF
FF
03
03
03
03
03
03
03
03
03
03
03
ENDCHAR
STARTCHAR uni02E7
ENCODING 743
SWIDTH 602 0
DWIDTH 14 0
BBX 8 17 3 0
BITMAP
03
03
03
03
03
03
03
03
FF
FF
03
03
03
03
03
03
03
ENDCHAR
STARTCHAR uni02E8
ENCODING 744
SWIDTH 602 0
DWIDTH 14 0
BBX 8 17 3 0
BITMAP
03
03
03
03
03
03
03
03
03
03
03
FF
FF
03
03
03
03
ENDCHAR
STARTCHAR uni02E9
ENCODING 745
SWIDTH 602 0
DWIDTH 14 0
BBX 8 17 3 0
BITMAP
03
03
03
03
03
03
03
03
03
03
03
03
03
03
03
FF
FF
ENDCHAR
STARTCHAR uni02EE
ENCODING 750
SWIDTH 602 0
DWIDTH 14 0
BBX 11 8 2 10
BITMAP
79E0
79E0
79E0
79E0
79E0
71C0
F3C0
E380
ENDCHAR
STARTCHAR uni02F3
ENCODING 755
SWIDTH 602 0
DWIDTH 14 0
BBX 5 5 5 -6
BITMAP
70
F8
D8
F8
70
ENDCHAR
STARTCHAR gravecomb
ENCODING 768
SWIDTH 602 0
DWIDTH 14 0
BBX 6 4 3 15
BITMAP
E0
70
38
1C
ENDCHAR
STARTCHAR acutecomb
ENCODING 769
SWIDTH 602 0
DWIDTH 14 0
BBX 6 4 6 15
BITMAP
1C
38
70
E0
ENDCHAR
STARTCHAR uni0302
ENCODING 770
SWIDTH 602 0
DWIDTH 14 0
BBX 9 4 3 15
BITMAP
1C00
3E00
7700
E380
ENDCHAR
STARTCHAR tildecomb
ENCODING 771
SWIDTH 602 0
DWIDTH 14 0
BBX 8 4 3 15
BITMAP
73
FB
DF
CE
ENDCHAR
STARTCHAR uni0304
ENCODING 772
SWIDTH 602 0
DWIDTH 14 0
BBX 7 2 4 16
BITMAP
FE
FE
ENDCHAR
STARTCHAR uni0305
ENCODING 773
SWIDTH 602 0
DWIDTH 14 0
BBX 14 2 0 16
BITMAP
FFFC
FFFC
ENDCHAR
STARTCHAR uni0306
ENCODING 774
SWIDTH 602 0
DWIDTH 14 0
BBX 8 3 3 16
BITMAP
C3
FF
3C
ENDCHAR
STARTCHAR uni0307
ENCODING 775
SWIDTH 602 0
DWIDTH 14 0
BBX 3 3 6 16
BITMAP
E0
E0
E0
ENDCHAR
STARTCHAR uni0308
ENCODING 776
SWIDTH 602 0
DWIDTH 14 0
BBX 8 3 4 16
BITMAP
E7
E7
E7
ENDCHAR
STARTCHAR hookabovecomb
ENCODING 777
SWIDTH 602 0
DWIDTH 14 0
BBX 5 5 5 15
BITMAP
F0
38
18
30
70
ENDCHAR
STARTCHAR uni030A
ENCODING 778
SWIDTH 602 0
DWIDTH 14 0
BBX 7 7 4 15
BITMAP
38
7C
C6
C6
C6
7C
38
ENDCHAR
STARTCHAR uni030B
ENCODING 779
SWIDTH 602 0
DWIDTH 14 0
BBX 9 4 3 15
BITMAP
3B80
7300
6600
CC00
ENDCHAR
STARTCHAR uni030C
ENCODING 780
SWIDTH 602 0
DWIDTH 14 0
BBX 9 4 3 15
BITMAP
E380
7700
3E00
1C00
ENDCHAR
STARTCHAR uni030D
ENCODING 781
SWIDTH 602 0
DWIDTH 14 0
BBX 2 5 6 15
BITMAP
C0
C0
C0
C0
C0
ENDCHAR
STARTCHAR uni030E
ENCODING 782
SWIDTH 602 0
DWIDTH 14 0
BBX 9 5 3 15
BITMAP
C380
C380
C380
C380
C380
ENDCHAR
STARTCHAR uni030F
ENCODING 783
SWIDTH 602 0
DWIDTH 14 0
BBX 9 4 2 15
BITMAP
E600
6700
3300
3180
ENDCHAR
STARTCHAR uni0310
ENCODING 784
SWIDTH 602 0
DWIDTH 14 0
BBX 8 6 3 16
BITMAP
1C
1C
1C
C3
FF
3C
ENDCHAR
STARTCHAR uni0311
ENCODING 785
SWIDTH 602 0
DWIDTH 14 0
BBX 8 4 3 15
BITMAP
3C
7E
E3
C3
ENDCHAR
STARTCHAR uni0312
ENCODING 786
SWIDTH 602 0
DWIDTH 14 0
BBX 4 4 5 11
BITMAP
30
70
60
E0
ENDCHAR
STARTCHAR uni0313
ENCODING 787
SWIDTH 602 0
DWIDTH 14 0
BBX 3 6 6 14
BITMAP
E0
E0
E0
60
C0
80
ENDCHAR
STARTCHAR uni0314
ENCODING 788
SWIDTH 602 0
DWIDTH 14 0
BBX 3 6 6 14
BITMAP
E0
E0
E0
C0
E0
60
ENDCHAR
STARTCHAR uni0315
ENCODING 789
SWIDTH 602 0
DWIDTH 14 0
BBX 3 4 6 15
BITMAP
E0
E0
E0
C0
ENDCHAR
STARTCHAR uni0316
ENCODING 790
SWIDTH 602 0
DWIDTH 14 0
BBX 6 4 4 -7
BITMAP
F0
70
38
0C
ENDCHAR
STARTCHAR uni0317
ENCODING 791
SWIDTH 602 0
DWIDTH 14 0
BBX 6 4 5 -7
BITMAP
3C
38
70
C0
ENDCHAR
STARTCHAR uni0318
ENCODING 792
SWIDTH 602 0
DWIDTH 14 0
BBX 5 6 4 -9
BITMAP
38
38
F8
F8
38
38
ENDCHAR
STARTCHAR uni0319
ENCODING 793
SWIDTH 602 0
DWIDTH 14 0
BBX 4 6 6 -9
BITMAP
C0
C0
F0
F0
C0
C0
ENDCHAR
STARTCHAR uni031A
ENCODING 794
SWIDTH 602 0
DWIDTH 14 0
BBX 6 6 4 16
BITMAP
FC
FC
0C
0C
0C
0C
ENDCHAR
STARTCHAR uni031B
ENCODING 795
SWIDTH 602 0
DWIDTH 14 0
BBX 5 5 5 9
BITMAP
10
18
18
F0
F0
ENDCHAR
STARTCHAR uni031C
ENCODING 796
SWIDTH 602 0
DWIDTH 14 0
BBX 3 5 6 -6
BITMAP
60
C0
C0
E0
60
ENDCHAR
STARTCHAR uni031D
ENCODING 797
SWIDTH 602 0
DWIDTH 14 0
BBX 7 4 4 -7
BITMAP
30
30
FE
FE
ENDCHAR
STARTCHAR uni031E
ENCODING 798
SWIDTH 602 0
DWIDTH 14 0
BBX 6 4 4 -9
BITMAP
FC
FC
30
30
ENDCHAR
STARTCHAR uni031F
ENCODING 799
SWIDTH 602 0
DWIDTH 14 0
BBX 7 6 4 -9
BITMAP
38
38
FE
FE
38
38
ENDCHAR
STARTCHAR uni0320
ENCODING 800
SWIDTH 602 0
DWIDTH 14 0
BBX 6 2 4 -5
BITMAP
FC
FC
ENDCHAR
STARTCHAR uni0321
ENCODING 801
SWIDTH 602 0
DWIDTH 14 0
BBX 6 7 7 -5
BITMAP
3C
3C
3C
38
F8
F8
E0
ENDCHAR
STARTCHAR uni0322
ENCODING 802
SWIDTH 602 0
DWIDTH 14 0
BBX 6 7 2 -5
BITMAP
E0
E0
E0
F0
FC
7C
3C
ENDCHAR
STARTCHAR dotbelowcomb
ENCODING 803
SWIDTH 602 0
DWIDTH 14 0
BBX 3 3 6 -6
BITMAP
E0
E0
E0
ENDCHAR
STARTCHAR uni0324
ENCODING 804
SWIDTH 602 0
DWIDTH 14 0
BBX 8 3 4 -6
BITMAP
E7
E7
E7
ENDCHAR
STARTCHAR uni0325
ENCODING 805
SWIDTH 602 0
DWIDTH 14 0
BBX 5 5 5 -6
BITMAP
70
F8
D8
F8
70
ENDCHAR
STARTCHAR uni0326
ENCODING 806
SWIDTH 602 0
DWIDTH 14 0
BBX 4 4 4 -6
BITMAP
70
60
E0
C0
ENDCHAR
STARTCHAR uni0327
ENCODING 807
SWIDTH 602 0
DWIDTH 14 0
BBX 5 5 5 -5
BITMAP
30
18
18
F8
F0
ENDCHAR
STARTCHAR uni0328
ENCODING 808
SWIDTH 602 0
DWIDTH 14 0
BBX 5 5 4 -5
BITMAP
60
60
E0
78
78
ENDCHAR
STARTCHAR uni0329
ENCODING 809
SWIDTH 602 0
DWIDTH 14 0
BBX 2 5 6 -8
BITMAP
C0
C0
C0
C0
C0
ENDCHAR
STARTCHAR uni032A
ENCODING 810
SWIDTH 602 0
DWIDTH 14 0
BBX 7 4 4 -7
BITMAP
FE
FE
C6
C6
ENDCHAR
STARTCHAR uni032B
ENCODING 811
SWIDTH 602 0
DWIDTH 14 0
BBX 10 4 2 -6
BITMAP
CCC0
6EC0
7F80
3300
ENDCHAR
STARTCHAR uni032C
ENCODING 812
SWIDTH 602 0
DWIDTH 14 0
BBX 9 4 3 -5
BITMAP
E380
7700
3E00
1C00
ENDCHAR
STARTCHAR uni032D
ENCODING 813
SWIDTH 602 0
DWIDTH 14 0
BBX 9 4 3 -5
BITMAP
1C00
3E00
7700
E380
ENDCHAR
STARTCHAR uni032E
ENCODING 814
SWIDTH 602 0
DWIDTH 14 0
BBX 8 3 3 -5
BITMAP
C3
FF
3C
ENDCHAR
STARTCHAR uni032F
ENCODING 815
SWIDTH 602 0
DWIDTH 14 0
BBX 8 4 3 -6
BITMAP
1C
7E
E3
C3
ENDCHAR
STARTCHAR uni0330
ENCODING 816
SWIDTH 602 0
DWIDTH 14 0
BBX 8 4 3 -6
BITMAP
73
FB
DF
CE
ENDCHAR
STARTCHAR uni0331
ENCODING 817
SWIDTH 602 0
DWIDTH 14 0
BBX 7 2 4 -5
BITMAP
FE
FE
ENDCHAR
STARTCHAR uni0332
ENCODING 818
SWIDTH 602 0
DWIDTH 14 0
BBX 14 2 0 -6
BITMAP
FFFC
FFFC
ENDCHAR
STARTCHAR uni0333
ENCODING 819
SWIDTH 602 0
DWIDTH 14 0
BBX 14 5 0 -6
BITMAP
FFFC
FFFC
0000
FFFC
FFFC
ENDCHAR
STARTCHAR uni0334
ENCODING 820
SWIDTH 602 0
DWIDTH 14 0
BBX 12 4 1 6
BITMAP
7C10
FFF0
FFF0
83E0
ENDCHAR
STARTCHAR uni0335
ENCODING 821
SWIDTH 602 0
DWIDTH 14 0
BBX 9 2 2 5
BITMAP
FF80
FF80
ENDCHAR
STARTCHAR uni0336
ENCODING 822
SWIDTH 602 0
DWIDTH 14 0
BBX 14 2 0 5
BITMAP
FFFC
FFFC
ENDCHAR
STARTCHAR uni0337
ENCODING 823
SWIDTH 602 0
DWIDTH 14 0
BBX 13 15 1 -1
BITMAP
0018
0038
0070
00E0
01C0
0380
0300
0700
0E00
1C00
3800
7000
6000
E000
C000
ENDCHAR
STARTCHAR uni0338
ENCODING 824
SWIDTH 602 0
DWIDTH 14 0
BBX 14 19 0 -1
BITMAP
000C
001C
0038
0038
0070
00E0
00C0
01C0
0380
0700
0700
0E00
1C00
1C00
3800
7000
6000
E000
4000
ENDCHAR
STARTCHAR uni0339
ENCODING 825
SWIDTH 602 0
DWIDTH 14 0
BBX 3 5 6 -6
BITMAP
C0
C0
60
C0
80
ENDCHAR
STARTCHAR uni033A
ENCODING 826
SWIDTH 602 0
DWIDTH 14 0
BBX 7 4 4 -6
BITMAP
C6
C6
FE
FE
ENDCHAR
STARTCHAR uni033B
ENCODING 827
SWIDTH 602 0
DWIDTH 14 0
BBX 7 6 4 -9
BITMAP
FE
FE
C6
C6
FE
FE
ENDCHAR
STARTCHAR uni033C
ENCODING 828
SWIDTH 602 0
DWIDTH 14 0
BBX 10 4 2 -6
BITMAP
3300
7F80
6CC0
CCC0
ENDCHAR
STARTCHAR uni033D
ENCODING 829
SWIDTH 602 0
DWIDTH 14 0
BBX 6 6 4 14
BITMAP
48
FC
78
78
FC
48
ENDCHAR
STARTCHAR uni033E
ENCODING 830
SWIDTH 602 0
DWIDTH 14 0
BBX 3 7 6 14
BITMAP
60
E0
C0
C0
60
E0
80
ENDCHAR
STARTCHAR uni033F
ENCODING 831
SWIDTH 602 0
DWIDTH 14 0
BBX 14 5 0 13
BITMAP
FFFC
FFFC
0000
FFFC
FFFC
ENDCHAR
STARTCHAR uni0343
ENCODING 835
SWIDTH 602 0
DWIDTH 14 0
BBX 3 6 6 14
BITMAP
E0
E0
E0
60
C0
80
ENDCHAR
STARTCHAR uni0358
ENCODING 856
SWIDTH 602 0
DWIDTH 14 0
BBX 3 3 12 16
BITMAP
E0
E0
E0
ENDCHAR
STARTCHAR uni0361
ENCODING 865
SWIDTH 602 0
DWIDTH 14 0
BBX 20 3 -3 18
BITMAP
0FFF80
7FFFE0
E00030
ENDCHAR
STARTCHAR uni0374
ENCODING 884
SWIDTH 602 0
DWIDTH 14 0
BBX 3 6 6 13
BITMAP
60
E0
E0
C0
C0
C0
ENDCHAR
STARTCHAR uni0375
ENCODING 885
SWIDTH 602 0
DWIDTH 14 0
BBX 4 6 5 -5
BITMAP
70
60
60
60
60
E0
ENDCHAR
STARTCHAR uni0376
ENCODING 886
SWIDTH 602 0
DWIDTH 14 0
BBX 11 18 1 0
BITMAP
E1E0
E1E0
E1E0
E3E0
E3E0
E3E0
E6E0
E6E0
E6E0
ECE0
ECE0
FCE0
F8E0
F8E0
F8E0
F0E0
F0E0
F0E0
ENDCHAR
STARTCHAR uni0377
ENCODING 887
SWIDTH 602 0
DWIDTH 14 0
BBX 11 13 2 0
BITMAP
E0E0
E1E0
E3E0
E3E0
E7E0
E7E0
EEE0
FCE0
FCE0
F8E0
F8E0
F0E0
E0E0
ENDCHAR
STARTCHAR uni037A
ENCODING 890
SWIDTH 602 0
DWIDTH 14 0
BBX 3 4 6 -5
BITMAP
C0
C0
C0
E0
ENDCHAR
STARTCHAR uni037B
ENCODING 891
SWIDTH 602 0
DWIDTH 14 0
BBX 11 13 2 0
BITMAP
7E00
FF80
FFC0
83C0
01E0
00E0
00E0
00E0
01E0
83C0
FFC0
FF80
7E00
ENDCHAR
STARTCHAR uni037C
ENCODING 892
SWIDTH 602 0
DWIDTH 14 0
BBX 11 13 2 0
BITMAP
0FC0
3FE0
7FE0
7820
F780
E780
E780
E780
F000
7820
7FE0
3FE0
0FC0
ENDCHAR
STARTCHAR uni037D
ENCODING 893
SWIDTH 602 0
DWIDTH 14 0
BBX 11 13 2 0
BITMAP
7E00
FF80
FFC0
83C0
79E0
78E0
78E0
78E0
01E0
83C0
FFC0
FF80
7E00
ENDCHAR
STARTCHAR uni037E
ENCODING 894
SWIDTH 602 0
DWIDTH 14 0
BBX 5 16 4 -4
BITMAP
78
78
78
78
00
00
00
00
78
78
78
78
78
70
F0
E0
ENDCHAR
STARTCHAR uni037F
ENCODING 895
SWIDTH 602 0
DWIDTH 14 0
BBX 11 18 1 0
BITMAP
0FE0
0FE0
0FE0
00E0
00E0
00E0
00E0
00E0
00E0
00E0
00E0
00E0
00E0
80E0
C1E0
FFC0
FFC0
7F00
ENDCHAR
STARTCHAR tonos
ENCODING 900
SWIDTH 602 0
DWIDTH 14 0
BBX 6 4 6 15
BITMAP
1C
38
70
E0
ENDCHAR
STARTCHAR dieresistonos
ENCODING 901
SWIDTH 602 0
DWIDTH 14 0
BBX 8 8 4 16
BITMAP
07
0E
1C
38
00
E7
E7
E7
ENDCHAR
STARTCHAR Alphatonos
ENCODING 902
SWIDTH 602 0
DWIDTH 14 0
BBX 14 19 0 0
BITMAP
1C00
3F80
7FC0
EFC0
0FC0
0FC0
1CE0
1CE0
1CE0
1CE0
3CF0
3870
3FF0
7FF8
7FF8
7038
7038
F03C
F03C
ENDCHAR
STARTCHAR anoteleia
ENCODING 903
SWIDTH 602 0
DWIDTH 14 0
BBX 4 4 5 6
BITMAP
F0
F0
F0
F0
ENDCHAR
STARTCHAR Epsilontonos
ENCODING 904
SWIDTH 602 0
DWIDTH 14 0
BBX 16 19 -3 0
BITMAP
3C00
3FFF
77FF
C7FF
0700
0700
0700
0700
07FE
07FE
07FE
0700
0700
0700
0700
0700
07FF
07FF
07FF
ENDCHAR
STARTCHAR Etatonos
ENCODING 905
SWIDTH 602 0
DWIDTH 14 0
BBX 17 19 -4 0
BITMAP
1C0000
3B8380
738380
E38380
038380
038380
038380
038380
03FF80
03FF80
03FF80
038380
038380
038380
038380
038380
038380
038380
038380
ENDCHAR
STARTCHAR Iotatonos
ENCODING 906
SWIDTH 602 0
DWIDTH 14 0
BBX 15 19 -3 0
BITMAP
1C00
3BFE
73FE
E3FE
0070
0070
0070
0070
0070
0070
0070
0070
0070
0070
0070
0070
03FE
03FE
03FE
ENDCHAR
STARTCHAR Omicrontonos
ENCODING 908
SWIDTH 602 0
DWIDTH 14 0
BBX 14 19 -1 0
BITMAP
1C00
3BC0
7FF0
FFF8
1C38
1C38
381C
381C
381C
381C
381C
381C
381C
381C
1C38
1C38
1FF8
0FF0
03C0
ENDCHAR
STARTCHAR Upsilontonos
ENCODING 910
SWIDTH 602 0
DWIDTH 14 0
BBX 19 19 -5 0
BITMAP
1C0000
3BC1E0
71C1C0
E1E3C0
00E380
00F780
007700
007700
007F00
003E00
003E00
001C00
001C00
001C00
001C00
001C00
001C00
001C00
001C00
ENDCHAR
STARTCHAR Omegatonos
ENCODING 911
SWIDTH 602 0
DWIDTH 14 0
BBX 14 19 -1 0
BITMAP
1C00
3800
73C0
EFF0
1FF8
1E78
3C38
381C
381C
381C
381C
381C
381C
381C
1C38
1C38
0E70
3E7C
3E7C
ENDCHAR
STARTCHAR iotadieresistonos
ENCODING 912
SWIDTH 602 0
DWIDTH 14 0
BBX 9 24 3 0
BITMAP
0380
0700
0E00
1C00
0000
7380
7380
7380
0000
0000
0000
FC00
FC00
FC00
1C00
1C00
1C00
1C00
1C00
1C00
1C00
1F00
1F00
0F00
ENDCHAR
STARTCHAR Alpha
ENCODING 913
SWIDTH 602 0
DWIDTH 14 0
BBX 14 18 0 0
BITMAP
0780
0FC0
0FC0
0FC0
0FC0
1CE0
1CE0
1CE0
1CE0
3CF0
3870
3FF0
7FF8
7FF8
7038
7038
F03C
F03C
ENDCHAR
STARTCHAR Beta
ENCODING 914
SWIDTH 602 0
DWIDTH 14 0
BBX 12 18 1 0
BITMAP
FF00
FFC0
FFE0
E1E0
E0E0
E0E0
E1E0
FFC0
FF00
FFE0
E0E0
E070
E070
E070
E0F0
FFF0
FFE0
FF80
ENDCHAR
STARTCHAR Gamma
ENCODING 915
SWIDTH 602 0
DWIDTH 14 0
BBX 11 18 2 0
BITMAP
FFE0
FFE0
FFE0
E000
E000
E000
E000
E000
E000
E000
E000
E000
E000
E000
E000
E000
E000
E000
ENDCHAR
STARTCHAR uni0394
ENCODING 916
SWIDTH 602 0
DWIDTH 14 0
BBX 13 18 1 0
BITMAP
0F00
0F80
0F80
1F80
1F80
1DC0
3DC0
39C0
39E0
38E0
78E0
70E0
70F0
7070
F070
FFF0
FFF8
FFF8
ENDCHAR
STARTCHAR Epsilon
ENCODING 917
SWIDTH 602 0
DWIDTH 14 0
BBX 11 18 2 0
BITMAP
FFE0
FFE0
FFE0
E000
E000
E000
E000
FFC0
FFC0
FFC0
E000
E000
E000
E000
E000
FFE0
FFE0
FFE0
ENDCHAR
STARTCHAR Zeta
ENCODING 918
SWIDTH 602 0
DWIDTH 14 0
BBX 12 18 1 0
BITMAP
FFF0
FFF0
FFF0
00F0
01E0
03C0
03C0
0780
0F00
0F00
1E00
3C00
3C00
7800
F000
FFF0
FFF0
FFF0
ENDCHAR
STARTCHAR Eta
ENCODING 919
SWIDTH 602 0
DWIDTH 14 0
BBX 11 18 2 0
BITMAP
E0E0
E0E0
E0E0
E0E0
E0E0
E0E0
E0E0
FFE0
FFE0
FFE0
E0E0
E0E0
E0E0
E0E0
E0E0
E0E0
E0E0
E0E0
ENDCHAR
STARTCHAR Theta
ENCODING 920
SWIDTH 602 0
DWIDTH 14 0
BBX 12 18 1 0
BITMAP
0F00
3FC0
3FE0
7DE0
70F0
F0F0
F070
F770
F770
F770
F070
F070
F0F0
70F0
78F0
7FE0
3FC0
1F80
ENDCHAR
STARTCHAR Iota
ENCODING 921
SWIDTH 602 0
DWIDTH 14 0
BBX 9 18 3 0
BITMAP
FF80
FF80
FF80
1C00
1C00
1C00
1C00
1C00
1C00
1C00
1C00
1C00
1C00
1C00
1C00
FF80
FF80
FF80
ENDCHAR
STARTCHAR Kappa
ENCODING 922
SWIDTH 602 0
DWIDTH 14 0
BBX 12 18 1 0
BITMAP
E0F0
E1E0
E1C0
E3C0
E780
EF00
FE00
FE00
FF00
FF00
F780
E780
E3C0
E3C0
E1E0
E1E0
E0F0
E0F0
ENDCHAR
STARTCHAR Lambda
ENCODING 923
SWIDTH 602 0
DWIDTH 14 0
BBX 13 18 1 0
BITMAP
0F00
0F80
0F80
1F80
1F80
1DC0
3DC0
39C0
39E0
38E0
78E0
70E0
70F0
7070
F070
E070
E078
E078
ENDCHAR
STARTCHAR Mu
ENCODING 924
SWIDTH 602 0
DWIDTH 14 0
BBX 12 18 1 0
BITMAP
F0F0
F0F0
F9F0
F9F0
F9F0
F9F0
EF70
EF70
EF70
EF70
EF70
E670
E070
E070
E070
E070
E070
E070
ENDCHAR
STARTCHAR Nu
ENCODING 925
SWIDTH 602 0
DWIDTH 14 0
BBX 11 18 1 0
BITMAP
F0E0
F0E0
F0E0
F8E0
F8E0
F8E0
ECE0
ECE0
ECE0
E6E0
E6E0
E6E0
E3E0
E3E0
E3E0
E1E0
E1E0
E1E0
ENDCHAR
STARTCHAR Xi
ENCODING 926
SWIDTH 602 0
DWIDTH 14 0
BBX 11 18 2 0
BITMAP
FFE0
FFE0
FFE0
FFE0
0000
0000
0000
3F00
3F00
3F00
0000
0000
0000
0000
0000
FFE0
FFE0
FFE0
ENDCHAR
STARTCHAR Omicron
ENCODING 927
SWIDTH 602 0
DWIDTH 14 0
BBX 12 18 1 0
BITMAP
0F00
3FC0
7FE0
70E0
70E0
E070
E070
E070
E070
E070
E070
E070
E070
70E0
70E0
7FE0
3FC0
0F00
ENDCHAR
STARTCHAR Pi
ENCODING 928
SWIDTH 602 0
DWIDTH 14 0
BBX 11 18 2 0
BITMAP
FFE0
FFE0
FFE0
E0E0
E0E0
E0E0
E0E0
E0E0
E0E0
E0E0
E0E0
E0E0
E0E0
E0E0
E0E0
E0E0
E0E0
E0E0
ENDCHAR
STARTCHAR Rho
ENCODING 929
SWIDTH 602 0
DWIDTH 14 0
BBX 11 18 2 0
BITMAP
FF00
FFC0
FFC0
E1E0
E0E0
E0E0
E0E0
E1E0
FFC0
FFC0
FF00
E000
E000
E000
E000
E000
E000
E000
ENDCHAR
STARTCHAR Sigma
ENCODING 931
SWIDTH 602 0
DWIDTH 14 0
BBX 12 18 1 0
BITMAP
FFF0
FFF0
FFF0
FFF0
7800
3C00
1E00
1E00
0F00
0780
0F00
1E00
3C00
7800
7800
FFF0
FFF0
FFF0
ENDCHAR
STARTCHAR Tau
ENCODING 932
SWIDTH 602 0
DWIDTH 14 0
BBX 11 18 2 0
BITMAP
FFE0
FFE0
FFE0
0E00
0E00
0E00
0E00
0E00
0E00
0E00
0E00
0E00
0E00
0E00
0E00
0E00
0E00
0E00
ENDCHAR
STARTCHAR Upsilon
ENCODING 933
SWIDTH 602 0
DWIDTH 14 0
BBX 13 18 1 0
BITMAP
F078
7070
78F0
38E0
3DE0
1DC0
1DC0
1FC0
0F80
0F80
0700
0700
0700
0700
0700
0700
0700
0700
ENDCHAR
STARTCHAR Phi
ENCODING 934
SWIDTH 602 0
DWIDTH 14 0
BBX 12 18 1 0
BITMAP
1F80
1F80
1F80
1F80
0F80
3FE0
7FF0
FF70
EF70
EF70
EF70
FFF0
7FE0
3FC0
0F00
1F80
1F80
1F80
ENDCHAR
STARTCHAR Chi
ENCODING 935
SWIDTH 602 0
DWIDTH 14 0
BBX 14 18 0 0
BITMAP
F03C
7038
7878
3CF0
1CE0
1FE0
0FC0
0FC0
0780
0780
0FC0
0FC0
1FE0
1CE0
3CF0
7878
7038
F03C
ENDCHAR
STARTCHAR Psi
ENCODING 936
SWIDTH 602 0
DWIDTH 14 0
BBX 13 18 1 0
BITMAP
EF78
EF78
EF78
EF78
EF78
EF70
EF70
FF70
FF70
7FF0
7FE0
3FE0
1FC0
0F00
0F00
1F80
1F80
1F80
ENDCHAR
STARTCHAR Omega
ENCODING 937
SWIDTH 602 0
DWIDTH 14 0
BBX 12 17 1 0
BITMAP
0F00
3FC0
7FE0
79E0
F0E0
E070
E070
E070
E070
E070
E070
E070
70E0
70E0
39C0
F9F0
F9F0
ENDCHAR
STARTCHAR Iotadieresis
ENCODING 938
SWIDTH 602 0
DWIDTH 14 0
BBX 9 22 3 0
BITMAP
7380
7380
7380
0000
FF80
FF80
FF80
1C00
1C00
1C00
1C00
1C00
1C00
1C00
1C00
1C00
1C00
1C00
1C00
FF80
FF80
FF80
ENDCHAR
STARTCHAR Upsilondieresis
ENCODING 939
SWIDTH 602 0
DWIDTH 14 0
BBX 13 22 1 0
BITMAP
1CE0
1CE0
1CE0
0000
F078
7070
78F0
38E0
3DE0
1DC0
1DC0
1FC0
0F80
0F80
0700
0700
0700
0700
0700
0700
0700
0700
ENDCHAR
STARTCHAR alphatonos
ENCODING 940
SWIDTH 602 0
DWIDTH 14 0
BBX 13 19 1 0
BITMAP
00E0
01C0
0380
0700
0000
0000
3F70
7FF0
FFF0
E1E0
E1E0
E1E0
E1C0
E1C0
E3E0
E3E0
FFF8
7FF8
3F78
ENDCHAR
STARTCHAR epsilontonos
ENCODING 941
SWIDTH 602 0
DWIDTH 14 0
BBX 10 19 2 0
BITMAP
01C0
0380
0700
0E00
0000
0000
3F80
7F80
FF80
E000
E000
7E00
1E00
7E00
E000
E000
FFC0
7FC0
3FC0
ENDCHAR
STARTCHAR etatonos
ENCODING 942
SWIDTH 602 0
DWIDTH 14 0
BBX 11 24 2 -5
BITMAP
01C0
0380
0700
0E00
0000
0000
EF80
EFC0
FBC0
F1C0
E1E0
E1E0
E1E0
E1E0
E1E0
E1E0
E1E0
E1E0
E1E0
01E0
01E0
01E0
01E0
01E0
ENDCHAR
STARTCHAR iotatonos
ENCODING 943
SWIDTH 602 0
DWIDTH 14 0
BBX 9 19 3 0
BITMAP
0380
0700
0E00
1C00
0000
0000
FC00
FC00
FC00
1C00
1C00
1C00
1C00
1C00
1C00
1C00
1F00
1F00
0F00
ENDCHAR
STARTCHAR upsilondieresistonos
ENCODING 944
SWIDTH 602 0
DWIDTH 14 0
BBX 13 24 1 0
BITMAP
00E0
01C0
0380
0700
0000
1CE0
1CE0
1CE0
0000
0000
0000
F8E0
F870
F870
3870
3878
3878
3878
3870
3870
38F0
3FE0
3FE0
0F80
ENDCHAR
STARTCHAR alpha
ENCODING 945
SWIDTH 602 0
DWIDTH 14 0
BBX 13 13 1 0
BITMAP
3F70
7FF0
FFF0
E1E0
E1E0
E1E0
E1C0
E1C0
E3E0
E3E0
FFF8
7FF8
3F78
ENDCHAR
STARTCHAR beta
ENCODING 946
SWIDTH 602 0
DWIDTH 14 0
BBX 11 23 2 -5
BITMAP
7F00
FF80
F7C0
E1C0
E1C0
E1C0
E3C0
E7C0
EF80
EFC0
E3E0
E1E0
E0E0
E0E0
F1E0
FFE0
FFC0
FF80
E000
E000
E000
E000
E000
ENDCHAR
STARTCHAR gamma
ENCODING 947
SWIDTH 602 0
DWIDTH 14 0
BBX 12 18 1 -5
BITMAP
E070
F0F0
F0F0
78E0
39E0
39E0
3DC0
1FC0
1F80
1F80
0F80
0F00
0F00
0F00
0F00
0F00
0F00
0F00
ENDCHAR
STARTCHAR delta
ENCODING 948
SWIDTH 602 0
DWIDTH 14 0
BBX 12 18 1 0
BITMAP
1FE0
3FE0
7820
7000
3C00
1FC0
3FE0
7DE0
70F0
F070
F070
F070
F070
F070
70F0
7FE0
3FE0
1FC0
ENDCHAR
STARTCHAR epsilon
ENCODING 949
SWIDTH 602 0
DWIDTH 14 0
BBX 10 13 2 0
BITMAP
3F80
7F80
FF80
E000
E000
7E00
1E00
7E00
E000
E000
FFC0
7FC0
3FC0
ENDCHAR
STARTCHAR zeta
ENCODING 950
SWIDTH 602 0
DWIDTH 14 0
BBX 10 23 2 -5
BITMAP
FFC0
FFC0
07C0
0F80
1E00
3C00
7800
7000
F000
E000
E000
E000
E000
E000
F000
7E00
7F80
1FC0
00C0
00C0
01C0
01C0
0180
ENDCHAR
STARTCHAR eta
ENCODING 951
SWIDTH 602 0
DWIDTH 14 0
BBX 11 18 2 -5
BITMAP
EF80
EFC0
FBC0
F1C0
E1E0
E1E0
E1E0
E1E0
E1E0
E1E0
E1E0
E1E0
E1E0
01E0
01E0
01E0
01E0
01E0
ENDCHAR
STARTCHAR theta
ENCODING 952
SWIDTH 602 0
DWIDTH 14 0
BBX 12 18 1 0
BITMAP
1F80
3FC0
3DE0
78E0
70F0
F070
F070
F070
FFF0
FFF0
F070
F070
F070
70F0
78E0
3FE0
3FC0
1F80
ENDCHAR
STARTCHAR iota
ENCODING 953
SWIDTH 602 0
DWIDTH 14 0
BBX 8 13 3 0
BITMAP
FC
FC
FC
1C
1C
1C
1C
1C
1C
1C
1F
1F
0F
ENDCHAR
STARTCHAR kappa
ENCODING 954
SWIDTH 602 0
DWIDTH 14 0
BBX 12 13 2 0
BITMAP
E1E0
E3C0
E780
EF00
FE00
FE00
FF00
F700
E780
E3C0
E1C0
E1E0
E0F0
ENDCHAR
STARTCHAR lambda
ENCODING 955
SWIDTH 602 0
DWIDTH 14 0
BBX 12 18 1 0
BITMAP
7800
7E00
7E00
0F00
0F00
0700
0F80
0F80
0F80
1FC0
1FC0
3DC0
3DE0
39E0
78E0
70F0
F070
F070
ENDCHAR
STARTCHAR uni03BC
ENCODING 956
SWIDTH 602 0
DWIDTH 14 0
BBX 12 18 2 -5
BITMAP
E0E0
E0E0
E0E0
E0E0
E0E0
E0E0
E0E0
E0E0
E0E0
F1E0
FFF0
FF70
EE70
E000
E000
E000
E000
E000
ENDCHAR
STARTCHAR nu
ENCODING 957
SWIDTH 602 0
DWIDTH 14 0
BBX 12 13 1 0
BITMAP
E1E0
F0F0
F0F0
7070
7070
7870
78F0
39F0
39E0
3FC0
3FC0
1F80
1F00
ENDCHAR
STARTCHAR xi
ENCODING 958
SWIDTH 602 0
DWIDTH 14 0
BBX 10 23 2 -5
BITMAP
FFC0
FFC0
1F80
7800
F000
F000
F000
7E00
1F80
3F80
7C00
F000
E000
E000
F000
FE00
7F80
1FC0
00C0
00C0
01C0
01C0
0180
ENDCHAR
STARTCHAR omicron
ENCODING 959
SWIDTH 602 0
DWIDTH 14 0
BBX 12 13 1 0
BITMAP
1F80
3FC0
7FE0
F0E0
E070
E070
E070
E070
E070
70E0
7FE0
3FC0
1F80
ENDCHAR
STARTCHAR pi
ENCODING 960
SWIDTH 602 0
DWIDTH 14 0
BBX 14 13 0 0
BITMAP
FFFC
FFFC
FFFC
3870
3870
3870
3870
3870
3870
3870
3870
387C
387C
ENDCHAR
STARTCHAR rho
ENCODING 961
SWIDTH 602 0
DWIDTH 14 0
BBX 11 18 2 -5
BITMAP
3F80
7FC0
FBE0
F1E0
E0E0
E0E0
E0E0
E0E0
E0E0
F1E0
FFE0
FFC0
EF80
E000
E000
E000
E000
E000
ENDCHAR
STARTCHAR sigma1
ENCODING 962
SWIDTH 602 0
DWIDTH 14 0
BBX 10 18 2 -5
BITMAP
1FC0
3FC0
7CC0
F000
F000
F000
E000
F000
F000
F000
7F00
3FC0
1FC0
00C0
00C0
01C0
01C0
0180
ENDCHAR
STARTCHAR sigma
ENCODING 963
SWIDTH 602 0
DWIDTH 14 0
BBX 13 13 1 0
BITMAP
1FF8
3FF8
7FF8
71E0
F0F0
F070
F070
F070
F070
70F0
7FE0
3FE0
1FC0
ENDCHAR
STARTCHAR tau
ENCODING 964
SWIDTH 602 0
DWIDTH 14 0
BBX 11 13 2 0
BITMAP
FFE0
FFE0
FFE0
0E00
0E00
0E00
0E00
0E00
0E00
0E00
0F80
0F80
0780
ENDCHAR
STARTCHAR upsilon
ENCODING 965
SWIDTH 602 0
DWIDTH 14 0
BBX 13 13 1 0
BITMAP
F8E0
F870
F870
3870
3878
3878
3878
3870
3870
38F0
3FE0
3FE0
0F80
ENDCHAR
STARTCHAR phi
ENCODING 966
SWIDTH 602 0
DWIDTH 14 0
BBX 13 18 1 -5
BITMAP
33E0
77F0
F7F0
E770
E778
E738
E738
E778
E778
F7F0
7FF0
7FE0
1FC0
0700
0700
0700
0700
0700
ENDCHAR
STARTCHAR chi
ENCODING 967
SWIDTH 602 0
DWIDTH 14 0
BBX 13 18 1 -5
BITMAP
E070
F0F0
F8E0
39E0
1DC0
1FC0
1F80
0F80
0F00
0F00
0F80
1F80
1FC0
3DC0
39E0
78F8
70F8
F078
ENDCHAR
STARTCHAR psi
ENCODING 968
SWIDTH 602 0
DWIDTH 14 0
BBX 13 18 1 -5
BITMAP
E778
E778
E778
E778
E778
E778
E778
E778
E770
F770
7FF0
7FE0
1FC0
0700
0700
0700
0700
0700
ENDCHAR
STARTCHAR omega
ENCODING 969
SWIDTH 602 0
DWIDTH 14 0
BBX 13 13 1 0
BITMAP
7070
F070
E070
E070
E078
E778
E778
E778
E778
EF78
FFF0
FFF0
7DE0
ENDCHAR
STARTCHAR iotadieresis
ENCODING 970
SWIDTH 602 0
DWIDTH 14 0
BBX 9 19 3 0
BITMAP
7380
7380
7380
0000
0000
0000
FC00
FC00
FC00
1C00
1C00
1C00
1C00
1C00
1C00
1C00
1F00
1F00
0F00
ENDCHAR
STARTCHAR upsilondieresis
ENCODING 971
SWIDTH 602 0
DWIDTH 14 0
BBX 13 19 1 0
BITMAP
1CE0
1CE0
1CE0
0000
0000
0000
F8E0
F870
F870
3870
3878
3878
3878
3870
3870
38F0
3FE0
3FE0
0F80
ENDCHAR
STARTCHAR omicrontonos
ENCODING 972
SWIDTH 602 0
DWIDTH 14 0
BBX 12 19 1 0
BITMAP
00E0
01C0
0380
0700
0000
0000
1F80
3FC0
7FE0
F0E0
E070
E070
E070
E070
E070
70E0
7FE0
3FC0
1F80
ENDCHAR
STARTCHAR upsilontonos
ENCODING 973
SWIDTH 602 0
DWIDTH 14 0
BBX 13 19 1 0
BITMAP
00E0
01C0
0380
0700
0000
0000
F8E0
F870
F870
3870
3878
3878
3878
3870
3870
38F0
3FE0
3FE0
0F80
ENDCHAR
STARTCHAR omegatonos
ENCODING 974
SWIDTH 602 0
DWIDTH 14 0
BBX 13 19 1 0
BITMAP
00E0
01C0
0380
0700
0000
0000
7070
F070
E070
E070
E078
E778
E778
E778
E778
EF78
FFF0
FFF0
7DE0
ENDCHAR
STARTCHAR uni03D0
ENCODING 976
SWIDTH 602 0
DWIDTH 14 0
BBX 12 18 1 0
BITMAP
1F80
3FC0
3FE0
7DE0
70E0
70E0
F1E0
FFC0
FFC0
FFE0
F0F0
F070
7070
7070
7DF0
3FF0
3FE0
0FC0
ENDCHAR
STARTCHAR theta1
ENCODING 977
SWIDTH 602 0
DWIDTH 14 0
BBX 12 18 1 0
BITMAP
1FC0
3FC0
3FE0
3DF0
38F0
3870
3870
3FF0
1FF0
0FF0
E070
F070
F070
70F0
7FE0
3FE0
3FC0
0F80
ENDCHAR
STARTCHAR Upsilon1
ENCODING 978
SWIDTH 602 0
DWIDTH 14 0
BBX 14 18 0 0
BITMAP
E010
F87C
FCFC
FCFC
0FFC
0FC8
07C0
0780
0780
0780
0780
0780
0780
0780
0780
0780
0780
0780
ENDCHAR
STARTCHAR uni03D3
ENCODING 979
SWIDTH 602 0
DWIDTH 14 0
BBX 19 19 -5 0
BITMAP
1C0000
3F0080
77C3E0
E7E7E0
07E7E0
007FE0
007E40
003E00
003C00
003C00
003C00
003C00
003C00
003C00
003C00
003C00
003C00
003C00
003C00
ENDCHAR
STARTCHAR uni03D4
ENCODING 980
SWIDTH 602 0
DWIDTH 14 0
BBX 14 22 0 0
BITMAP
0E70
0E70
0E70
0000
E010
F87C
FCFC
FCFC
0FFC
0FC8
07C0
0780
0780
0780
0780
0780
0780
0780
0780
0780
0780
0780
ENDCHAR
STARTCHAR phi1
ENCODING 981
SWIDTH 602 0
DWIDTH 14 0
BBX 13 23 1 -5
BITMAP
0700
0700
0700
0700
0700
1FC0
7FE0
7FF0
F770
E778
E778
E738
E778
E778
F770
7FF0
7FE0
1FC0
0700
0700
0700
0700
0700
ENDCHAR
STARTCHAR omega1
ENCODING 982
SWIDTH 602 0
DWIDTH 14 0
BBX 14 13 0 0
BITMAP
FFFC
FFFC
FFFC
7038
703C
73BC
73BC
73BC
77BC
77BC
7FF8
7FF8
3C70
ENDCHAR
STARTCHAR uni03D7
ENCODING 983
SWIDTH 602 0
DWIDTH 14 0
BBX 13 18 1 -5
BITMAP
F038
F878
B8F8
1CF0
1DF0
1FE0
1FC0
3FC0
79C0
F1C0
F1D0
E1F0
C0F0
0070
0070
07E0
07E0
03C0
ENDCHAR
STARTCHAR uni03D8
ENCODING 984
SWIDTH 602 0
DWIDTH 14 0
BBX 12 23 1 -5
BITMAP
0F00
3FC0
3FE0
7DE0
70F0
F0F0
F070
F070
F070
F070
F070
F070
F0F0
70F0
78F0
7FE0
3FC0
1F80
0700
0700
0700
0700
0700
ENDCHAR
STARTCHAR uni03D9
ENCODING 985
SWIDTH 602 0
DWIDTH 14 0
BBX 12 18 1 -5
BITMAP
1FC0
3FE0
7DE0
70F0
F070
F070
F070
F070
F070
70F0
7FE0
3FE0
1F80
0700
0700
0700
0700
0700
ENDCHAR
STARTCHAR uni03DA
ENCODING 986
SWIDTH 602 0
DWIDTH 14 0
BBX 13 23 1 -5
BITMAP
00F8
1FF8
3FF8
7FF8
7800
7000
F000
F000
F000
F000
F000
F000
F000
7800
7800
3F00
3FC0
0FC0
01C0
00E0
01C0
01C0
0180
ENDCHAR
STARTCHAR uni03DB
ENCODING 987
SWIDTH 602 0
DWIDTH 14 0
BBX 12 18 1 -5
BITMAP
1FF0
3FF0
7FF0
F000
F000
F000
F000
F000
F000
7800
7E00
3F80
1FC0
00C0
00C0
03C0
0380
0300
ENDCHAR
STARTCHAR uni03DC
ENCODING 988
SWIDTH 602 0
DWIDTH 14 0
BBX 11 18 2 0
BITMAP
FFE0
FFE0
FFE0
E000
E000
E000
E000
FFC0
FFC0
FFC0
E000
E000
E000
E000
E000
E000
E000
E000
ENDCHAR
STARTCHAR uni03DD
ENCODING 989
SWIDTH 602 0
DWIDTH 14 0
BBX 12 23 0 -5
BITMAP
03F0
07F0
07F0
0F00
0E00
0E00
0E00
0E00
0FE0
0FE0
0E00
0E00
0E00
0E00
0E00
0E00
0E00
0E00
0E00
0E00
FE00
FC00
F800
ENDCHAR
STARTCHAR uni03DE
ENCODING 990
SWIDTH 602 0
DWIDTH 14 0
BBX 12 18 1 0
BITMAP
8000
F800
FC00
FC00
3C00
3C10
3C70
39F0
7FE0
7FE0
7FE0
79C0
61C0
83C0
03C0
03F0
03F0
01F0
ENDCHAR
STARTCHAR uni03DF
ENCODING 991
SWIDTH 602 0
DWIDTH 14 0
BBX 12 18 1 0
BITMAP
0E00
1E00
1C00
1C00
3C00
3800
3800
7FF0
7FF0
7FE0
FFE0
01E0
01C0
01C0
03C0
0380
0380
0380
ENDCHAR
STARTCHAR uni03E0
ENCODING 992
SWIDTH 602 0
DWIDTH 14 0
BBX 14 23 0 -5
BITMAP
1F00
7FC0
FFE0
FBE0
B8F0
38F8
39F8
3BF8
3BB8
3BBC
03BC
03BC
039C
039C
03BC
03BC
03BC
03BC
003C
003C
0038
0038
0078
ENDCHAR
STARTCHAR uni03E1
ENCODING 993
SWIDTH 602 0
DWIDTH 14 0
BBX 12 17 1 -4
BITMAP
F000
FC00
FF00
1F80
0780
07C0
0FC0
0FE0
1DE0
3BF0
73F0
77F0
EE70
0070
0070
0070
0070
ENDCHAR
STARTCHAR uni03F0
ENCODING 1008
SWIDTH 602 0
DWIDTH 14 0
BBX 13 13 1 0
BITMAP
F038
F878
B8F8
1CF0
1DF0
1FE0
1FC0
3FC0
79C0
F1C0
F1D0
E1F0
C0F0
ENDCHAR
STARTCHAR uni03F1
ENCODING 1009
SWIDTH 602 0
DWIDTH 14 0
BBX 11 18 2 -5
BITMAP
3F80
7FC0
FBE0
F1E0
E0E0
E0E0
E0E0
E0E0
E0E0
F1E0
FFE0
FFC0
EF80
E000
E000
FFE0
7FE0
3FE0
ENDCHAR
STARTCHAR uni03F2
ENCODING 1010
SWIDTH 602 0
DWIDTH 14 0
BBX 11 13 2 0
BITMAP
0FC0
3FE0
7FE0
7820
F000
E000
E000
E000
F000
7820
7FE0
3FE0
0FC0
ENDCHAR
STARTCHAR uni03F3
ENCODING 1011
SWIDTH 602 0
DWIDTH 14 0
BBX 8 25 2 -5
BITMAP
07
07
07
07
00
00
00
3F
3F
3F
07
07
07
07
07
07
07
07
07
07
07
0F
FF
FE
FC
ENDCHAR
STARTCHAR uni03F4
ENCODING 1012
SWIDTH 602 0
DWIDTH 14 0
BBX 12 18 1 0
BITMAP
0F00
3FC0
3FE0
7DE0
70F0
F0F0
F070
FFF0
FFF0
FFF0
F070
F070
F070
70F0
78F0
7FE0
3FC0
1F80
ENDCHAR
STARTCHAR uni03F5
ENCODING 1013
SWIDTH 602 0
DWIDTH 14 0
BBX 10 13 2 0
BITMAP
1FC0
7FC0
7CC0
F000
F000
FFC0
FFC0
FFC0
F000
F000
7FC0
3FC0
1FC0
ENDCHAR
STARTCHAR uni03F6
ENCODING 1014
SWIDTH 602 0
DWIDTH 14 0
BBX 10 13 2 0
BITMAP
FF00
FF80
EFC0
03C0
01C0
7FC0
7FC0
7FC0
01C0
03C0
EF80
FF80
FE00
ENDCHAR
STARTCHAR uni03F7
ENCODING 1015
SWIDTH 602 0
DWIDTH 14 0
BBX 11 18 2 0
BITMAP
E000
E000
E000
FF00
FFC0
FFC0
E1E0
E0E0
E0E0
E0E0
E1E0
FFC0
FFC0
FF00
E000
E000
E000
E000
ENDCHAR
STARTCHAR uni03F8
ENCODING 1016
SWIDTH 602 0
DWIDTH 14 0
BBX 12 23 1 -5
BITMAP
E000
E000
E000
E000
E000
E780
EFC0
FFE0
F0F0
E070
E070
E070
E070
E070
F0F0
FFE0
EFC0
E780
E000
E000
E000
E000
E000
ENDCHAR
STARTCHAR uni03F9
ENCODING 1017
SWIDTH 602 0
DWIDTH 14 0
BBX 11 18 2 0
BITMAP
0FC0
1FE0
3FE0
7860
7020
F000
E000
E000
E000
E000
E000
E000
F000
7020
7860
3FE0
1FE0
0FC0
ENDCHAR
STARTCHAR uni03FA
ENCODING 1018
SWIDTH 602 0
DWIDTH 14 0
BBX 12 18 1 0
BITMAP
F0F0
F8F0
F9F0
FFF0
FFF0
EFF0
EF70
E070
E070
E070
E070
E070
E070
E070
E070
E070
E070
E070
ENDCHAR
STARTCHAR uni03FB
ENCODING 1019
SWIDTH 602 0
DWIDTH 14 0
BBX 12 17 1 -5
BITMAP
F8F0
F9F0
FDF0
FFF0
EFF0
EF70
E770
E070
E070
E070
E070
E070
E000
E000
E000
E000
E000
ENDCHAR
STARTCHAR uni03FC
ENCODING 1020
SWIDTH 602 0
DWIDTH 14 0
BBX 12 18 1 -5
BITMAP
1FC0
3FE0
7DF0
78F0
7070
7070
7070
7070
7070
78F0
7FF0
7FE0
77C0
7000
FF80
FF80
FF80
7000
ENDCHAR
STARTCHAR uni03FD
ENCODING 1021
SWIDTH 602 0
DWIDTH 14 0
BBX 11 18 2 0
BITMAP
7C00
FF00
FF80
CF80
03C0
03C0
01C0
01E0
01E0
01E0
01E0
01E0
01C0
03C0
87C0
FF80
FF00
FE00
ENDCHAR
STARTCHAR uni03FE
ENCODING 1022
SWIDTH 602 0
DWIDTH 14 0
BBX 11 18 2 0
BITMAP
0FC0
1FE0
3FE0
7860
7020
F000
E000
E000
E780
E780
E780
E780
F000
7020
7860
3FE0
1FE0
0FC0
ENDCHAR
STARTCHAR uni03FF
ENCODING 1023
SWIDTH 602 0
DWIDTH 14 0
BBX 11 18 2 0
BITMAP
7C00
FF00
FF80
CF80
03C0
03C0
01C0
01E0
79E0
79E0
79E0
79E0
01C0
03C0
87C0
FF80
FF00
FE00
ENDCHAR
STARTCHAR uni0400
ENCODING 1024
SWIDTH 602 0
DWIDTH 14 0
BBX 11 22 2 0
BITMAP
3800
1C00
0E00
0000
FFE0
FFE0
FFE0
E000
E000
E000
E000
FFC0
FFC0
FFC0
E000
E000
E000
E000
E000
FFE0
FFE0
FFE0
ENDCHAR
STARTCHAR uni0401
ENCODING 1025
SWIDTH 602 0
DWIDTH 14 0
BBX 11 22 2 0
BITMAP
39C0
39C0
39C0
0000
FFE0
FFE0
FFE0
E000
E000
E000
E000
FFC0
FFC0
FFC0
E000
E000
E000
E000
E000
FFE0
FFE0
FFE0
ENDCHAR
STARTCHAR uni0402
ENCODING 1026
SWIDTH 602 0
DWIDTH 14 0
BBX 14 23 0 -5
BITMAP
FFE0
FFE0
3800
3800
3800
3800
38E0
3BF8
3FF8
3F7C
3C3C
383C
383C
383C
383C
383C
383C
383C
003C
003C
01F8
01F8
01F0
ENDCHAR
STARTCHAR uni0403
ENCODING 1027
SWIDTH 602 0
DWIDTH 14 0
BBX 11 22 2 0
BITMAP
03C0
0380
0600
0000
FFE0
FFE0
FFE0
E000
E000
E000
E000
E000
E000
E000
E000
E000
E000
E000
E000
E000
E000
E000
ENDCHAR
STARTCHAR uni0404
ENCODING 1028
SWIDTH 602 0
DWIDTH 14 0
BBX 11 18 2 0
BITMAP
0FC0
1FE0
3FE0
7860
7020
E000
E000
FFC0
FFC0
FFC0
E000
E000
F000
7020
7860
3FE0
1FE0
0FC0
ENDCHAR
STARTCHAR uni0405
ENCODING 1029
SWIDTH 602 0
DWIDTH 14 0
BBX 11 18 2 0
BITMAP
1F80
7FC0
7FC0
F0C0
E040
E000
F000
7E00
7F80
1FC0
07E0
01E0
00E0
80E0
E1E0
FFC0
FFC0
7F00
ENDCHAR
STARTCHAR uni0406
ENCODING 1030
SWIDTH 602 0
DWIDTH 14 0
BBX 9 18 3 0
BITMAP
FF80
FF80
FF80
1C00
1C00
1C00
1C00
1C00
1C00
1C00
1C00
1C00
1C00
1C00
1C00
FF80
FF80
FF80
ENDCHAR
STARTCHAR uni0407
ENCODING 1031
SWIDTH 602 0
DWIDTH 14 0
BBX 9 22 3 0
BITMAP
7700
7700
7700
0000
FF80
FF80
FF80
1C00
1C00
1C00
1C00
1C00
1C00
1C00
1C00
1C00
1C00
1C00
1C00
FF80
FF80
FF80
ENDCHAR
STARTCHAR uni0408
ENCODING 1032
SWIDTH 602 0
DWIDTH 14 0
BBX 11 18 1 0
BITMAP
0FE0
0FE0
0FE0
00E0
00E0
00E0
00E0
00E0
00E0
00E0
00E0
00E0
00E0
80E0
C1E0
FFC0
FFC0
7F00
ENDCHAR
STARTCHAR uni0409
ENCODING 1033
SWIDTH 602 0
DWIDTH 14 0
BBX 14 18 0 0
BITMAP
3FC0
3FC0
3FC0
3FC0
39C0
39C0
39C0
39E0
39F8
39FC
39DC
39DC
39CC
39DC
39DC
F1FC
F1F8
E1F0
ENDCHAR
STARTCHAR uni040A
ENCODING 1034
SWIDTH 602 0
DWIDTH 14 0
BBX 14 18 0 0
BITMAP
E1C0
E1C0
E1C0
E1C0
E1C0
E1C0
E1C0
FFE0
FFF8
FFFC
E1DC
E1DC
E1CC
E1DC
E1DC
E1FC
E1F8
E1F0
ENDCHAR
STARTCHAR uni040B
ENCODING 1035
SWIDTH 602 0
DWIDTH 14 0
BBX 14 18 0 0
BITMAP
FFE0
FFE0
3800
3800
3800
3800
38E0
3BF8
3FF8
3F7C
3C3C
383C
383C
383C
383C
383C
383C
383C
ENDCHAR
STARTCHAR uni040C
ENCODING 1036
SWIDTH 602 0
DWIDTH 14 0
BBX 12 22 1 0
BITMAP
01E0
01C0
0300
0000
E0F0
E1E0
E1C0
E3C0
E780
EF00
FE00
FE00
FF00
FF00
F780
E780
E3C0
E3C0
E1E0
E1E0
E0F0
E0F0
ENDCHAR
STARTCHAR uni040D
ENCODING 1037
SWIDTH 602 0
DWIDTH 14 0
BBX 11 22 1 0
BITMAP
1C00
0E00
0700
0000
E1E0
E1E0
E1E0
E3E0
E3E0
E3E0
E6E0
E6E0
E6E0
ECE0
ECE0
FCE0
F8E0
F8E0
F8E0
F0E0
F0E0
F0E0
ENDCHAR
STARTCHAR uni040E
ENCODING 1038
SWIDTH 602 0
DWIDTH 14 0
BBX 14 22 0 0
BITMAP
1860
1FC0
0780
0000
F01C
703C
7838
3878
3C78
1C70
1EF0
0EE0
0FE0
07E0
07C0
03C0
0380
0780
0780
3F00
3E00
3C00
ENDCHAR
STARTCHAR uni040F
ENCODING 1039
SWIDTH 602 0
DWIDTH 14 0
BBX 11 22 2 -4
BITMAP
E1E0
E1E0
E1E0
E1E0
E1E0
E1E0
E1E0
E1E0
E1E0
E1E0
E1E0
E1E0
E1E0
E1E0
E1E0
FFE0
FFE0
FFE0
0E00
0E00
0E00
0E00
ENDCHAR
STARTCHAR uni0410
ENCODING 1040
SWIDTH 602 0
DWIDTH 14 0
BBX 14 18 0 0
BITMAP
0780
0FC0
0FC0
0FC0
0FC0
1CE0
1CE0
1CE0
1CE0
3CF0
3870
3FF0
7FF8
7FF8
7038
7038
F03C
F03C
ENDCHAR
STARTCHAR uni0411
ENCODING 1041
SWIDTH 602 0
DWIDTH 14 0
BBX 11 18 2 0
BITMAP
FFE0
FFE0
FFE0
E000
E000
E000
E000
FF00
FFC0
FFC0
E1E0
E0E0
E0E0
E0E0
E1E0
FFC0
FFC0
FF00
ENDCHAR
STARTCHAR uni0412
ENCODING 1042
SWIDTH 602 0
DWIDTH 14 0
BBX 12 18 1 0
BITMAP
FF00
FFC0
FFE0
E1E0
E0E0
E0E0
E1E0
FFC0
FF00
FFE0
E0E0
E070
E070
E070
E0F0
FFF0
FFE0
FF80
ENDCHAR
STARTCHAR uni0413
ENCODING 1043
SWIDTH 602 0
DWIDTH 14 0
BBX 11 18 2 0
BITMAP
FFE0
FFE0
FFE0
E000
E000
E000
E000
E000
E000
E000
E000
E000
E000
E000
E000
E000
E000
E000
ENDCHAR
STARTCHAR uni0414
ENCODING 1044
SWIDTH 602 0
DWIDTH 14 0
BBX 14 22 0 -4
BITMAP
3FF0
3FF0
3FF0
3870
3870
3870
3870
3870
3870
3870
3870
3870
3870
3870
3870
FFFC
FFFC
FFFC
E01C
E01C
E01C
E01C
ENDCHAR
STARTCHAR uni0415
ENCODING 1045
SWIDTH 602 0
DWIDTH 14 0
BBX 11 18 2 0
BITMAP
FFE0
FFE0
FFE0
E000
E000
E000
E000
FFC0
FFC0
FFC0
E000
E000
E000
E000
E000
FFE0
FFE0
FFE0
ENDCHAR
STARTCHAR uni0416
ENCODING 1046
SWIDTH 602 0
DWIDTH 14 0
BBX 15 18 0 0
BITMAP
739C
739C
739C
3BB8
3BB8
1FF0
1FF0
1FF0
1FF0
1FF0
3FF8
3FF8
3FF8
3BB8
739C
739C
739C
E38E
ENDCHAR
STARTCHAR uni0417
ENCODING 1047
SWIDTH 602 0
DWIDTH 14 0
BBX 12 18 1 0
BITMAP
1F80
7FE0
7FF0
40F0
0070
0070
00F0
1FE0
1F80
1FE0
00F0
0070
0070
0070
C0F0
FFE0
FFE0
3F80
ENDCHAR
STARTCHAR uni0418
ENCODING 1048
SWIDTH 602 0
DWIDTH 14 0
BBX 11 18 1 0
BITMAP
E1E0
E1E0
E1E0
E3E0
E3E0
E3E0
E6E0
E6E0
E6E0
ECE0
ECE0
FCE0
F8E0
F8E0
F8E0
F0E0
F0E0
F0E0
ENDCHAR
STARTCHAR uni0419
ENCODING 1049
SWIDTH 602 0
DWIDTH 14 0
BBX 11 22 1 0
BITMAP
30C0
3F80
0F00
0000
E1E0
E1E0
E1E0
E3E0
E3E0
E3E0
E6E0
E6E0
E6E0
ECE0
ECE0
FCE0
F8E0
F8E0
F8E0
F0E0
F0E0
F0E0
ENDCHAR
STARTCHAR uni041A
ENCODING 1050
SWIDTH 602 0
DWIDTH 14 0
BBX 12 18 1 0
BITMAP
E0F0
E1E0
E1C0
E3C0
E780
EF00
FE00
FE00
FF00
FF00
F780
E780
E3C0
E3C0
E1E0
E1E0
E0F0
E0F0
ENDCHAR
STARTCHAR uni041B
ENCODING 1051
SWIDTH 602 0
DWIDTH 14 0
BBX 13 18 0 0
BITMAP
1FF8
1FF8
1FF8
1C38
1C38
1C38
1C38
1C38
1C38
1C38
1C38
1C38
1C38
1C38
3C38
F838
F838
E038
ENDCHAR
STARTCHAR uni041C
ENCODING 1052
SWIDTH 602 0
DWIDTH 14 0
BBX 12 18 1 0
BITMAP
F0F0
F0F0
F9F0
F9F0
F9F0
F9F0
EF70
EF70
EF70
EF70
EF70
E670
E070
E070
E070
E070
E070
E070
ENDCHAR
STARTCHAR uni041D
ENCODING 1053
SWIDTH 602 0
DWIDTH 14 0
BBX 11 18 2 0
BITMAP
E0E0
E0E0
E0E0
E0E0
E0E0
E0E0
E0E0
FFE0
FFE0
FFE0
E0E0
E0E0
E0E0
E0E0
E0E0
E0E0
E0E0
E0E0
ENDCHAR
STARTCHAR uni041E
ENCODING 1054
SWIDTH 602 0
DWIDTH 14 0
BBX 12 18 1 0
BITMAP
0F00
3FC0
7FE0
70E0
70E0
E070
E070
E070
E070
E070
E070
E070
E070
70E0
70E0
7FE0
3FC0
0F00
ENDCHAR
STARTCHAR uni041F
ENCODING 1055
SWIDTH 602 0
DWIDTH 14 0
BBX 11 18 2 0
BITMAP
FFE0
FFE0
FFE0
E0E0
E0E0
E0E0
E0E0
E0E0
E0E0
E0E0
E0E0
E0E0
E0E0
E0E0
E0E0
E0E0
E0E0
E0E0
ENDCHAR
STARTCHAR uni0420
ENCODING 1056
SWIDTH 602 0
DWIDTH 14 0
BBX 11 18 2 0
BITMAP
FF00
FFC0
FFC0
E1E0
E0E0
E0E0
E0E0
E1E0
FFC0
FFC0
FF00
E000
E000
E000
E000
E000
E000
E000
ENDCHAR
STARTCHAR uni0421
ENCODING 1057
SWIDTH 602 0
DWIDTH 14 0
BBX 11 18 2 0
BITMAP
0FC0
1FE0
3FE0
7860
7020
F000
E000
E000
E000
E000
E000
E000
F000
7020
7860
3FE0
1FE0
0FC0
ENDCHAR
STARTCHAR uni0422
ENCODING 1058
SWIDTH 602 0
DWIDTH 14 0
BBX 11 18 2 0
BITMAP
FFE0
FFE0
FFE0
0E00
0E00
0E00
0E00
0E00
0E00
0E00
0E00
0E00
0E00
0E00
0E00
0E00
0E00
0E00
ENDCHAR
STARTCHAR uni0423
ENCODING 1059
SWIDTH 602 0
DWIDTH 14 0
BBX 14 18 0 0
BITMAP
F01C
703C
7838
3878
3C78
1C70
1EF0
0EE0
0FE0
07E0
07C0
03C0
0380
0780
0780
3F00
3E00
3C00
ENDCHAR
STARTCHAR uni0424
ENCODING 1060
SWIDTH 602 0
DWIDTH 14 0
BBX 13 18 1 0
BITMAP
0700
1FC0
3FE0
7FF0
7770
E738
E738
E738
E738
E738
E738
E738
7770
7FF0
3FE0
1FC0
0700
0700
ENDCHAR
STARTCHAR uni0425
ENCODING 1061
SWIDTH 602 0
DWIDTH 14 0
BBX 14 18 0 0
BITMAP
F03C
7038
7878
3CF0
1CE0
1FE0
0FC0
0FC0
0780
0780
0FC0
0FC0
1FE0
1CE0
3CF0
7878
7038
F03C
ENDCHAR
STARTCHAR uni0426
ENCODING 1062
SWIDTH 602 0
DWIDTH 14 0
BBX 13 22 2 -4
BITMAP
E0E0
E0E0
E0E0
E0E0
E0E0
E0E0
E0E0
E0E0
E0E0
E0E0
E0E0
E0E0
E0E0
E0E0
E0E0
FFF8
FFF8
FFF8
0038
0038
0038
0038
ENDCHAR
STARTCHAR uni0427
ENCODING 1063
SWIDTH 602 0
DWIDTH 14 0
BBX 11 18 1 0
BITMAP
E0E0
E0E0
E0E0
E0E0
E0E0
E0E0
E0E0
F1E0
FFE0
7FE0
3EE0
00E0
00E0
00E0
00E0
00E0
00E0
00E0
ENDCHAR
STARTCHAR uni0428
ENCODING 1064
SWIDTH 602 0
DWIDTH 14 0
BBX 13 18 1 0
BITMAP
E738
E738
E738
E738
E738
E738
E738
E738
E738
E738
E738
E738
E738
E738
E738
FFF8
FFF8
FFF8
ENDCHAR
STARTCHAR uni0429
ENCODING 1065
SWIDTH 602 0
DWIDTH 14 0
BBX 14 22 1 -4
BITMAP
E738
E738
E738
E738
E738
E738
E738
E738
E738
E738
E738
E738
E738
E738
E738
FFFC
FFFC
FFFC
001C
001C
001C
001C
ENDCHAR
STARTCHAR uni042A
ENCODING 1066
SWIDTH 602 0
DWIDTH 14 0
BBX 14 18 0 0
BITMAP
FE00
FE00
FE00
1E00
1E00
1E00
1E00
1F80
1FF0
1FF8
1E78
1E3C
1E3C
1E3C
1E3C
1FF8
1FF0
1FE0
ENDCHAR
STARTCHAR uni042B
ENCODING 1067
SWIDTH 602 0
DWIDTH 14 0
BBX 14 18 0 0
BITMAP
E01C
E01C
E01C
E01C
E01C
E01C
E01C
F81C
FF1C
FF9C
E3DC
E1DC
E1DC
E1DC
E3DC
FF9C
FF1C
FE1C
ENDCHAR
STARTCHAR uni042C
ENCODING 1068
SWIDTH 602 0
DWIDTH 14 0
BBX 11 18 1 0
BITMAP
E000
E000
E000
E000
E000
E000
E000
FF00
FFC0
FFC0
E1E0
E0E0
E0E0
E0E0
E1E0
FFC0
FFC0
FF00
ENDCHAR
STARTCHAR uni042D
ENCODING 1069
SWIDTH 602 0
DWIDTH 14 0
BBX 11 18 2 0
BITMAP
7C00
FF00
FF80
CF80
03C0
03C0
01C0
01E0
7FE0
7FE0
7FE0
01E0
01C0
03C0
87C0
FF80
FF00
FE00
ENDCHAR
STARTCHAR uni042E
ENCODING 1070
SWIDTH 602 0
DWIDTH 14 0
BBX 14 18 0 0
BITMAP
E1E0
E3F0
E7F8
E738
E73C
EE1C
EE1C
FE1C
FE1C
FE1C
EE1C
EE1C
EE1C
E738
E738
E7F8
E3F0
E1E0
ENDCHAR
STARTCHAR uni042F
ENCODING 1071
SWIDTH 602 0
DWIDTH 14 0
BBX 12 18 1 0
BITMAP
0FF0
3FF0
7FF0
7870
7070
7070
7070
7870
3FF0
1FF0
1FF0
1E70
1C70
3C70
3870
7870
7070
F070
ENDCHAR
STARTCHAR uni0430
ENCODING 1072
SWIDTH 602 0
DWIDTH 14 0
BBX 12 13 1 0
BITMAP
3F80
7FE0
7FE0
60F0
0070
3FF0
7FF0
FFF0
E070
E0F0
FFF0
7FF0
3E70
ENDCHAR
STARTCHAR uni0431
ENCODING 1073
SWIDTH 602 0
DWIDTH 14 0
BBX 12 18 1 0
BITMAP
0FC0
3FE0
7FE0
F800
E000
EF80
FFC0
FFE0
F0E0
E070
E070
E070
E070
E070
70E0
7FE0
3FC0
1F80
ENDCHAR
STARTCHAR uni0432
ENCODING 1074
SWIDTH 602 0
DWIDTH 14 0
BBX 12 13 1 0
BITMAP
FF80
FFC0
FFE0
E0E0
E0E0
FFC0
FF80
FFE0
E070
E070
FFF0
FFE0
FFC0
ENDCHAR
STARTCHAR uni0433
ENCODING 1075
SWIDTH 602 0
DWIDTH 14 0
BBX 9 13 3 0
BITMAP
FF80
FF80
FF80
E000
E000
E000
E000
E000
E000
E000
E000
E000
E000
ENDCHAR
STARTCHAR uni0434
ENCODING 1076
SWIDTH 602 0
DWIDTH 14 0
BBX 13 16 0 -3
BITMAP
3FF0
3FF0
3FF0
3870
3870
3870
3870
3870
3870
3870
FFF8
FFF8
FFF8
E038
E038
E038
ENDCHAR
STARTCHAR uni0435
ENCODING 1077
SWIDTH 602 0
DWIDTH 14 0
BBX 12 13 1 0
BITMAP
1F80
3FC0
7FE0
70F0
E070
FFF0
FFF0
FFF0
E000
F020
7FE0
3FE0
1FC0
ENDCHAR
STARTCHAR uni0436
ENCODING 1078
SWIDTH 602 0
DWIDTH 14 0
BBX 13 13 1 0
BITMAP
E738
F778
7770
7FF0
3FE0
3FE0
3FE0
7FF0
7FF0
7770
E738
E738
E738
ENDCHAR
STARTCHAR uni0437
ENCODING 1079
SWIDTH 602 0
DWIDTH 14 0
BBX 11 13 2 0
BITMAP
3F00
7FC0
FFE0
C0E0
80E0
1FC0
1F80
1FC0
80E0
C0E0
FFE0
7FC0
3F00
ENDCHAR
STARTCHAR uni0438
ENCODING 1080
SWIDTH 602 0
DWIDTH 14 0
BBX 11 13 2 0
BITMAP
E0E0
E1E0
E3E0
E3E0
E7E0
E7E0
EEE0
FCE0
FCE0
F8E0
F8E0
F0E0
E0E0
ENDCHAR
STARTCHAR uni0439
ENCODING 1081
SWIDTH 602 0
DWIDTH 14 0
BBX 11 19 2 0
BITMAP
6180
7F80
1E00
0000
0000
0000
E0E0
E1E0
E3E0
E3E0
E7E0
E7E0
EEE0
FCE0
FCE0
F8E0
F8E0
F0E0
E0E0
ENDCHAR
STARTCHAR uni043A
ENCODING 1082
SWIDTH 602 0
DWIDTH 14 0
BBX 12 13 2 0
BITMAP
E1E0
E3C0
E780
EF00
FE00
FE00
FF00
F700
E780
E3C0
E1C0
E1E0
E0F0
ENDCHAR
STARTCHAR uni043B
ENCODING 1083
SWIDTH 602 0
DWIDTH 14 0
BBX 12 13 1 0
BITMAP
3FF0
3FF0
3FF0
3870
3870
3870
3870
3870
3870
7870
F070
F070
E070
ENDCHAR
STARTCHAR uni043C
ENCODING 1084
SWIDTH 602 0
DWIDTH 14 0
BBX 12 13 1 0
BITMAP
F0F0
F9F0
F9F0
F9F0
F9F0
FBF0
EF70
EF70
EF70
EF70
E670
E070
E070
ENDCHAR
STARTCHAR uni043D
ENCODING 1085
SWIDTH 602 0
DWIDTH 14 0
BBX 11 13 2 0
BITMAP
E0E0
E0E0
E0E0
E0E0
FFE0
FFE0
FFE0
E0E0
E0E0
E0E0
E0E0
E0E0
E0E0
ENDCHAR
STARTCHAR uni043E
ENCODING 1086
SWIDTH 602 0
DWIDTH 14 0
BBX 12 13 1 0
BITMAP
1F80
3FC0
7FE0
F0E0
E070
E070
E070
E070
E070
70E0
7FE0
3FC0
1F80
ENDCHAR
STARTCHAR uni043F
ENCODING 1087
SWIDTH 602 0
DWIDTH 14 0
BBX 11 13 2 0
BITMAP
FFE0
FFE0
FFE0
E0E0
E0E0
E0E0
E0E0
E0E0
E0E0
E0E0
E0E0
E0E0
E0E0
ENDCHAR
STARTCHAR uni0440
ENCODING 1088
SWIDTH 602 0
DWIDTH 14 0
BBX 12 18 1 -5
BITMAP
E780
EFC0
FFE0
F0F0
E070
E070
E070
E070
E070
F0F0
FFE0
EFC0
E780
E000
E000
E000
E000
E000
ENDCHAR
STARTCHAR uni0441
ENCODING 1089
SWIDTH 602 0
DWIDTH 14 0
BBX 11 13 2 0
BITMAP
0FC0
3FE0
7FE0
7820
F000
E000
E000
E000
F000
7820
7FE0
3FE0
0FC0
ENDCHAR
STARTCHAR uni0442
ENCODING 1090
SWIDTH 602 0
DWIDTH 14 0
BBX 11 13 2 0
BITMAP
FFE0
FFE0
FFE0
0E00
0E00
0E00
0E00
0E00
0E00
0E00
0E00
0E00
0E00
ENDCHAR
STARTCHAR uni0443
ENCODING 1091
SWIDTH 602 0
DWIDTH 14 0
BBX 12 18 1 -5
BITMAP
F0F0
70E0
70E0
79E0
39C0
39C0
3DC0
1F80
1F80
0F80
0F00
0F00
0F00
0E00
1E00
7E00
7C00
7800
ENDCHAR
STARTCHAR uni0444
ENCODING 1092
SWIDTH 602 0
DWIDTH 14 0
BBX 13 23 1 -5
BITMAP
0700
0700
0700
0700
0700
1FC0
3FE0
7FF0
7770
E738
E738
E738
E738
E738
F770
7FF0
3FE0
1FC0
0700
0700
0700
0700
0700
ENDCHAR
STARTCHAR uni0445
ENCODING 1093
SWIDTH 602 0
DWIDTH 14 0
BBX 12 13 1 0
BITMAP
F0F0
79E0
39C0
3FC0
1F80
0F00
0F00
1F80
1F80
3FC0
39C0
79E0
F0F0
ENDCHAR
STARTCHAR uni0446
ENCODING 1094
SWIDTH 602 0
DWIDTH 14 0
BBX 13 16 1 -3
BITMAP
E0E0
E0E0
E0E0
E0E0
E0E0
E0E0
E0E0
E0E0
E0E0
E0E0
FFF8
FFF8
FFF8
0038
0038
0038
ENDCHAR
STARTCHAR uni0447
ENCODING 1095
SWIDTH 602 0
DWIDTH 14 0
BBX 11 13 2 0
BITMAP
E0E0
E0E0
E0E0
E0E0
E0E0
F0E0
FFE0
7FE0
1FE0
00E0
00E0
00E0
00E0
ENDCHAR
STARTCHAR uni0448
ENCODING 1096
SWIDTH 602 0
DWIDTH 14 0
BBX 13 13 1 0
BITMAP
E738
E738
E738
E738
E738
E738
E738
E738
E738
E738
FFF8
FFF8
FFF8
ENDCHAR
STARTCHAR uni0449
ENCODING 1097
SWIDTH 602 0
DWIDTH 14 0
BBX 14 16 1 -3
BITMAP
E738
E738
E738
E738
E738
E738
E738
E738
E738
E738
FFFC
FFFC
FFFC
001C
001C
001C
ENDCHAR
STARTCHAR uni044A
ENCODING 1098
SWIDTH 602 0
DWIDTH 14 0
BBX 14 13 0 0
BITMAP
FE00
FE00
FE00
1E00
1E00
1FF0
1FF8
1EF8
1E3C
1E3C
1FF8
1FF8
1FE0
ENDCHAR
STARTCHAR uni044B
ENCODING 1099
SWIDTH 602 0
DWIDTH 14 0
BBX 14 13 0 0
BITMAP
F01C
F01C
F01C
F01C
F01C
FE1C
FF9C
FF9C
F39C
F39C
FF9C
FF1C
FE1C
ENDCHAR
STARTCHAR uni044C
ENCODING 1100
SWIDTH 602 0
DWIDTH 14 0
BBX 11 13 2 0
BITMAP
E000
E000
E000
E000
E000
FF80
FFC0
FFE0
E0E0
E0E0
FFE0
FFC0
FF80
ENDCHAR
STARTCHAR uni044D
ENCODING 1101
SWIDTH 602 0
DWIDTH 14 0
BBX 10 13 2 0
BITMAP
FF00
FF80
E7C0
03C0
01C0
7FC0
7FC0
7FC0
01C0
03C0
EF80
FF80
FE00
ENDCHAR
STARTCHAR uni044E
ENCODING 1102
SWIDTH 602 0
DWIDTH 14 0
BBX 13 13 1 0
BITMAP
E3C0
E7E0
E7F0
EF78
EE38
FE38
FE38
FE38
EE38
EF78
E7F0
E7E0
E3C0
ENDCHAR
STARTCHAR uni044F
ENCODING 1103
SWIDTH 602 0
DWIDTH 14 0
BBX 12 13 1 0
BITMAP
1FF0
3FF0
7FF0
7070
7070
7FF0
3FF0
1FF0
3C70
3C70
7870
7870
F070
ENDCHAR
STARTCHAR uni0450
ENCODING 1104
SWIDTH 602 0
DWIDTH 14 0
BBX 12 19 1 0
BITMAP
3800
1C00
0E00
0700
0000
0000
1F80
3FC0
7FE0
70F0
E070
FFF0
FFF0
FFF0
E000
F020
7FE0
3FE0
1FC0
ENDCHAR
STARTCHAR uni0451
ENCODING 1105
SWIDTH 602 0
DWIDTH 14 0
BBX 12 19 1 0
BITMAP
1CE0
1CE0
1CE0
0000
0000
0000
1F80
3FC0
7FE0
70F0
E070
FFF0
FFF0
FFF0
E000
F020
7FE0
3FE0
1FC0
ENDCHAR
STARTCHAR uni0452
ENCODING 1106
SWIDTH 602 0
DWIDTH 14 0
BBX 13 23 0 -5
BITMAP
3C00
3C00
3C00
3C00
3C00
FFE0
FFE0
FFE0
3C00
3DF0
3FF8
3FF8
3C38
3C38
3C38
3C38
3C38
3C38
0078
0070
01F0
01E0
0180
ENDCHAR
STARTCHAR uni0453
ENCODING 1107
SWIDTH 602 0
DWIDTH 14 0
BBX 9 19 3 0
BITMAP
0380
0700
0E00
1C00
0000
0000
FF80
FF80
FF80
E000
E000
E000
E000
E000
E000
E000
E000
E000
E000
ENDCHAR
STARTCHAR uni0454
ENCODING 1108
SWIDTH 602 0
DWIDTH 14 0
BBX 11 13 2 0
BITMAP
0FC0
3FE0
7FE0
7020
E000
FF80
FF80
FF80
E000
7020
7FE0
3FE0
0FC0
ENDCHAR
STARTCHAR uni0455
ENCODING 1109
SWIDTH 602 0
DWIDTH 14 0
BBX 11 13 2 0
BITMAP
3F80
7FC0
FFC0
E040
F800
FF80
7FC0
0FE0
00E0
C0E0
FFE0
FFC0
3F80
ENDCHAR
STARTCHAR uni0456
ENCODING 1110
SWIDTH 602 0
DWIDTH 14 0
BBX 11 20 2 0
BITMAP
0E00
0E00
0E00
0E00
0000
0000
0000
7E00
7E00
7E00
0E00
0E00
0E00
0E00
0E00
0E00
0E00
FFE0
FFE0
FFE0
ENDCHAR
STARTCHAR uni0457
ENCODING 1111
SWIDTH 602 0
DWIDTH 14 0
BBX 11 19 2 0
BITMAP
39C0
39C0
39C0
0000
0000
0000
7E00
7E00
7E00
0E00
0E00
0E00
0E00
0E00
0E00
0E00
FFE0
FFE0
FFE0
ENDCHAR
STARTCHAR uni0458
ENCODING 1112
SWIDTH 602 0
DWIDTH 14 0
BBX 8 25 2 -5
BITMAP
07
07
07
07
00
00
00
3F
3F
3F
07
07
07
07
07
07
07
07
07
07
07
0F
FF
FE
FC
ENDCHAR
STARTCHAR uni0459
ENCODING 1113
SWIDTH 602 0
DWIDTH 14 0
BBX 14 13 0 0
BITMAP
1FC0
1FC0
19C0
19C0
19C0
19F0
39FC
39FC
39CC
39DC
F9FC
F1FC
E1F0
ENDCHAR
STARTCHAR uni045A
ENCODING 1114
SWIDTH 602 0
DWIDTH 14 0
BBX 14 13 0 0
BITMAP
E1C0
E1C0
E1C0
E1C0
FFC0
FFF0
FFFC
E1FC
E1CC
E1DC
E1FC
E1FC
E1F0
ENDCHAR
STARTCHAR uni045B
ENCODING 1115
SWIDTH 602 0
DWIDTH 14 0
BBX 13 18 0 0
BITMAP
3C00
3C00
3C00
3C00
3C00
FFE0
FFE0
FFE0
3C00
3DE0
3FF0
3FF8
3C78
3C78
3C78
3C78
3C78
3C78
ENDCHAR
STARTCHAR uni045C
ENCODING 1116
SWIDTH 602 0
DWIDTH 14 0
BBX 12 19 2 0
BITMAP
01C0
0380
0700
0E00
0000
0000
E1E0
E3C0
E780
EF00
FE00
FE00
FF00
F700
E780
E3C0
E1C0
E1E0
E0F0
ENDCHAR
STARTCHAR uni045D
ENCODING 1117
SWIDTH 602 0
DWIDTH 14 0
BBX 11 19 2 0
BITMAP
7000
3800
1C00
0E00
0000
0000
E0E0
E1E0
E3E0
E3E0
E7E0
E7E0
EEE0
FCE0
FCE0
F8E0
F8E0
F0E0
E0E0
ENDCHAR
STARTCHAR uni045E
ENCODING 1118
SWIDTH 602 0
DWIDTH 14 0
BBX 12 24 1 -5
BITMAP
30C0
3FC0
0F00
0000
0000
0000
F0F0
70E0
70E0
79E0
39C0
39C0
3DC0
1F80
1F80
0F80
0F00
0F00
0F00
0E00
1E00
7E00
7C00
7800
ENDCHAR
STARTCHAR uni045F
ENCODING 1119
SWIDTH 602 0
DWIDTH 14 0
BBX 11 16 2 -3
BITMAP
E1E0
E1E0
E1E0
E1E0
E1E0
E1E0
E1E0
E1E0
E1E0
E1E0
FFE0
FFE0
FFE0
0E00
0E00
0E00
ENDCHAR
STARTCHAR uni0462
ENCODING 1122
SWIDTH 602 0
DWIDTH 14 0
BBX 14 18 0 0
BITMAP
1E00
1E00
FFC0
FFC0
FFC0
1E00
1E00
1F80
1FF0
1FF8
1E78
1E3C
1E3C
1E3C
1E3C
1FF8
1FF0
1FE0
ENDCHAR
STARTCHAR uni0463
ENCODING 1123
SWIDTH 602 0
DWIDTH 14 0
BBX 14 18 0 0
BITMAP
1E00
1E00
1E00
1E00
FFF0
FFF0
FFF0
1E00
1E00
1E00
1FF0
1FF8
1EF8
1E3C
1E3C
1FF8
1FF8
1FE0
ENDCHAR
STARTCHAR uni0472
ENCODING 1138
SWIDTH 602 0
DWIDTH 14 0
BBX 12 18 1 0
BITMAP
0F00
3FC0
3FE0
79E0
70F0
F0F0
F070
FFF0
FFF0
FFF0
F070
F070
F070
70F0
78F0
7FE0
3FE0
1F80
ENDCHAR
STARTCHAR uni0473
ENCODING 1139
SWIDTH 602 0
DWIDTH 14 0
BBX 12 13 1 0
BITMAP
1FC0
3FE0
7DE0
70F0
F070
F070
FFF0
FFF0
F070
70F0
7FE0
3FE0
1F80
ENDCHAR
STARTCHAR uni0490
ENCODING 1168
SWIDTH 602 0
DWIDTH 14 0
BBX 11 22 2 0
BITMAP
00E0
00E0
00E0
00E0
FFE0
FFE0
FFE0
E000
E000
E000
E000
E000
E000
E000
E000
E000
E000
E000
E000
E000
E000
E000
ENDCHAR
STARTCHAR uni0491
ENCODING 1169
SWIDTH 602 0
DWIDTH 14 0
BBX 9 17 3 0
BITMAP
0180
0180
0180
0180
FF80
FF80
FF80
E000
E000
E000
E000
E000
E000
E000
E000
E000
E000
ENDCHAR
STARTCHAR uni0492
ENCODING 1170
SWIDTH 602 0
DWIDTH 14 0
BBX 12 18 1 0
BITMAP
7FF0
7FF0
7FF0
7FF0
7800
7800
7800
FFC0
FFC0
FFC0
7800
7800
7800
7800
7800
7800
7800
7800
ENDCHAR
STARTCHAR uni0493
ENCODING 1171
SWIDTH 602 0
DWIDTH 14 0
BBX 11 13 1 0
BITMAP
3FE0
3FE0
3800
3800
3800
FF80
FF80
FF80
3800
3800
3800
3800
3800
ENDCHAR
STARTCHAR uni0494
ENCODING 1172
SWIDTH 602 0
DWIDTH 14 0
BBX 12 23 2 -5
BITMAP
FFE0
FFE0
FFE0
FFE0
F000
F000
F000
FFC0
FFE0
FFE0
F0E0
F0F0
F0F0
F0F0
F0F0
F0F0
F0F0
F0F0
00F0
00E0
0FE0
0FE0
0FC0
ENDCHAR
STARTCHAR uni0495
ENCODING 1173
SWIDTH 602 0
DWIDTH 14 0
BBX 10 18 3 -5
BITMAP
FF80
FF80
E000
E000
E000
FC00
FF00
FF80
E780
E3C0
E3C0
E3C0
E3C0
03C0
0380
1F80
1F80
1E00
ENDCHAR
STARTCHAR uni0496
ENCODING 1174
SWIDTH 602 0
DWIDTH 14 0
BBX 14 22 0 -4
BITMAP
E39C
739C
73B8
7BB8
3BB8
3BF0
1FF0
1FE0
1FF0
1FF0
3FF0
3FF0
3FB8
73B8
73B8
739C
739C
E39C
001C
001C
001C
001C
ENDCHAR
STARTCHAR uni0497
ENCODING 1175
SWIDTH 602 0
DWIDTH 14 0
BBX 14 16 0 -3
BITMAP
739C
73B8
3BF8
3FF0
1FF0
1FF0
1FF0
3FF0
3FB8
73B8
73BC
739C
E39C
000C
000C
000C
ENDCHAR
STARTCHAR uni0498
ENCODING 1176
SWIDTH 602 0
DWIDTH 14 0
BBX 12 23 1 -5
BITMAP
1F80
7FE0
7FF0
40F0
0070
0070
00F0
1FE0
1F80
1FE0
00F0
0070
0070
0070
C0F0
FFE0
FFE0
3F80
0300
0300
0300
1F00
1F00
ENDCHAR
STARTCHAR uni0499
ENCODING 1177
SWIDTH 602 0
DWIDTH 14 0
BBX 11 18 2 -5
BITMAP
3F00
7FC0
FFE0
C0E0
80E0
1FC0
1F80
1FC0
80E0
C0E0
FFE0
7FC0
3F00
0400
0600
0600
3E00
3C00
ENDCHAR
STARTCHAR uni049A
ENCODING 1178
SWIDTH 602 0
DWIDTH 14 0
BBX 13 22 1 -4
BITMAP
F078
F0F0
F0F0
F1E0
F3C0
F780
F700
FF00
FF00
FF80
FB80
F3C0
F1C0
F1E0
F0E0
F0F8
F078
F078
0038
0038
0038
0038
ENDCHAR
STARTCHAR uni049B
ENCODING 1179
SWIDTH 602 0
DWIDTH 14 0
BBX 12 16 2 -3
BITMAP
E1E0
E3C0
E780
EF00
FE00
FE00
FF00
F780
E380
E3C0
E1C0
E1F0
E0F0
0070
0070
0070
ENDCHAR
STARTCHAR uni04A2
ENCODING 1186
SWIDTH 602 0
DWIDTH 14 0
BBX 14 22 0 -4
BITMAP
F0F0
F0F0
F0F0
F0F0
F0F0
F0F0
F0F0
FFF0
FFF0
FFF0
F0F0
F0F0
F0F0
F0F0
F0F0
F0FC
F0FC
F0FC
001C
001C
001C
001C
ENDCHAR
STARTCHAR uni04A3
ENCODING 1187
SWIDTH 602 0
DWIDTH 14 0
BBX 14 16 0 -3
BITMAP
F1E0
F1E0
F1E0
F1E0
FFE0
FFE0
FFE0
F1E0
F1E0
F1E0
F1E0
F1FC
F1FC
001C
001C
001C
ENDCHAR
STARTCHAR uni04A4
ENCODING 1188
SWIDTH 602 0
DWIDTH 14 0
BBX 13 18 1 0
BITMAP
E3F8
E3F8
E3F8
E380
E380
E380
E380
FF80
FF80
FF80
E380
E380
E380
E380
E380
E380
E380
E380
ENDCHAR
STARTCHAR uni04A5
ENCODING 1189
SWIDTH 602 0
DWIDTH 14 0
BBX 13 13 1 0
BITMAP
E1F8
E1F8
E180
E180
FF80
FF80
FF80
E180
E180
E180
E180
E180
E180
ENDCHAR
STARTCHAR uni04AA
ENCODING 1194
SWIDTH 602 0
DWIDTH 14 0
BBX 11 23 2 -5
BITMAP
0FC0
1FE0
3FE0
7860
7020
F000
E000
E000
E000
E000
E000
E000
F000
7020
7860
3FE0
1FE0
0FC0
0180
0180
0180
0F80
0F80
ENDCHAR
STARTCHAR uni04AB
ENCODING 1195
SWIDTH 602 0
DWIDTH 14 0
BBX 11 18 2 -5
BITMAP
0FC0
3FE0
7FE0
7820
F000
E000
E000
E000
F000
7820
7FE0
3FE0
0FC0
0300
0180
0180
0F80
0F00
ENDCHAR
STARTCHAR uni04AC
ENCODING 1196
SWIDTH 602 0
DWIDTH 14 0
BBX 12 22 1 -4
BITMAP
FFF0
FFF0
FFF0
FFF0
0F00
0F00
0F00
0F00
0F00
0F00
0F00
0F00
0F00
0F00
0F00
0FE0
0FE0
0FE0
00E0
00E0
00E0
00E0
ENDCHAR
STARTCHAR uni04AD
ENCODING 1197
SWIDTH 602 0
DWIDTH 14 0
BBX 11 16 2 -3
BITMAP
FFE0
FFE0
0E00
0E00
0E00
0E00
0E00
0E00
0E00
0E00
0E00
0FC0
0FC0
01C0
01C0
01C0
ENDCHAR
STARTCHAR uni04AE
ENCODING 1198
SWIDTH 602 0
DWIDTH 14 0
BBX 13 18 1 0
BITMAP
F078
7070
78F0
38E0
3DE0
1DC0
1DC0
1FC0
0F80
0F80
0700
0700
0700
0700
0700
0700
0700
0700
ENDCHAR
STARTCHAR uni04AF
ENCODING 1199
SWIDTH 602 0
DWIDTH 14 0
BBX 13 18 1 -5
BITMAP
F078
F070
70F0
78E0
78E0
39E0
3DC0
1DC0
1FC0
1F80
0F80
0F00
0F00
0700
0700
0700
0700
0700
ENDCHAR
STARTCHAR uni04B0
ENCODING 1200
SWIDTH 602 0
DWIDTH 14 0
BBX 14 18 0 0
BITMAP
F01C
703C
7838
3878
3C70
1CF0
1EE0
0FE0
0FC0
07C0
0780
0780
1FF0
1FF0
1FF0
0780
0780
0780
ENDCHAR
STARTCHAR uni04B1
ENCODING 1201
SWIDTH 602 0
DWIDTH 14 0
BBX 13 18 1 -5
BITMAP
F078
F070
70F0
78E0
78E0
39E0
3DC0
1DC0
1FC0
1F80
0F80
0F00
0F00
3FC0
3FC0
3FC0
0700
0700
ENDCHAR
STARTCHAR uni04B2
ENCODING 1202
SWIDTH 602 0
DWIDTH 14 0
BBX 14 22 0 -4
BITMAP
F03C
7838
3878
3C70
1CF0
1EE0
0FE0
07C0
0780
0780
07C0
0FC0
1FE0
1CF0
3C70
387C
783C
703C
001C
001C
001C
001C
ENDCHAR
STARTCHAR uni04B3
ENCODING 1203
SWIDTH 602 0
DWIDTH 14 0
BBX 13 16 1 -3
BITMAP
F0F0
79E0
3DE0
1FC0
1F80
0F00
0F00
0F80
1FC0
3DC0
79E0
78F8
F0F8
0078
0078
0078
ENDCHAR
STARTCHAR uni04BA
ENCODING 1210
SWIDTH 602 0
DWIDTH 14 0
BBX 12 18 1 0
BITMAP
F000
F000
F000
F000
F000
F000
F7E0
FFF0
FFF0
F0F0
F070
F070
F070
F070
F070
F070
F070
F070
ENDCHAR
STARTCHAR uni04BB
ENCODING 1211
SWIDTH 602 0
DWIDTH 14 0
BBX 11 18 2 0
BITMAP
E000
E000
E000
E000
E000
E780
FFC0
FFE0
F1E0
E0E0
E0E0
E0E0
E0E0
E0E0
E0E0
E0E0
E0E0
E0E0
ENDCHAR
STARTCHAR uni04C0
ENCODING 1216
SWIDTH 602 0
DWIDTH 14 0
BBX 9 18 3 0
BITMAP
FF80
FF80
FF80
1C00
1C00
1C00
1C00
1C00
1C00
1C00
1C00
1C00
1C00
1C00
1C00
FF80
FF80
FF80
ENDCHAR
STARTCHAR uni04C1
ENCODING 1217
SWIDTH 602 0
DWIDTH 14 0
BBX 15 22 0 0
BITMAP
1860
1FC0
0780
0000
739C
739C
739C
3BB8
3BB8
1FF0
1FF0
1FF0
1FF0
1FF0
3FF8
3FF8
3FF8
3BB8
739C
739C
739C
E38E
ENDCHAR
STARTCHAR uni04C2
ENCODING 1218
SWIDTH 602 0
DWIDTH 14 0
BBX 13 19 1 0
BITMAP
30C0
3FC0
0F00
0000
0000
0000
E738
F778
7770
7FF0
3FE0
3FE0
3FE0
7FF0
7FF0
7770
E738
E738
E738
ENDCHAR
STARTCHAR uni04C3
ENCODING 1219
SWIDTH 602 0
DWIDTH 14 0
BBX 13 23 1 -5
BITMAP
F078
F0F0
F0F0
F1E0
F3C0
F780
F700
FFC0
FFE0
FFF0
F8F0
F0F0
F0F0
F0F0
F0F0
F0F0
F0F0
F0F0
00F0
00F0
07E0
07E0
07C0
ENDCHAR
STARTCHAR uni04C4
ENCODING 1220
SWIDTH 602 0
DWIDTH 14 0
BBX 11 18 2 -5
BITMAP
E1E0
E3C0
E780
EF00
FE00
FE00
FF80
FFC0
E3C0
E3C0
E1C0
E1C0
E1C0
01C0
03C0
1FC0
1F80
1F00
ENDCHAR
STARTCHAR uni04C7
ENCODING 1223
SWIDTH 602 0
DWIDTH 14 0
BBX 11 23 2 -5
BITMAP
E1E0
E1E0
E1E0
E1E0
E1E0
E1E0
E1E0
FFE0
FFE0
FFE0
E1E0
E1E0
E1E0
E1E0
E1E0
E1E0
E1E0
E1E0
01E0
01E0
0FC0
0FC0
0F80
ENDCHAR
STARTCHAR uni04C8
ENCODING 1224
SWIDTH 602 0
DWIDTH 14 0
BBX 11 18 2 -5
BITMAP
E1E0
E1E0
E1E0
E1E0
FFE0
FFE0
FFE0
E1E0
E1E0
E1E0
E1E0
E1E0
E1E0
01E0
01C0
0FC0
0FC0
0F00
ENDCHAR
STARTCHAR uni04CB
ENCODING 1227
SWIDTH 602 0
DWIDTH 14 0
BBX 12 22 1 -4
BITMAP
F070
F070
F070
F070
F070
F070
F0F0
F1F0
7FF0
7FF0
3E70
0070
0070
0070
0070
07F0
07F0
07F0
0780
0780
0780
0780
ENDCHAR
STARTCHAR uni04CC
ENCODING 1228
SWIDTH 602 0
DWIDTH 14 0
BBX 10 16 2 -3
BITMAP
E1C0
E1C0
E1C0
E1C0
E1C0
F9C0
7FC0
3FC0
01C0
01C0
01C0
0FC0
0FC0
0E00
0E00
0E00
ENDCHAR
STARTCHAR uni04CF
ENCODING 1231
SWIDTH 602 0
DWIDTH 14 0
BBX 3 18 5 0
BITMAP
E0
E0
E0
E0
E0
E0
E0
E0
E0
E0
E0
E0
E0
E0
E0
E0
E0
E0
ENDCHAR
STARTCHAR uni04D0
ENCODING 1232
SWIDTH 602 0
DWIDTH 14 0
BBX 14 22 0 0
BITMAP
1860
1FC0
0780
0000
0780
0FC0
0FC0
0FC0
0FC0
1CE0
1CE0
1CE0
1CE0
3CF0
3870
3FF0
7FF8
7FF8
7038
7038
F03C
F03C
ENDCHAR
STARTCHAR uni04D1
ENCODING 1233
SWIDTH 602 0
DWIDTH 14 0
BBX 12 19 1 0
BITMAP
30C0
3FC0
0F00
0000
0000
0000
3F80
7FE0
7FE0
60F0
0070
3FF0
7FF0
FFF0
E070
E0F0
FFF0
7FF0
3E70
ENDCHAR
STARTCHAR uni04D2
ENCODING 1234
SWIDTH 602 0
DWIDTH 14 0
BBX 14 22 0 0
BITMAP
1CE0
1CE0
1CE0
0000
0780
0FC0
0FC0
0FC0
0FC0
1CE0
1CE0
1CE0
1CE0
3CF0
3870
3FF0
7FF8
7FF8
7038
7038
F03C
F03C
ENDCHAR
STARTCHAR uni04D3
ENCODING 1235
SWIDTH 602 0
DWIDTH 14 0
BBX 12 19 1 0
BITMAP
1CE0
1CE0
1CE0
0000
0000
0000
3F80
7FE0
7FE0
60F0
0070
3FF0
7FF0
FFF0
E070
E0F0
FFF0
7FF0
3E70
ENDCHAR
STARTCHAR uni04D4
ENCODING 1236
SWIDTH 602 0
DWIDTH 14 0
BBX 14 18 0 0
BITMAP
0FFC
0FFC
1FFC
1DC0
1DC0
1DC0
19C0
39F8
39F8
39F8
39C0
7FC0
7FC0
7FC0
71C0
71FC
E1FC
E1FC
ENDCHAR
STARTCHAR uni04D5
ENCODING 1237
SWIDTH 602 0
DWIDTH 14 0
BBX 14 13 0 0
BITMAP
3CF0
7EF8
7FFC
439C
039C
3FFC
7FFC
FFFC
E380
E3C4
FFFC
7EFC
3C78
ENDCHAR
STARTCHAR uni04D6
ENCODING 1238
SWIDTH 602 0
DWIDTH 14 0
BBX 11 22 2 0
BITMAP
7180
3F80
1F00
0000
FFE0
FFE0
FFE0
E000
E000
E000
E000
FFC0
FFC0
FFC0
E000
E000
E000
E000
E000
FFE0
FFE0
FFE0
ENDCHAR
STARTCHAR uni04D7
ENCODING 1239
SWIDTH 602 0
DWIDTH 14 0
BBX 12 19 1 0
BITMAP
30C0
1FC0
0F80
0000
0000
0000
1F80
3FC0
7FE0
70F0
E070
FFF0
FFF0
FFF0
E000
F020
7FE0
3FE0
1FC0
ENDCHAR
STARTCHAR uni04D8
ENCODING 1240
SWIDTH 602 0
DWIDTH 14 0
BBX 12 18 1 0
BITMAP
0780
1FC0
1FE0
18E0
00E0
0070
0070
0070
FFF0
FFF0
FFF0
E070
E070
70E0
70E0
7FE0
3FC0
0F00
ENDCHAR
STARTCHAR uni04D9
ENCODING 1241
SWIDTH 602 0
DWIDTH 14 0
BBX 12 13 1 0
BITMAP
1F80
3FC0
7FE0
60F0
4070
FFF0
FFF0
FFF0
E070
F0E0
7FE0
3FC0
1F80
ENDCHAR
STARTCHAR uni04DA
ENCODING 1242
SWIDTH 602 0
DWIDTH 14 0
BBX 12 22 1 0
BITMAP
1CE0
1CE0
1CE0
0000
0780
1FC0
1FE0
18E0
00E0
0070
0070
0070
FFF0
FFF0
FFF0
E070
E070
70E0
70E0
7FE0
3FC0
0F00
ENDCHAR
STARTCHAR uni04DB
ENCODING 1243
SWIDTH 602 0
DWIDTH 14 0
BBX 12 19 1 0
BITMAP
1CE0
1CE0
1CE0
0000
0000
0000
1F80
3FC0
7FE0
60F0
4070
FFF0
FFF0
FFF0
E070
F0E0
7FE0
3FC0
1F80
ENDCHAR
STARTCHAR uni04DC
ENCODING 1244
SWIDTH 602 0
DWIDTH 14 0
BBX 15 22 0 0
BITMAP
0E70
0E70
0E70
0000
739C
739C
739C
3BB8
3BB8
1FF0
1FF0
1FF0
1FF0
1FF0
3FF8
3FF8
3FF8
3BB8
739C
739C
739C
E38E
ENDCHAR
STARTCHAR uni04DD
ENCODING 1245
SWIDTH 602 0
DWIDTH 14 0
BBX 13 19 1 0
BITMAP
1CE0
1CE0
1CE0
0000
0000
0000
E738
F778
7770
7FF0
3FE0
3FE0
3FE0
7FF0
7FF0
7770
E738
E738
E738
ENDCHAR
STARTCHAR uni04DE
ENCODING 1246
SWIDTH 602 0
DWIDTH 14 0
BBX 12 22 1 0
BITMAP
1CE0
1CE0
1CE0
0000
1F80
7FE0
7FF0
40F0
0070
0070
00F0
1FE0
1F80
1FE0
00F0
0070
0070
0070
C0F0
FFE0
FFE0
3F80
ENDCHAR
STARTCHAR uni04DF
ENCODING 1247
SWIDTH 602 0
DWIDTH 14 0
BBX 11 19 2 0
BITMAP
39C0
39C0
39C0
0000
0000
0000
3F00
7FC0
FFE0
C0E0
80E0
1FC0
1F80
1FC0
80E0
C0E0
FFE0
7FC0
3F00
ENDCHAR
STARTCHAR uni04E0
ENCODING 1248
SWIDTH 602 0
DWIDTH 14 0
BBX 14 18 0 0
BITMAP
3FF8
3FF8
3FF8
3FF8
01F0
03E0
07C0
0F80
0FE0
0FF8
00FC
003C
003C
F03C
F83C
7FFC
7FF8
1FF0
ENDCHAR
STARTCHAR uni04E1
ENCODING 1249
SWIDTH 602 0
DWIDTH 14 0
BBX 12 18 1 -5
BITMAP
7FE0
7FE0
01E0
03C0
0780
0780
0F00
1E00
1FC0
1FE0
03F0
00F0
00F0
00F0
C1F0
FFF0
FFE0
7F80
ENDCHAR
STARTCHAR uni04E2
ENCODING 1250
SWIDTH 602 0
DWIDTH 14 0
BBX 11 22 1 0
BITMAP
1FC0
1FC0
0000
0000
E1E0
E1E0
E1E0
E3E0
E3E0
E3E0
E6E0
E6E0
E6E0
ECE0
ECE0
FCE0
F8E0
F8E0
F8E0
F0E0
F0E0
F0E0
ENDCHAR
STARTCHAR uni04E3
ENCODING 1251
SWIDTH 602 0
DWIDTH 14 0
BBX 11 18 2 0
BITMAP
3F80
3F80
0000
0000
0000
E0E0
E1E0
E3E0
E3E0
E7E0
E7E0
EEE0
FCE0
FCE0
F8E0
F8E0
F0E0
E0E0
ENDCHAR
STARTCHAR uni04E4
ENCODING 1252
SWIDTH 602 0
DWIDTH 14 0
BBX 11 22 1 0
BITMAP
1CE0
1CE0
1CE0
0000
E1E0
E1E0
E1E0
E3E0
E3E0
E3E0
E6E0
E6E0
E6E0
ECE0
ECE0
FCE0
F8E0
F8E0
F8E0
F0E0
F0E0
F0E0
ENDCHAR
STARTCHAR uni04E5
ENCODING 1253
SWIDTH 602 0
DWIDTH 14 0
BBX 11 19 2 0
BITMAP
39C0
39C0
39C0
0000
0000
0000
E0E0
E1E0
E3E0
E3E0
E7E0
E7E0
EEE0
FCE0
FCE0
F8E0
F8E0
F0E0
E0E0
ENDCHAR
STARTCHAR uni04E6
ENCODING 1254
SWIDTH 602 0
DWIDTH 14 0
BBX 12 22 1 0
BITMAP
39C0
39C0
39C0
0000
0F00
3FC0
7FE0
70E0
70E0
E070
E070
E070
E070
E070
E070
E070
E070
70E0
70E0
7FE0
3FC0
0F00
ENDCHAR
STARTCHAR uni04E7
ENCODING 1255
SWIDTH 602 0
DWIDTH 14 0
BBX 12 19 1 0
BITMAP
39C0
39C0
39C0
0000
0000
0000
1F80
3FC0
7FE0
F0E0
E070
E070
E070
E070
E070
70E0
7FE0
3FC0
1F80
ENDCHAR
STARTCHAR uni04E8
ENCODING 1256
SWIDTH 602 0
DWIDTH 14 0
BBX 12 18 1 0
BITMAP
0F00
3FC0
3FE0
7DE0
70F0
F0F0
F070
FFF0
FFF0
FFF0
F070
F070
F070
70F0
78F0
7FE0
3FC0
1F80
ENDCHAR
STARTCHAR uni04E9
ENCODING 1257
SWIDTH 602 0
DWIDTH 14 0
BBX 12 13 1 0
BITMAP
1FC0
3FE0
7DE0
70F0
F070
F070
FFF0
FFF0
F070
70F0
7FE0
3FE0
1F80
ENDCHAR
STARTCHAR uni04EA
ENCODING 1258
SWIDTH 602 0
DWIDTH 14 0
BBX 12 22 1 0
BITMAP
1CE0
1CE0
1CE0
0000
0F00
3FC0
3FE0
7DE0
70F0
F0F0
F070
FFF0
FFF0
FFF0
F070
F070
F070
70F0
78F0
7FE0
3FC0
1F80
ENDCHAR
STARTCHAR uni04EB
ENCODING 1259
SWIDTH 602 0
DWIDTH 14 0
BBX 12 19 1 0
BITMAP
1CE0
1CE0
1CE0
0000
0000
0000
1FC0
3FE0
7DE0
70F0
F070
F070
FFF0
FFF0
F070
70F0
7FE0
3FE0
1F80
ENDCHAR
STARTCHAR uni04EC
ENCODING 1260
SWIDTH 602 0
DWIDTH 14 0
BBX 11 22 2 0
BITMAP
7380
7380
7380
0000
7C00
FF00
FF80
CF80
03C0
03C0
01C0
01E0
7FE0
7FE0
7FE0
01E0
01C0
03C0
87C0
FF80
FF00
FE00
ENDCHAR
STARTCHAR uni04ED
ENCODING 1261
SWIDTH 602 0
DWIDTH 14 0
BBX 10 19 2 0
BITMAP
7380
7380
7380
0000
0000
0000
FF00
FF80
E7C0
03C0
01C0
7FC0
7FC0
7FC0
01C0
03C0
EF80
FF80
FE00
ENDCHAR
STARTCHAR uni04EE
ENCODING 1262
SWIDTH 602 0
DWIDTH 14 0
BBX 14 22 0 0
BITMAP
0FE0
0FE0
0000
0000
F01C
703C
7838
3878
3C78
1C70
1EF0
0EE0
0FE0
07E0
07C0
03C0
0380
0780
0780
3F00
3E00
3C00
ENDCHAR
STARTCHAR uni04EF
ENCODING 1263
SWIDTH 602 0
DWIDTH 14 0
BBX 12 23 1 -5
BITMAP
1FC0
1FC0
0000
0000
0000
F0F0
70E0
70E0
79E0
39C0
39C0
3DC0
1F80
1F80
0F80
0F00
0F00
0F00
0E00
1E00
7E00
7C00
7800
ENDCHAR
STARTCHAR uni04F0
ENCODING 1264
SWIDTH 602 0
DWIDTH 14 0
BBX 14 22 0 0
BITMAP
0E70
0E70
0E70
0000
F01C
703C
7838
3878
3C78
1C70
1EF0
0EE0
0FE0
07E0
07C0
03C0
0380
0780
0780
3F00
3E00
3C00
ENDCHAR
STARTCHAR uni04F1
ENCODING 1265
SWIDTH 602 0
DWIDTH 14 0
BBX 12 24 1 -5
BITMAP
1CE0
1CE0
1CE0
0000
0000
0000
F0F0
70E0
70E0
79E0
39C0
39C0
3DC0
1F80
1F80
0F80
0F00
0F00
0F00
0E00
1E00
7E00
7C00
7800
ENDCHAR
STARTCHAR uni04F2
ENCODING 1266
SWIDTH 602 0
DWIDTH 14 0
BBX 14 22 0 0
BITMAP
0770
0EE0
1DC0
0000
F01C
703C
7838
3878
3C78
1C70
1EF0
0EE0
0FE0
07E0
07C0
03C0
0380
0780
0780
3F00
3E00
3C00
ENDCHAR
STARTCHAR uni04F3
ENCODING 1267
SWIDTH 602 0
DWIDTH 14 0
BBX 12 24 1 -5
BITMAP
0EE0
1CC0
1980
3300
0000
0000
F0F0
70E0
70E0
79E0
39C0
39C0
3DC0
1F80
1F80
0F80
0F00
0F00
0F00
0E00
1E00
7E00
7C00
7800
ENDCHAR
STARTCHAR uni04F4
ENCODING 1268
SWIDTH 602 0
DWIDTH 14 0
BBX 11 22 1 0
BITMAP
1CE0
1CE0
1CE0
0000
E0E0
E0E0
E0E0
E0E0
E0E0
E0E0
E0E0
F1E0
FFE0
7FE0
3EE0
00E0
00E0
00E0
00E0
00E0
00E0
00E0
ENDCHAR
STARTCHAR uni04F5
ENCODING 1269
SWIDTH 602 0
DWIDTH 14 0
BBX 11 19 2 0
BITMAP
39C0
39C0
39C0
0000
0000
0000
E0E0
E0E0
E0E0
E0E0
E0E0
F0E0
FFE0
7FE0
1FE0
00E0
00E0
00E0
00E0
ENDCHAR
STARTCHAR uni04F6
ENCODING 1270
SWIDTH 602 0
DWIDTH 14 0
BBX 11 22 2 -4
BITMAP
FFE0
FFE0
FFE0
FFE0
F000
F000
F000
F000
F000
F000
F000
F000
F000
F000
F000
FE00
FE00
FE00
0E00
0E00
0E00
0E00
ENDCHAR
STARTCHAR uni04F7
ENCODING 1271
SWIDTH 602 0
DWIDTH 14 0
BBX 9 16 3 -3
BITMAP
FF80
FF80
E000
E000
E000
E000
E000
E000
E000
E000
E000
FC00
FC00
1C00
1C00
1C00
ENDCHAR
STARTCHAR uni04F8
ENCODING 1272
SWIDTH 602 0
DWIDTH 14 0
BBX 14 22 0 0
BITMAP
0E70
0E70
0E70
0000
E01C
E01C
E01C
E01C
E01C
E01C
E01C
F81C
FF1C
FF9C
E3DC
E1DC
E1DC
E1DC
E3DC
FF9C
FF1C
FE1C
ENDCHAR
STARTCHAR uni04F9
ENCODING 1273
SWIDTH 602 0
DWIDTH 14 0
BBX 14 19 0 0
BITMAP
0E70
0E70
0E70
0000
0000
0000
F01C
F01C
F01C
F01C
F01C
FE1C
FF9C
FF9C
F39C
F39C
FF9C
FF1C
FE1C
ENDCHAR
STARTCHAR uni0510
ENCODING 1296
SWIDTH 602 0
DWIDTH 14 0
BBX 11 18 1 0
BITMAP
1F80
7FC0
FFC0
F0C0
E040
E000
F000
7F00
1F00
7F00
F000
E000
E000
E020
F060
7FE0
7FE0
1FC0
ENDCHAR
STARTCHAR uni0511
ENCODING 1297
SWIDTH 602 0
DWIDTH 14 0
BBX 10 13 2 0
BITMAP
3F80
7F80
FF80
E000
E000
7E00
1E00
7E00
E000
E000
FFC0
7FC0
3FC0
ENDCHAR
STARTCHAR uni051A
ENCODING 1306
SWIDTH 602 0
DWIDTH 14 0
BBX 12 21 1 -3
BITMAP
0F00
3FC0
7FE0
70E0
70E0
E070
E070
E070
E070
E070
E070
E070
E070
70F0
70E0
7FE0
3FC0
0FC0
01E0
00E0
0040
ENDCHAR
STARTCHAR uni051B
ENCODING 1307
SWIDTH 602 0
DWIDTH 14 0
BBX 12 18 1 -5
BITMAP
1E70
3F70
7FF0
F0F0
E070
E070
E070
E070
E070
F0F0
7FF0
3F70
1E70
0070
0070
0070
0070
0070
ENDCHAR
STARTCHAR uni051C
ENCODING 1308
SWIDTH 602 0
DWIDTH 14 0
BBX 14 18 0 0
BITMAP
E01C
E01C
E01C
E01C
601C
7798
77B8
77B8
77B8
77B8
77F8
7CF8
7CF8
3CF8
3CF0
3CF0
3870
3870
ENDCHAR
STARTCHAR uni051D
ENCODING 1309
SWIDTH 602 0
DWIDTH 14 0
BBX 14 13 0 0
BITMAP
E01C
E01C
E01C
6318
77B8
77B8
77B8
77B8
34B0
3CF0
3CF0
3CF0
3CF0
ENDCHAR
STARTCHAR uni0531
ENCODING 1329
SWIDTH 602 0
DWIDTH 14 0
BBX 12 19 1 -1
BITMAP
E0F0
E0F0
E0F0
E0F0
E0F0
E0F0
E0F0
E0F0
E0F0
E0F0
E0F0
E0F0
E3F0
E7F0
F3E0
FFF0
7FF0
3FE0
0020
ENDCHAR
STARTCHAR uni0532
ENCODING 1330
SWIDTH 602 0
DWIDTH 14 0
BBX 12 18 1 0
BITMAP
0F00
3FC0
7FE0
79F0
F0F0
F070
F070
F070
F000
F000
FFF0
FFF0
FFF0
F000
F000
F000
F000
F000
ENDCHAR
STARTCHAR uni0533
ENCODING 1331
SWIDTH 602 0
DWIDTH 14 0
BBX 14 18 0 0
BITMAP
0F80
3FE0
7FE0
79F0
7070
F070
F070
F070
7070
7870
7FFC
3FFC
1FFC
0070
0070
0070
0070
0070
ENDCHAR
STARTCHAR uni0534
ENCODING 1332
SWIDTH 602 0
DWIDTH 14 0
BBX 14 18 0 0
BITMAP
0F80
3FE0
7FE0
79F0
7070
F070
F070
F070
0070
0070
007C
007C
007C
0070
0070
0070
0070
0070
ENDCHAR
STARTCHAR uni0535
ENCODING 1333
SWIDTH 602 0
DWIDTH 14 0
BBX 12 18 1 0
BITMAP
F000
F000
F000
F000
F000
FFF0
FFF0
FFF0
F000
F000
F000
F070
F070
F0F0
F0F0
7FE0
7FE0
3FC0
ENDCHAR
STARTCHAR uni0536
ENCODING 1334
SWIDTH 602 0
DWIDTH 14 0
BBX 13 18 1 0
BITMAP
0F80
3FC0
7FE0
79F0
F0F0
F070
E070
E078
0070
0070
0070
00F0
00E0
01C0
F780
FFF0
FFF0
FFF0
ENDCHAR
STARTCHAR uni0537
ENCODING 1335
SWIDTH 602 0
DWIDTH 14 0
BBX 12 18 1 0
BITMAP
F000
F000
F000
F000
F000
FFF0
FFF0
FFF0
F000
F000
F000
F000
F000
F000
F000
FFE0
FFE0
FFE0
ENDCHAR
STARTCHAR uni0538
ENCODING 1336
SWIDTH 602 0
DWIDTH 14 0
BBX 12 18 1 0
BITMAP
0F00
3FC0
7FE0
79F0
F0F0
F070
F070
F070
F000
F000
F000
F000
F000
F000
F000
FFF0
FFF0
FFF0
ENDCHAR
STARTCHAR uni0539
ENCODING 1337
SWIDTH 602 0
DWIDTH 14 0
BBX 14 18 0 0
BITMAP
0F80
3FE0
7FF0
7070
7038
7038
E038
E038
E3FC
E7FC
E7FC
E738
E638
E638
E638
E7F8
E7F0
E3E0
ENDCHAR
STARTCHAR uni053A
ENCODING 1338
SWIDTH 602 0
DWIDTH 14 0
BBX 14 18 0 0
BITMAP
0070
0070
0070
0070
0070
07FC
3FFC
7FFC
7C70
7070
F070
F070
F070
F070
78F0
7FF0
3FE0
1FC0
ENDCHAR
STARTCHAR uni053B
ENCODING 1339
SWIDTH 602 0
DWIDTH 14 0
BBX 12 18 1 0
BITMAP
F000
F000
F000
F000
F000
FFC0
FFE0
FFF0
F0F0
F070
F070
F070
F000
F000
F000
F000
F000
F000
ENDCHAR
STARTCHAR uni053C
ENCODING 1340
SWIDTH 602 0
DWIDTH 14 0
BBX 11 18 2 0
BITMAP
E000
E000
E000
E000
E000
E000
E000
E000
E000
E000
E000
E000
E000
E000
E000
FFE0
FFE0
FFE0
ENDCHAR
STARTCHAR uni053D
ENCODING 1341
SWIDTH 602 0
DWIDTH 14 0
BBX 13 18 1 0
BITMAP
E000
E000
E000
E000
E000
FE38
FE38
FE38
EE38
EE38
EE38
EE38
EE38
EE38
EE70
E770
E7F0
E3E0
ENDCHAR
STARTCHAR uni053E
ENCODING 1342
SWIDTH 602 0
DWIDTH 14 0
BBX 14 18 0 0
BITMAP
E0F8
E3FC
E7FC
FF0C
FFE0
FFF0
39F8
7878
783C
783C
783C
783C
783C
783C
7838
3FF8
1FF0
0FE0
ENDCHAR
STARTCHAR uni053F
ENCODING 1343
SWIDTH 602 0
DWIDTH 14 0
BBX 12 18 1 0
BITMAP
F000
F000
F000
F000
F000
F070
F070
F070
F070
F0F0
79F0
7FF0
3FF0
0F70
0070
0070
0070
0070
ENDCHAR
STARTCHAR uni0540
ENCODING 1344
SWIDTH 602 0
DWIDTH 14 0
BBX 13 19 1 -1
BITMAP
03C0
03C0
01E0
00F0
00F0
03F8
0FE0
1F80
3E00
7C00
F000
F000
FC00
FF00
3FE0
0FF0
03F0
0070
0010
ENDCHAR
STARTCHAR uni0541
ENCODING 1345
SWIDTH 602 0
DWIDTH 14 0
BBX 12 18 1 0
BITMAP
0F00
3FC0
7FE0
79F0
F0F0
E070
E070
E070
0070
0070
0070
7EF0
FFE0
FFE0
E3E0
FFF0
FFF0
7E70
ENDCHAR
STARTCHAR uni0542
ENCODING 1346
SWIDTH 602 0
DWIDTH 14 0
BBX 14 18 0 0
BITMAP
0F80
3FE0
7FE0
79F0
7070
F070
F070
F070
0070
0070
0070
0070
0070
0070
0070
007C
007C
007C
ENDCHAR
STARTCHAR uni0543
ENCODING 1347
SWIDTH 602 0
DWIDTH 14 0
BBX 13 18 1 0
BITMAP
F018
78F8
79F8
3FF0
3FC0
1F80
0F00
1F00
3F80
3F80
7BC0
73C0
F1E0
F0E0
E0F0
FFF8
FFF8
7FF8
ENDCHAR
STARTCHAR uni0544
ENCODING 1348
SWIDTH 602 0
DWIDTH 14 0
BBX 14 18 0 0
BITMAP
F07C
F07C
F07C
F07C
F070
F070
F070
F070
F070
F070
F070
F070
F070
7070
78F0
7FF0
3FE0
1FC0
ENDCHAR
STARTCHAR uni0545
ENCODING 1349
SWIDTH 602 0
DWIDTH 14 0
BBX 13 18 1 0
BITMAP
0780
1FE0
3FE0
78F0
7870
0070
00F0
FFF0
FFC0
FFF0
00F0
0078
0078
7078
7878
7FF0
3FF0
1FC0
ENDCHAR
STARTCHAR uni0546
ENCODING 1350
SWIDTH 602 0
DWIDTH 14 0
BBX 14 18 0 0
BITMAP
FC00
FC00
FC00
FC00
3C00
3C00
3C00
3C00
3C00
3C00
3C00
3C1C
3C1C
3C3C
3C3C
1FF8
1FF8
0FF0
ENDCHAR
STARTCHAR uni0547
ENCODING 1351
SWIDTH 602 0
DWIDTH 14 0
BBX 13 18 1 0
BITMAP
6000
7E00
7F80
7FE0
1FF0
3DF0
7830
7000
F000
F000
E000
E078
F070
F070
F0F0
7FF0
3FE0
1FC0
ENDCHAR
STARTCHAR uni0548
ENCODING 1352
SWIDTH 602 0
DWIDTH 14 0
BBX 12 18 1 0
BITMAP
0F80
3FC0
7FE0
79F0
F0F0
F070
F070
F070
F070
F070
F070
F070
F070
F070
F070
F070
F070
F070
ENDCHAR
STARTCHAR uni0549
ENCODING 1353
SWIDTH 602 0
DWIDTH 14 0
BBX 13 19 1 -1
BITMAP
0F00
3FC0
7FE0
79F0
F0F0
F070
E078
E078
0070
0070
00F0
40F0
71E0
7FC0
7F80
3FE0
07E0
01E0
0020
ENDCHAR
STARTCHAR uni054A
ENCODING 1354
SWIDTH 602 0
DWIDTH 14 0
BBX 13 18 1 0
BITMAP
0F80
3FE0
7FF0
F770
E778
E738
E738
E738
0738
0738
0738
0738
0738
0038
0038
0038
0038
0038
ENDCHAR
STARTCHAR uni054B
ENCODING 1355
SWIDTH 602 0
DWIDTH 14 0
BBX 13 18 1 0
BITMAP
0F80
3FC0
7FE0
79F0
F0F0
E070
E078
F078
FE78
7F70
3F70
03F0
03E0
03C0
F780
FFF0
FFF0
FFF0
ENDCHAR
STARTCHAR uni054C
ENCODING 1356
SWIDTH 602 0
DWIDTH 14 0
BBX 14 18 0 0
BITMAP
0F80
3FE0
7FE0
79F0
7070
F070
F070
F070
F070
F070
F07C
F07C
F07C
F070
F070
F070
F070
F070
ENDCHAR
STARTCHAR uni054D
ENCODING 1357
SWIDTH 602 0
DWIDTH 14 0
BBX 12 18 1 0
BITMAP
F070
F070
F070
F070
F070
F070
F070
F070
F070
F070
F070
F070
F070
F070
70F0
7FF0
7FE0
1FC0
ENDCHAR
STARTCHAR uni054E
ENCODING 1358
SWIDTH 602 0
DWIDTH 14 0
BBX 14 18 0 0
BITMAP
0070
0070
0070
0070
0070
0070
F070
F070
F070
7070
78F0
7FF0
3FF0
0F70
0070
007C
007C
007C
ENDCHAR
STARTCHAR uni054F
ENCODING 1359
SWIDTH 602 0
DWIDTH 14 0
BBX 12 18 1 0
BITMAP
0F00
3FE0
7FE0
78F0
70F0
7000
7800
7E00
3FC0
1FE0
03F0
00F0
0070
F070
F0F0
7FF0
3FE0
1FC0
ENDCHAR
STARTCHAR uni0550
ENCODING 1360
SWIDTH 602 0
DWIDTH 14 0
BBX 12 18 1 0
BITMAP
0F80
3FC0
7FE0
79F0
F0F0
F070
F070
F070
F000
F000
F000
F000
F000
F000
F000
F000
F000
F000
ENDCHAR
STARTCHAR uni0551
ENCODING 1361
SWIDTH 602 0
DWIDTH 14 0
BBX 13 18 1 0
BITMAP
0780
1FE0
3FE0
78F0
7870
7870
78F0
FFF0
FFC0
FFF0
00F0
0078
0078
7078
7878
7FF0
3FE0
1FC0
ENDCHAR
STARTCHAR uni0552
ENCODING 1362
SWIDTH 602 0
DWIDTH 14 0
BBX 12 18 1 0
BITMAP
F000
F000
F000
F000
F000
FFF0
FFF0
FFF0
F000
F000
F000
F000
F000
F000
F000
F000
F000
F000
ENDCHAR
STARTCHAR uni0553
ENCODING 1363
SWIDTH 602 0
DWIDTH 14 0
BBX 14 18 0 0
BITMAP
0380
0380
1FE0
3FF8
7FF8
739C
639C
E39C
E39C
E39C
E39C
639C
739C
7BB8
3FF8
1FF0
0380
0380
ENDCHAR
STARTCHAR uni0554
ENCODING 1364
SWIDTH 602 0
DWIDTH 14 0
BBX 13 18 1 0
BITMAP
0780
1FE0
3FF0
3CF8
7878
7878
7878
7878
7FF0
7FE0
7FC0
7800
7800
FFF8
FFF8
FFF8
7800
7800
ENDCHAR
STARTCHAR uni0555
ENCODING 1365
SWIDTH 602 0
DWIDTH 14 0
BBX 12 18 1 0
BITMAP
0F00
3FC0
7FE0
70E0
70E0
E070
E070
E070
E070
E070
E070
E070
E070
70E0
70E0
7FE0
3FC0
0F00
ENDCHAR
STARTCHAR uni0556
ENCODING 1366
SWIDTH 602 0
DWIDTH 14 0
BBX 14 18 0 0
BITMAP
0380
3F80
3F80
7B80
7380
3FF0
3FF8
07F8
039C
039C
039C
E39C
E39C
E39C
739C
7FF8
3FF8
1FF0
ENDCHAR
STARTCHAR uni0559
ENCODING 1369
SWIDTH 602 0
DWIDTH 14 0
BBX 3 6 6 12
BITMAP
60
E0
80
80
E0
60
ENDCHAR
STARTCHAR uni055A
ENCODING 1370
SWIDTH 602 0
DWIDTH 14 0
BBX 5 8 5 10
BITMAP
78
78
78
78
70
F0
E0
E0
ENDCHAR
STARTCHAR uni055B
ENCODING 1371
SWIDTH 602 0
DWIDTH 14 0
BBX 7 4 4 15
BITMAP
3E
7C
F8
F0
ENDCHAR
STARTCHAR uni055C
ENCODING 1372
SWIDTH 602 0
DWIDTH 14 0
BBX 11 6 2 15
BITMAP
01E0
07E0
3FC0
FF80
FC00
E000
ENDCHAR
STARTCHAR uni055D
ENCODING 1373
SWIDTH 602 0
DWIDTH 14 0
BBX 7 4 4 15
BITMAP
F0
78
3C
1E
ENDCHAR
STARTCHAR uni055E
ENCODING 1374
SWIDTH 602 0
DWIDTH 14 0
BBX 13 8 1 14
BITMAP
0780
1FE0
3FF0
7878
E078
E770
C3F0
01E0
ENDCHAR
STARTCHAR uni055F
ENCODING 1375
SWIDTH 602 0
DWIDTH 14 0
BBX 10 3 2 15
BITMAP
C000
C000
FFC0
ENDCHAR
STARTCHAR uni0561
ENCODING 1377
SWIDTH 602 0
DWIDTH 14 0
BBX 13 13 1 0
BITMAP
E738
E738
E738
E738
E738
E738
E738
E738
E738
E738
EF78
FFF8
7BB8
ENDCHAR
STARTCHAR uni0562
ENCODING 1378
SWIDTH 602 0
DWIDTH 14 0
BBX 11 18 2 -5
BITMAP
EF80
FFC0
FBC0
F1C0
E1C0
E1C0
E1C0
E1C0
E000
E000
FFE0
FFE0
FFE0
E000
E000
E000
E000
E000
ENDCHAR
STARTCHAR uni0563
ENCODING 1379
SWIDTH 602 0
DWIDTH 14 0
BBX 13 18 1 -5
BITMAP
3EE0
7FE0
FBE0
F1E0
E0E0
E0E0
E0E0
E0E0
F0E0
F1E0
FFF8
7FF8
3EF8
00E0
00E0
00E0
00E0
00E0
ENDCHAR
STARTCHAR uni0564
ENCODING 1380
SWIDTH 602 0
DWIDTH 14 0
BBX 12 18 1 -5
BITMAP
FFC0
FFC0
FBE0
F1E0
F1E0
F1E0
F1E0
F1E0
F1E0
F1E0
F1F0
F1F0
F1F0
01E0
01E0
01E0
01E0
01E0
ENDCHAR
STARTCHAR uni0565
ENCODING 1381
SWIDTH 602 0
DWIDTH 14 0
BBX 11 18 2 0
BITMAP
E000
E000
E000
E000
E000
FFE0
FFE0
FFE0
E000
E000
E1C0
E1C0
E1C0
E1C0
E3C0
FFC0
FFC0
7DC0
ENDCHAR
STARTCHAR uni0566
ENCODING 1382
SWIDTH 602 0
DWIDTH 14 0
BBX 13 18 1 -5
BITMAP
3EE0
7FE0
FBE0
F1E0
E0E0
E0E0
E0E0
E0E0
F0E0
F1E0
FFE0
7FE0
3EE0
00E0
00E0
00F8
00F8
00F8
ENDCHAR
STARTCHAR uni0567
ENCODING 1383
SWIDTH 602 0
DWIDTH 14 0
BBX 10 18 2 0
BITMAP
F000
F000
F000
F000
F000
FFC0
FFC0
FFC0
F000
F000
F000
F000
F000
F000
F000
FF80
FF80
FF80
ENDCHAR
STARTCHAR uni0568
ENCODING 1384
SWIDTH 602 0
DWIDTH 14 0
BBX 11 18 2 -5
BITMAP
EF80
FFC0
FBC0
F1C0
E1C0
E1C0
E1C0
E1C0
E1C0
E1C0
E1C0
E1C0
E1C0
E000
E000
FFE0
FFE0
FFE0
ENDCHAR
STARTCHAR uni0569
ENCODING 1385
SWIDTH 602 0
DWIDTH 14 0
BBX 13 18 1 -5
BITMAP
EFC0
FFE0
FBE0
F0F0
E0F0
E0F0
E1F8
E7F8
ECF0
ECF0
ECE0
ECE0
E7C0
E000
E000
E000
E000
E000
ENDCHAR
STARTCHAR uni056A
ENCODING 1386
SWIDTH 602 0
DWIDTH 14 0
BBX 13 18 1 0
BITMAP
00E0
00E0
00E0
00E0
00E0
1FF8
7FF8
7FF8
F0E0
E0E0
E0E0
E0E0
E0E0
E0E0
F1E0
7BE0
7FC0
3F80
ENDCHAR
STARTCHAR uni056B
ENCODING 1387
SWIDTH 602 0
DWIDTH 14 0
BBX 11 23 2 -5
BITMAP
E000
E000
E000
E000
E000
EF80
FFC0
FBC0
F1C0
E1E0
E1E0
E1E0
E1E0
E1E0
E1E0
E1E0
E1E0
E1E0
E000
E000
E000
E000
E000
ENDCHAR
STARTCHAR uni056C
ENCODING 1388
SWIDTH 602 0
DWIDTH 14 0
BBX 7 18 4 -5
BITMAP
E0
E0
E0
E0
E0
E0
E0
E0
E0
E0
E0
E0
E0
E0
E0
FE
FE
FE
ENDCHAR
STARTCHAR uni056D
ENCODING 1389
SWIDTH 602 0
DWIDTH 14 0
BBX 13 23 1 -5
BITMAP
E000
E000
E000
E000
E000
FE38
FE38
EE38
E738
E738
E738
E738
E738
E738
E738
E778
E7F8
E3B8
E000
E000
E000
E000
E000
ENDCHAR
STARTCHAR uni056E
ENCODING 1390
SWIDTH 602 0
DWIDTH 14 0
BBX 12 18 1 0
BITMAP
0800
1E00
3C00
7C00
3F00
1FF0
3FF0
7FF0
70F0
F0F0
F070
F070
F070
F070
70F0
7FE0
3FE0
1F80
ENDCHAR
STARTCHAR uni056F
ENCODING 1391
SWIDTH 602 0
DWIDTH 14 0
BBX 11 23 2 -5
BITMAP
E000
E000
E000
E000
E000
E1E0
E1E0
E1E0
E1E0
E1E0
E1E0
E1E0
E1E0
E1E0
F1E0
FFE0
7FE0
7DE0
01E0
01E0
01E0
01E0
01E0
ENDCHAR
STARTCHAR uni0570
ENCODING 1392
SWIDTH 602 0
DWIDTH 14 0
BBX 11 18 2 0
BITMAP
E000
E000
E000
E000
E000
E780
FFC0
FFE0
F1E0
E0E0
E0E0
E0E0
E0E0
E0E0
E0E0
E0E0
E0E0
E0E0
ENDCHAR
STARTCHAR uni0571
ENCODING 1393
SWIDTH 602 0
DWIDTH 14 0
BBX 11 18 2 0
BITMAP
3800
7800
7900
7F00
3F00
1E00
3F00
3B80
71C0
71C0
E1E0
E1E0
E1E0
E1E0
F1E0
FFE0
FFE0
7DE0
ENDCHAR
STARTCHAR uni0572
ENCODING 1394
SWIDTH 602 0
DWIDTH 14 0
BBX 12 18 1 -5
BITMAP
FFC0
FFC0
FBE0
F1E0
F1E0
F1E0
F1E0
F1E0
F1E0
F1E0
F1E0
F1E0
F1E0
01E0
01E0
01F0
01F0
01F0
ENDCHAR
STARTCHAR uni0573
ENCODING 1395
SWIDTH 602 0
DWIDTH 14 0
BBX 11 18 2 0
BITMAP
01C0
07C0
0FC0
1E00
3C00
FE00
FF80
FFC0
73C0
F1E0
F1E0
E1E0
E1E0
F1E0
F1E0
FBE0
7FE0
3DE0
ENDCHAR
STARTCHAR uni0574
ENCODING 1396
SWIDTH 602 0
DWIDTH 14 0
BBX 12 18 2 0
BITMAP
01F0
01F0
01E0
01E0
01E0
E1E0
E1E0
E1E0
E1E0
E1E0
E1E0
E1E0
E1E0
E1E0
F1E0
FFE0
7FE0
7DE0
ENDCHAR
STARTCHAR uni0575
ENCODING 1397
SWIDTH 602 0
DWIDTH 14 0
BBX 8 18 3 -5
BITMAP
07
07
07
07
07
07
07
07
07
07
07
07
07
07
07
FF
FE
FC
ENDCHAR
STARTCHAR uni0576
ENCODING 1398
SWIDTH 602 0
DWIDTH 14 0
BBX 12 18 1 0
BITMAP
F800
F800
3800
3800
3800
3870
3870
3870
3870
3870
3870
3870
3870
3870
38F0
3FF0
3FF0
1F70
ENDCHAR
STARTCHAR uni0577
ENCODING 1399
SWIDTH 602 0
DWIDTH 14 0
BBX 11 18 2 -5
BITMAP
3F00
FFC0
F3C0
61C0
01E0
01E0
01C0
03C0
0780
0F00
1E00
3C00
7800
7000
F000
FFC0
FFC0
7FC0
ENDCHAR
STARTCHAR uni0578
ENCODING 1400
SWIDTH 602 0
DWIDTH 14 0
BBX 11 13 2 0
BITMAP
E780
FFC0
FFE0
F1E0
E0E0
E0E0
E0E0
E0E0
E0E0
E0E0
E0E0
E0E0
E0E0
ENDCHAR
STARTCHAR uni0579
ENCODING 1401
SWIDTH 602 0
DWIDTH 14 0
BBX 9 19 3 -5
BITMAP
1000
3800
7800
7000
7000
7900
3F00
1F00
1E00
3C00
3800
7800
7000
F000
E000
E000
FF80
FF80
7F80
ENDCHAR
STARTCHAR uni057A
ENCODING 1402
SWIDTH 602 0
DWIDTH 14 0
BBX 13 18 1 -5
BITMAP
E738
E738
E738
E738
E738
E738
E738
E738
E738
E738
EF78
FFF8
7BB8
0038
0038
0038
0038
0038
ENDCHAR
STARTCHAR uni057B
ENCODING 1403
SWIDTH 602 0
DWIDTH 14 0
BBX 11 18 2 -5
BITMAP
3F80
7FC0
F3C0
E1E0
E1E0
E1E0
F1E0
7BC0
3F80
1F80
1F00
3E00
3C00
7800
F000
FFC0
FFC0
7FC0
ENDCHAR
STARTCHAR uni057C
ENCODING 1404
SWIDTH 602 0
DWIDTH 14 0
BBX 12 13 1 0
BITMAP
F7C0
FFE0
FBE0
F1E0
F0E0
F0E0
F0E0
F0E0
F1C0
F1C0
F3F0
F3F0
F3F0
ENDCHAR
STARTCHAR uni057D
ENCODING 1405
SWIDTH 602 0
DWIDTH 14 0
BBX 11 13 2 0
BITMAP
E0E0
E0E0
E0E0
E0E0
E0E0
E0E0
E0E0
E0E0
E0E0
F1E0
FFE0
7FE0
3CE0
ENDCHAR
STARTCHAR uni057E
ENCODING 1406
SWIDTH 602 0
DWIDTH 14 0
BBX 12 23 1 -5
BITMAP
01E0
01E0
01E0
01E0
01E0
F1E0
F1E0
F1E0
F1E0
F1E0
F1E0
F1E0
F1E0
F1E0
F1E0
FFE0
7FE0
7DE0
01E0
01E0
01F0
01F0
01F0
ENDCHAR
STARTCHAR uni057F
ENCODING 1407
SWIDTH 602 0
DWIDTH 14 0
BBX 12 13 1 0
BITMAP
E6F0
E7F0
E770
E730
E730
E730
E730
E730
E730
E730
EF30
FF30
7F30
ENDCHAR
STARTCHAR uni0580
ENCODING 1408
SWIDTH 602 0
DWIDTH 14 0
BBX 11 18 2 -5
BITMAP
EF80
FFC0
FBC0
F1C0
E1E0
E1E0
E1E0
E1E0
E1E0
E1E0
E1E0
E1E0
E1E0
E000
E000
E000
E000
E000
ENDCHAR
STARTCHAR uni0581
ENCODING 1409
SWIDTH 602 0
DWIDTH 14 0
BBX 12 18 1 -5
BITMAP
1F70
3FF0
7FF0
78F0
F070
E070
E070
E070
F070
78F0
7FF0
3FF0
1F70
0070
60F0
7FF0
7FE0
3F80
ENDCHAR
STARTCHAR uni0582
ENCODING 1410
SWIDTH 602 0
DWIDTH 14 0
BBX 10 13 2 0
BITMAP
F000
F000
F000
F000
F000
F000
F000
F000
F000
F000
FFC0
FFC0
FFC0
ENDCHAR
STARTCHAR uni0583
ENCODING 1411
SWIDTH 602 0
DWIDTH 14 0
BBX 12 23 1 -5
BITMAP
0700
0700
0700
0700
0700
E7F0
E7F0
E770
E730
E730
E730
E730
E730
E730
E730
EF30
FF30
7730
0700
0700
0700
0700
0700
ENDCHAR
STARTCHAR uni0584
ENCODING 1412
SWIDTH 602 0
DWIDTH 14 0
BBX 13 18 1 -5
BITMAP
77E0
77F0
7DF0
7870
7878
7878
7078
7878
7878
7870
7FF0
77E0
73E0
7000
7000
FFF0
FFF0
7000
ENDCHAR
STARTCHAR uni0585
ENCODING 1413
SWIDTH 602 0
DWIDTH 14 0
BBX 12 13 1 0
BITMAP
1F80
3FC0
7FE0
F0E0
E070
E070
E070
E070
E070
70E0
7FE0
3FC0
1F80
ENDCHAR
STARTCHAR uni0586
ENCODING 1414
SWIDTH 602 0
DWIDTH 14 0
BBX 13 23 1 -5
BITMAP
3F00
7F00
7F00
E700
E700
7FC0
7FF0
1FF0
0778
0738
0738
0738
0738
4738
E778
FFF0
7FE0
1FC0
0700
0700
0700
0700
0700
ENDCHAR
STARTCHAR uni0587
ENCODING 1415
SWIDTH 602 0
DWIDTH 14 0
BBX 13 18 1 0
BITMAP
E000
E000
E000
E000
E000
E1C0
E1C0
E1C0
E1C0
E1C0
E1C0
E1C0
E1C0
E1C0
E3C0
FFF8
FDF8
7DF8
ENDCHAR
STARTCHAR uni0589
ENCODING 1417
SWIDTH 602 0
DWIDTH 14 0
BBX 4 12 5 0
BITMAP
F0
F0
F0
F0
00
00
00
00
F0
F0
F0
F0
ENDCHAR
STARTCHAR uni058A
ENCODING 1418
SWIDTH 602 0
DWIDTH 14 0
BBX 7 4 4 4
BITMAP
FE
FE
FE
10
ENDCHAR
STARTCHAR uni0606
ENCODING 1542
SWIDTH 602 0
DWIDTH 14 0
BBX 13 22 1 0
BITMAP
0DB0
07F0
C7F0
E600
E600
6600
7300
7300
3300
3800
3800
38F0
18F8
1CF0
1CC0
0DC0
0FC0
0F80
0780
0780
0700
0700
ENDCHAR
STARTCHAR uni0607
ENCODING 1543
SWIDTH 602 0
DWIDTH 14 0
BBX 13 22 1 0
BITMAP
01C0
0380
C300
E380
E380
6700
7600
77E0
33E0
3800
3800
38F0
18F8
1CF0
1CC0
0DC0
0FC0
0F80
0780
0780
0700
0700
ENDCHAR
STARTCHAR uni0609
ENCODING 1545
SWIDTH 602 0
DWIDTH 14 0
BBX 14 15 0 0
BITMAP
E3C0
E380
E380
0780
0700
0F00
0E00
1E00
1C00
3C00
3800
3B8C
7B8C
738C
F38C
ENDCHAR
STARTCHAR uni060A
ENCODING 1546
SWIDTH 602 0
DWIDTH 14 0
BBX 14 15 0 0
BITMAP
C600
C600
CC00
0C00
1C00
1800
1800
3800
3000
3000
7000
666C
666C
E66C
C66C
ENDCHAR
STARTCHAR uni060C
ENCODING 1548
SWIDTH 602 0
DWIDTH 14 0
BBX 4 7 5 0
BITMAP
30
30
70
70
E0
E0
E0
ENDCHAR
STARTCHAR uni0615
ENCODING 1557
SWIDTH 602 0
DWIDTH 14 0
BBX 6 7 4 15
BITMAP
60
60
60
60
7C
64
F8
ENDCHAR
STARTCHAR uni061B
ENCODING 1563
SWIDTH 602 0
DWIDTH 14 0
BBX 4 15 5 0
BITMAP
70
60
E0
E0
E0
E0
00
00
00
00
00
E0
E0
E0
E0
ENDCHAR
STARTCHAR uni061F
ENCODING 1567
SWIDTH 602 0
DWIDTH 14 0
BBX 10 18 2 0
BITMAP
1E00
7FC0
FFC0
F0C0
E040
F000
7000
3800
1C00
0E00
0E00
0E00
0E00
0000
0000
0E00
0E00
0E00
ENDCHAR
STARTCHAR uni0621
ENCODING 1569
SWIDTH 602 0
DWIDTH 14 0
BBX 8 12 5 0
BITMAP
18
7E
FE
E0
E0
E0
F3
7F
3F
FC
F0
80
ENDCHAR
STARTCHAR uni0622
ENCODING 1570
SWIDTH 602 0
DWIDTH 14 0
BBX 9 24 3 0
BITMAP
0080
F380
FF80
9E00
0000
0000
1C00
1C00
1C00
1C00
1C00
1C00
1C00
1C00
1C00
1C00
1C00
1C00
1C00
1C00
1C00
1C00
1C00
1C00
ENDCHAR
STARTCHAR uni0623
ENCODING 1571
SWIDTH 602 0
DWIDTH 14 0
BBX 4 25 5 0
BITMAP
70
D0
C0
F0
F0
C0
00
70
70
70
70
70
70
70
70
70
70
70
70
70
70
70
70
70
70
ENDCHAR
STARTCHAR uni0624
ENCODING 1572
SWIDTH 602 0
DWIDTH 14 0
BBX 13 22 1 -6
BITMAP
0380
0680
0600
0380
0780
0600
0000
0000
07C0
0FF0
0FF0
1E70
1E78
1FF8
0FF8
03F8
0070
00F0
03E0
FFE0
FF80
FC00
ENDCHAR
STARTCHAR uni0625
ENCODING 1573
SWIDTH 602 0
DWIDTH 14 0
BBX 4 26 5 -8
BITMAP
70
70
70
70
70
70
70
70
70
70
70
70
70
70
70
70
70
70
00
00
70
D0
C0
F0
F0
C0
ENDCHAR
STARTCHAR uni0626
ENCODING 1574
SWIDTH 602 0
DWIDTH 14 0
BBX 14 19 0 -4
BITMAP
1C00
3400
3000
1C00
3C00
30FC
01FC
01DC
0180
01F0
01F8
F03C
E01C
E01C
E03C
F07C
7FF8
7FF0
1FC0
ENDCHAR
STARTCHAR uni0627
ENCODING 1575
SWIDTH 602 0
DWIDTH 14 0
BBX 3 18 6 0
BITMAP
E0
E0
E0
E0
E0
E0
E0
E0
E0
E0
E0
E0
E0
E0
E0
E0
E0
E0
ENDCHAR
STARTCHAR uni0628
ENCODING 1576
SWIDTH 602 0
DWIDTH 14 0
BBX 14 10 0 -4
BITMAP
F01C
F01C
F01C
F07C
7FF8
3FF0
0000
0380
0380
0380
ENDCHAR
STARTCHAR uni0629
ENCODING 1577
SWIDTH 602 0
DWIDTH 14 0
BBX 10 15 2 -1
BITMAP
7700
7700
7700
0000
0000
1000
7F00
7F80
F7C0
F1C0
E1C0
F3C0
FFC0
7F80
1C00
ENDCHAR
STARTCHAR uni062A
ENCODING 1578
SWIDTH 602 0
DWIDTH 14 0
BBX 14 11 0 0
BITMAP
0CC0
0CC0
0CC0
0000
0000
F01C
F01C
F01C
F07C
7FF8
3FF0
ENDCHAR
STARTCHAR uni062B
ENCODING 1579
SWIDTH 602 0
DWIDTH 14 0
BBX 14 15 0 0
BITMAP
0300
0300
0300
0000
0CC0
0CC0
0CC0
0000
0000
F01C
F01C
F01C
F07C
7FF8
3FF0
ENDCHAR
STARTCHAR uni062C
ENCODING 1580
SWIDTH 602 0
DWIDTH 14 0
BBX 13 17 1 -6
BITMAP
1F80
FFE0
FFE0
9F80
3E00
3800
7800
7000
F180
E180
E180
F000
7000
7808
3FF8
1FF8
07E0
ENDCHAR
STARTCHAR uni062D
ENCODING 1581
SWIDTH 602 0
DWIDTH 14 0
BBX 13 17 1 -6
BITMAP
1F80
FFE0
FFE0
9F80
3E00
3800
7800
7000
F000
E000
E000
F000
7000
7808
3FF8
1FF8
07E0
ENDCHAR
STARTCHAR uni062E
ENCODING 1582
SWIDTH 602 0
DWIDTH 14 0
BBX 13 21 1 -6
BITMAP
0E00
0E00
0E00
0000
1F80
FFE0
FFE0
9F80
3E00
3800
7800
7000
F000
E000
E000
F000
7000
7808
3FF8
1FF8
07E0
ENDCHAR
STARTCHAR uni062F
ENCODING 1583
SWIDTH 602 0
DWIDTH 14 0
BBX 10 11 3 0
BITMAP
1E00
0F00
0780
0380
03C0
03C0
03C0
03C0
CF80
FF80
FF00
ENDCHAR
STARTCHAR uni0630
ENCODING 1584
SWIDTH 602 0
DWIDTH 14 0
BBX 10 16 3 0
BITMAP
1C00
1C00
1C00
0000
0000
1E00
0F00
0780
0380
03C0
03C0
03C0
03C0
CF80
FF80
FF00
ENDCHAR
STARTCHAR uni0631
ENCODING 1585
SWIDTH 602 0
DWIDTH 14 0
BBX 15 12 -1 -6
BITMAP
001C
001E
001E
001E
001C
001C
003C
00F8
03F0
FFE0
FF80
F800
ENDCHAR
STARTCHAR uni0632
ENCODING 1586
SWIDTH 602 0
DWIDTH 14 0
BBX 15 18 -1 -6
BITMAP
001C
001C
001C
0000
0000
0000
001C
001E
001E
001E
001C
001C
003C
00F8
03F0
FFE0
FF80
F800
ENDCHAR
STARTCHAR uni0633
ENCODING 1587
SWIDTH 602 0
DWIDTH 14 0
BBX 16 15 -2 -6
BITMAP
0003
0003
0673
0673
0673
E773
E77F
E7FF
E7DE
C600
E600
EE00
FE00
7C00
3800
ENDCHAR
STARTCHAR uni0634
ENCODING 1588
SWIDTH 602 0
DWIDTH 14 0
BBX 16 22 -2 -6
BITMAP
01C0
01C0
01C0
0000
0770
0770
0770
0003
0003
0673
0673
0673
E773
E77F
E7FF
E7DE
C600
E600
EE00
FE00
7C00
3800
ENDCHAR
STARTCHAR uni0635
ENCODING 1589
SWIDTH 602 0
DWIDTH 14 0
BBX 17 14 -3 -6
BITMAP
000C00
003F00
007F80
07F380
E7E380
E7FF80
E7FF00
C7FE00
C70000
E70000
E60000
FE0000
7C0000
380000
ENDCHAR
STARTCHAR uni0636
ENCODING 1590
SWIDTH 602 0
DWIDTH 14 0
BBX 17 17 -3 -6
BITMAP
030000
030000
030000
000C00
003F00
007F80
07F380
E7E380
E7FF80
E7FF00
C7FE00
C70000
E70000
E60000
FE0000
7C0000
380000
ENDCHAR
STARTCHAR uni0637
ENCODING 1591
SWIDTH 602 0
DWIDTH 14 0
BBX 14 18 0 0
BITMAP
1C00
1C00
1C00
1C00
1C00
1C00
1C00
1C00
1C00
1C00
1CF0
1DF8
1FFC
1F1C
1F3C
FFFC
FFF8
FFE0
ENDCHAR
STARTCHAR uni0638
ENCODING 1592
SWIDTH 602 0
DWIDTH 14 0
BBX 14 18 0 0
BITMAP
1C00
1C00
1C00
1C00
1C00
1CC0
1CC0
1CC0
1C00
1C00
1CF0
1DF8
1FFC
1F1C
1F3C
FFFC
FFF8
FFE0
ENDCHAR
STARTCHAR uni0639
ENCODING 1593
SWIDTH 602 0
DWIDTH 14 0
BBX 13 19 1 -6
BITMAP
0700
1F00
7F00
7800
F000
F1E0
7FE0
3FC0
3E00
7800
F000
E000
E000
E000
F000
F808
7FF8
3FF8
0FE0
ENDCHAR
STARTCHAR uni063A
ENCODING 1594
SWIDTH 602 0
DWIDTH 14 0
BBX 13 23 1 -6
BITMAP
1800
1800
1800
0000
0700
1F00
7F00
7800
F000
F1E0
7FE0
3FC0
3E00
7800
F000
E000
E000
E000
F000
F808
7FF8
3FF8
0FE0
ENDCHAR
STARTCHAR uni0640
ENCODING 1600
SWIDTH 602 0
DWIDTH 14 0
BBX 15 3 0 0
BITMAP
FFFE
FFFE
FFFE
ENDCHAR
STARTCHAR uni0641
ENCODING 1601
SWIDTH 602 0
DWIDTH 14 0
BBX 15 17 -1 -2
BITMAP
0030
0030
0030
0000
0030
00FC
01FE
03CE
03CE
E3CE
E1FE
E0FE
E01E
F87E
7FFC
3FF0
0200
ENDCHAR
STARTCHAR uni0642
ENCODING 1602
SWIDTH 602 0
DWIDTH 14 0
BBX 14 23 0 -6
BITMAP
03B8
03B8
03B8
0000
0000
01F0
03F8
07FC
073C
071C
07BC
07FC
03FC
F0DC
E01C
E01C
E03C
E038
F078
7FF0
7FF0
3FC0
0200
ENDCHAR
STARTCHAR uni0643
ENCODING 1603
SWIDTH 602 0
DWIDTH 14 0
BBX 14 19 0 -1
BITMAP
001C
001C
001C
001C
001C
0E1C
0C1C
0C1C
0F1C
031C
1F1C
1C1C
001C
E01C
E03C
F03C
FFF8
7FF0
1FE0
ENDCHAR
STARTCHAR uni0644
ENCODING 1604
SWIDTH 602 0
DWIDTH 14 0
BBX 14 22 0 -4
BITMAP
003C
003C
003C
003C
003C
003C
003C
003C
003C
003C
003C
003C
003C
003C
F03C
F03C
E038
E038
F078
7FF8
7FF0
3FE0
ENDCHAR
STARTCHAR uni0645
ENCODING 1605
SWIDTH 602 0
DWIDTH 14 0
BBX 12 15 1 -6
BITMAP
0100
0FE0
0FF0
1EF0
1E70
7E70
FFF0
FFF0
E3C0
E000
E000
E000
E000
E000
E000
ENDCHAR
STARTCHAR uni0646
ENCODING 1606
SWIDTH 602 0
DWIDTH 14 0
BBX 14 16 0 -4
BITMAP
0700
0700
0700
0000
003C
001C
701C
701C
F01C
F01C
F03C
F03C
7878
7FF8
3FF0
0FC0
ENDCHAR
STARTCHAR uni0647
ENCODING 1607
SWIDTH 602 0
DWIDTH 14 0
BBX 10 10 2 -1
BITMAP
1000
7F00
7F80
F7C0
F1C0
E1C0
F3C0
FFC0
7F80
1C00
ENDCHAR
STARTCHAR uni0648
ENCODING 1608
SWIDTH 602 0
DWIDTH 14 0
BBX 13 14 1 -6
BITMAP
07C0
0FF0
0FF0
1E70
1E78
1FF8
0FF8
03F8
0070
00F0
03E0
FFE0
FF80
FC00
ENDCHAR
STARTCHAR uni0649
ENCODING 1609
SWIDTH 602 0
DWIDTH 14 0
BBX 14 14 0 -4
BITMAP
00FC
01FC
01DC
0180
01F0
01F8
F03C
E01C
E01C
E03C
F07C
7FF8
7FF0
1FC0
ENDCHAR
STARTCHAR uni064A
ENCODING 1610
SWIDTH 602 0
DWIDTH 14 0
BBX 14 18 0 -8
BITMAP
00FC
01FC
01DC
0180
01F0
01F8
F03C
E01C
E01C
E03C
F07C
7FF8
7FF0
1FC0
0000
1DC0
1DC0
1DC0
ENDCHAR
STARTCHAR uni064B
ENCODING 1611
SWIDTH 602 0
DWIDTH 14 0
BBX 7 6 4 14
BITMAP
1E
FE
E0
1E
FE
E0
ENDCHAR
STARTCHAR uni064C
ENCODING 1612
SWIDTH 602 0
DWIDTH 14 0
BBX 8 8 3 13
BITMAP
1E
1E
1E
CF
C7
CC
FC
30
ENDCHAR
STARTCHAR uni064D
ENCODING 1613
SWIDTH 602 0
DWIDTH 14 0
BBX 7 7 4 -7
BITMAP
06
3E
F8
C6
3E
F8
C0
ENDCHAR
STARTCHAR uni064E
ENCODING 1614
SWIDTH 602 0
DWIDTH 14 0
BBX 7 3 4 14
BITMAP
1E
FE
E0
ENDCHAR
STARTCHAR uni064F
ENCODING 1615
SWIDTH 602 0
DWIDTH 14 0
BBX 8 7 3 14
BITMAP
1E
1E
1E
0F
1F
F8
F0
ENDCHAR
STARTCHAR uni0650
ENCODING 1616
SWIDTH 602 0
DWIDTH 14 0
BBX 7 4 4 -4
BITMAP
06
3E
F8
C0
ENDCHAR
STARTCHAR uni0651
ENCODING 1617
SWIDTH 602 0
DWIDTH 14 0
BBX 8 7 3 14
BITMAP
01
19
D9
DB
DF
F6
60
ENDCHAR
STARTCHAR uni0652
ENCODING 1618
SWIDTH 602 0
DWIDTH 14 0
BBX 7 7 4 14
BITMAP
7C
FC
CE
C6
FE
7C
30
ENDCHAR
STARTCHAR uni0653
ENCODING 1619
SWIDTH 602 0
DWIDTH 14 0
BBX 9 4 3 14
BITMAP
0080
F380
FF80
9E00
ENDCHAR
STARTCHAR uni0654
ENCODING 1620
SWIDTH 602 0
DWIDTH 14 0
BBX 4 6 5 14
BITMAP
70
D0
C0
F0
F0
C0
ENDCHAR
STARTCHAR uni0655
ENCODING 1621
SWIDTH 602 0
DWIDTH 14 0
BBX 4 6 5 -7
BITMAP
70
D0
C0
F0
F0
C0
ENDCHAR
STARTCHAR uni065A
ENCODING 1626
SWIDTH 602 0
DWIDTH 14 0
BBX 7 4 4 15
BITMAP
CE
EC
7C
38
ENDCHAR
STARTCHAR uni0660
ENCODING 1632
SWIDTH 602 0
DWIDTH 14 0
BBX 4 4 5 5
BITMAP
F0
F0
F0
F0
ENDCHAR
STARTCHAR uni0661
ENCODING 1633
SWIDTH 602 0
DWIDTH 14 0
BBX 5 16 5 0
BITMAP
E0
E0
F0
70
70
70
78
78
78
38
38
38
38
38
38
38
ENDCHAR
STARTCHAR uni0662
ENCODING 1634
SWIDTH 602 0
DWIDTH 14 0
BBX 11 16 2 0
BITMAP
E0E0
F0E0
F1E0
7FC0
7F80
7E00
7800
7800
3800
3800
3800
3800
3800
3800
3800
3800
ENDCHAR
STARTCHAR uni0663
ENCODING 1635
SWIDTH 602 0
DWIDTH 14 0
BBX 13 16 1 0
BITMAP
E738
F738
7738
7FF8
7FF0
7C40
3800
3800
3800
3800
3800
3800
3C00
3C00
1C00
1C00
ENDCHAR
STARTCHAR uni0664
ENCODING 1636
SWIDTH 602 0
DWIDTH 14 0
BBX 10 16 2 0
BITMAP
0F00
3F00
7E00
7800
7800
7C00
3E00
3E00
7C00
F000
E000
E000
F040
FFC0
7FC0
3F80
ENDCHAR
STARTCHAR uni0665
ENCODING 1637
SWIDTH 602 0
DWIDTH 14 0
BBX 12 17 1 -1
BITMAP
0F80
1FC0
3DE0
79E0
70E0
70F0
F070
F070
F070
E070
E070
F070
70F0
79F0
7FE0
1FC0
0200
ENDCHAR
STARTCHAR uni0666
ENCODING 1638
SWIDTH 602 0
DWIDTH 14 0
BBX 13 16 1 0
BITMAP
FFE0
FFE0
FFE0
00E0
00E0
00E0
00E0
00E0
00E0
00E0
00F0
00F0
0070
0070
0070
0078
ENDCHAR
STARTCHAR uni0667
ENCODING 1639
SWIDTH 602 0
DWIDTH 14 0
BBX 12 16 1 0
BITMAP
F0F0
70F0
78E0
39E0
39C0
3DC0
1FC0
1F80
1F80
0F80
0F80
0F00
0F00
0F00
0700
0700
ENDCHAR
STARTCHAR uni0668
ENCODING 1640
SWIDTH 602 0
DWIDTH 14 0
BBX 12 16 1 0
BITMAP
0700
0F00
0F00
0F00
0F80
0F80
1F80
1F80
1FC0
1DC0
3DC0
39E0
78E0
78E0
70F0
F070
ENDCHAR
STARTCHAR uni0669
ENCODING 1641
SWIDTH 602 0
DWIDTH 14 0
BBX 12 16 1 0
BITMAP
3F80
7FC0
7BC0
F1C0
F1C0
7DC0
7FE0
3FE0
01E0
00E0
00E0
00E0
00F0
00F0
00F0
0070
ENDCHAR
STARTCHAR uni066A
ENCODING 1642
SWIDTH 602 0
DWIDTH 14 0
BBX 11 15 2 0
BITMAP
E1E0
E1C0
E380
0380
0700
0700
0E00
1E00
1C00
3C00
3800
78E0
70E0
F0E0
E0E0
ENDCHAR
STARTCHAR uni066B
ENCODING 1643
SWIDTH 602 0
DWIDTH 14 0
BBX 8 11 3 -3
BITMAP
07
07
03
07
07
07
0E
1E
FC
F8
C0
ENDCHAR
STARTCHAR uni066C
ENCODING 1644
SWIDTH 602 0
DWIDTH 14 0
BBX 4 6 5 12
BITMAP
70
70
70
70
60
E0
ENDCHAR
STARTCHAR uni066D
ENCODING 1645
SWIDTH 602 0
DWIDTH 14 0
BBX 10 9 2 3
BITMAP
0400
0C00
0C00
FFC0
3F80
1E00
1F00
3B00
2100
ENDCHAR
STARTCHAR uni0674
ENCODING 1652
SWIDTH 602 0
DWIDTH 14 0
BBX 4 6 5 15
BITMAP
70
D0
C0
F0
F0
C0
ENDCHAR
STARTCHAR uni0679
ENCODING 1657
SWIDTH 602 0
DWIDTH 14 0
BBX 14 15 0 0
BITMAP
0200
0200
0200
0200
03C0
0360
07C0
0000
0000
F01C
F01C
F01C
F07C
7FF8
3FF0
ENDCHAR
STARTCHAR uni067A
ENCODING 1658
SWIDTH 602 0
DWIDTH 14 0
BBX 14 14 0 0
BITMAP
0380
0380
0380
0000
0380
0380
0380
0000
F01C
F01C
F01C
F07C
7FF8
3FF0
ENDCHAR
STARTCHAR uni067B
ENCODING 1659
SWIDTH 602 0
DWIDTH 14 0
BBX 14 14 0 -8
BITMAP
F01C
F01C
F01C
F07C
7FF8
3FF0
0000
0300
0300
0300
0000
0300
0300
0300
ENDCHAR
STARTCHAR uni067E
ENCODING 1662
SWIDTH 602 0
DWIDTH 14 0
BBX 14 14 0 -8
BITMAP
F01C
F01C
F01C
F07C
7FF8
3FF0
0000
0EE0
0EE0
0EE0
0000
0380
0380
0380
ENDCHAR
STARTCHAR uni067F
ENCODING 1663
SWIDTH 602 0
DWIDTH 14 0
BBX 14 15 0 0
BITMAP
0EE0
0EE0
0EE0
0000
0EE0
0EE0
0EE0
0000
0000
F01C
F01C
F01C
F07C
7FF8
3FF0
ENDCHAR
STARTCHAR uni0680
ENCODING 1664
SWIDTH 602 0
DWIDTH 14 0
BBX 14 14 0 -8
BITMAP
F01C
F01C
F01C
F07C
7FF8
3FF0
0000
0EE0
0EE0
0EE0
0000
0EE0
0EE0
0EE0
ENDCHAR
STARTCHAR uni0683
ENCODING 1667
SWIDTH 602 0
DWIDTH 14 0
BBX 13 17 1 -6
BITMAP
1F80
FFE0
FFE0
9F80
3E00
3800
7800
7338
F338
E338
E000
F000
7000
7808
3FF8
1FF8
07E0
ENDCHAR
STARTCHAR uni0684
ENCODING 1668
SWIDTH 602 0
DWIDTH 14 0
BBX 13 17 1 -6
BITMAP
1F80
FFE0
FFE0
9F80
3E00
38E0
78E0
70E0
F000
E0E0
E0E0
F0E0
7000
7808
3FF8
1FF8
07E0
ENDCHAR
STARTCHAR uni0686
ENCODING 1670
SWIDTH 602 0
DWIDTH 14 0
BBX 13 17 1 -6
BITMAP
1F80
FFE0
FFE0
9F80
3E00
3BB8
7BB8
73B8
F000
E0E0
E0E0
F0E0
7000
7808
3FF8
1FF8
07E0
ENDCHAR
STARTCHAR uni0687
ENCODING 1671
SWIDTH 602 0
DWIDTH 14 0
BBX 13 17 1 -6
BITMAP
1F80
FFE0
FFE0
9F80
3E00
3BB8
7BB8
73B8
F000
E3B8
E3B8
F3B8
7000
7808
3FF8
1FF8
07E0
ENDCHAR
STARTCHAR uni0691
ENCODING 1681
SWIDTH 602 0
DWIDTH 14 0
BBX 15 21 -1 -6
BITMAP
0030
0030
0030
0030
003E
003A
007E
0000
0000
001C
001E
001E
001E
001C
001C
003C
00F8
03F0
FFE0
FF80
F800
ENDCHAR
STARTCHAR uni0698
ENCODING 1688
SWIDTH 602 0
DWIDTH 14 0
BBX 15 22 -1 -6
BITMAP
0018
0018
0018
0000
0066
0066
0066
0000
0000
0000
001C
001E
001E
001E
001C
001C
003C
00F8
03F0
FFE0
FF80
F800
ENDCHAR
STARTCHAR uni06A4
ENCODING 1700
SWIDTH 602 0
DWIDTH 14 0
BBX 15 21 -1 -2
BITMAP
0070
0070
0070
0000
01DC
01DC
01DC
0000
0030
00FC
01FE
03CE
03CE
E3CE
E1FE
E0FE
E01E
F87E
7FFC
3FF0
0200
ENDCHAR
STARTCHAR uni06A9
ENCODING 1705
SWIDTH 602 0
DWIDTH 14 0
BBX 16 20 0 -1
BITMAP
0001
0003
0007
001F
003E
007C
00F8
00E0
00E0
00F0
0070
0038
003C
F01C
E01C
E03C
F03C
78FC
7FF8
1FE0
ENDCHAR
STARTCHAR uni06AF
ENCODING 1711
SWIDTH 602 0
DWIDTH 14 0
BBX 16 24 0 -1
BITMAP
0001
0007
000F
001E
0039
00F3
00E7
00DF
003E
007C
00F8
00E0
00E0
00F0
0070
0038
003C
F01C
E01C
E03C
F03C
78FC
7FF8
1FE0
ENDCHAR
STARTCHAR uni06BE
ENCODING 1726
SWIDTH 602 0
DWIDTH 14 0
BBX 15 13 -1 -1
BITMAP
0600
07C0
07E0
07F0
07F8
0F7C
0E7E
077E
E7EE
FFE6
FFFE
7FFE
007C
ENDCHAR
STARTCHAR uni06CC
ENCODING 1740
SWIDTH 602 0
DWIDTH 14 0
BBX 14 14 0 -4
BITMAP
00FC
01FC
01DC
0180
01F0
01F8
F03C
E01C
E01C
E03C
F07C
7FF8
7FF0
1FC0
ENDCHAR
STARTCHAR uni06F0
ENCODING 1776
SWIDTH 602 0
DWIDTH 14 0
BBX 4 4 5 5
BITMAP
F0
F0
F0
F0
ENDCHAR
STARTCHAR uni06F1
ENCODING 1777
SWIDTH 602 0
DWIDTH 14 0
BBX 5 16 5 0
BITMAP
E0
E0
F0
70
70
70
78
78
78
38
38
38
38
38
38
38
ENDCHAR
STARTCHAR uni06F2
ENCODING 1778
SWIDTH 602 0
DWIDTH 14 0
BBX 11 16 2 0
BITMAP
E0E0
F0E0
F1E0
7FC0
7F80
7E00
7800
7800
3800
3800
3800
3800
3800
3800
3800
3800
ENDCHAR
ENDFONT
